#N canvas 379 123 419 447 12;
#X obj 159 195 histodog;
#X msg 59 89 2 1;
#X msg 162 89 2.5 1;
#X msg 215 89 2.75 1;
#X msg 100 89 2.25 1;
#X msg 271 89 3 1;
#X msg 307 90 4 1;
#X msg 340 91 4 10;
#X msg 256 157 wtf 5 1 3 0.05;
#X msg 57 152 clear;
#X obj 161 223 print;
#X connect 0 0 10 0;
#X connect 1 0 0 0;
#X connect 2 0 0 0;
#X connect 3 0 0 0;
#X connect 4 0 0 0;
#X connect 5 0 0 0;
#X connect 6 0 0 0;
#X connect 7 0 0 0;
#X connect 8 0 0 0;
#X connect 9 0 0 0;
