#N canvas 271 129 541 485 10;
#X obj 390 317 print;
#X msg 391 191 print;
#X msg 390 214 clear;
#X floatatom 20 61 5 0 1000 0 - - -;
#X obj 390 296 peaktracker;
#X obj 406 273 r pt;
#X msg 20 80 \; pt ntracks \$1;
#X msg 27 129 \; pt 0 440 1 \, 1 220 0.5 \, 2 660 0.5;
#X msg 386 138 start;
#X msg 20 38 3;
#X msg 386 162 doit;
#X obj 22 11 loadbang;
#X msg 235 51 \; pt 0 440 1 \, 1 330 0.5 \, 2 660 0.5;
#X obj 69 299 mtof;
#X obj 69 262 unpack;
#X obj 36 384 pack 0 0 0;
#X obj 29 350 f;
#X obj 57 353 + 1;
#X obj 36 326 t b f;
#X obj 37 408 s pt;
#X msg 172 222 0 \; pt clear \;;
#X msg 11 191 60 1 \, 61 1 \, 65 1 \, 67 1 \, 69 1 \, 73 1 \, 78 1
\, 84 1;
#X msg 398 240 snapshot;
#X msg 147 378 \; pt inter1value 5 \, inter1tones 5 \, inter1tolerance
1;
#X connect 1 0 4 0;
#X connect 2 0 4 0;
#X connect 3 0 6 0;
#X connect 4 0 0 0;
#X connect 5 0 4 0;
#X connect 8 0 4 0;
#X connect 9 0 3 0;
#X connect 10 0 4 0;
#X connect 11 0 9 0;
#X connect 13 0 18 0;
#X connect 14 0 13 0;
#X connect 14 1 15 2;
#X connect 15 0 19 0;
#X connect 16 0 17 0;
#X connect 16 0 15 0;
#X connect 17 0 16 1;
#X connect 18 0 16 0;
#X connect 18 1 15 1;
#X connect 20 0 16 1;
#X connect 21 0 14 0;
#X connect 22 0 4 0;
