#N canvas 147 273 764 618 12;
#X obj 6 375 hip~ 5;
#N canvas 0 0 450 300 (subpatch) 0;
#X array sample-table 111629 float 0;
#X coords 0 1.02 111628 -1.02 200 130 1 0 0;
#X restore 388 -4 graph;
#X obj 100 185 tabread4~ sample-table;
#X obj 100 153 line~;
#X floatatom 59 48 0 0 36 0 - - -;
#X obj 98 341 loadbang;
#X text 96 287 Fanatics take note: if you want really high-fidelity
sampling \, use a high-quality resampling program to up-sample your
soundfile to 88200 to drastically reduce interpolation error., f 72
;
#X text 394 149 (one second plus three extra;
#X text 396 168 for 4-point interpolation);
#X text 512 561 updated for Pd version 0.33;
#X text 387 127 --- 44103 samples ---;
#X obj 98 390 soundfiler;
#X text 94 48 <= read point in 100ths of a second;
#X obj 5 105 / 76;
#X obj 6 219 lop~;
#X obj 5 180 line;
#X msg 98 365 read -resize ../samples/Woo.wav sample-table;
#X obj 6 318 cos~;
#X obj 6 294 *~;
#X floatatom 24 259 5 0 0 0 - - -;
#X obj 5 132 * 5000;
#X obj 75 -54 key;
#X floatatom 75 -30 5 0 0 0 - - -;
#X obj 75 -8 sel 97;
#X msg 74 15 0;
#X msg 122 15 36;
#X obj 100 128 pack 0 200;
#X obj 5 156 pack 0 200;
#X floatatom 167 95 5 0 0 0 - - -;
#X obj 100 104 * 441;
#X obj 6 440 dac~;
#X obj 6 401 *~ 0.1;
#X text -214 -70 PUCKETTE STYLE SCRATCH MACHINE 1 Changing repoint
makes sound 2 Slew and 3 wavefold change "color" Experiment at will!
;
#X connect 0 0 31 0;
#X connect 2 0 14 0;
#X connect 3 0 2 0;
#X connect 4 0 13 0;
#X connect 4 0 29 0;
#X connect 5 0 16 0;
#X connect 13 0 20 0;
#X connect 14 0 18 0;
#X connect 15 0 14 1;
#X connect 16 0 11 0;
#X connect 17 0 0 0;
#X connect 18 0 17 0;
#X connect 19 0 18 1;
#X connect 20 0 27 0;
#X connect 21 0 22 0;
#X connect 22 0 23 0;
#X connect 23 0 24 0;
#X connect 23 1 25 0;
#X connect 24 0 4 0;
#X connect 25 0 4 0;
#X connect 26 0 3 0;
#X connect 27 0 15 0;
#X connect 28 0 26 1;
#X connect 28 0 27 1;
#X connect 29 0 26 0;
#X connect 31 0 30 0;
#X connect 31 0 30 1;
