#N canvas -51 43 587 664 12;
#X obj 142 284 makenote;
#X obj 178 49 del 1000;
#X obj 178 72 del 1000;
#X obj 178 97 del 1000;
#X msg 176 15 bang;
#X msg 90 37 60 100 500;
#X msg 90 73 60 100 500;
#X msg 90 100 62 100 500;
#X msg 91 125 60 100 500;
#X obj 202 398 pack 0 0 0;
#X obj 201 419 print;
#X msg 284 281 print;
#X msg 284 325 read poodle.txt;
#X msg 298 13 clear;
#X obj 186 316 t f f;
#X msg 297 65 record \$1;
#X obj 297 46 tgl 15 0 empty empty empty 0 -6 0 8 -262144 -1 -1 0 1
;
#X obj 296 92 tgl 15 0 empty empty empty 0 -6 0 8 -262144 -1 -1 1 1
;
#X msg 296 111 play \$1;
#X obj 80 337 print;
#X obj 81 316 pack 0 0;
#X obj 202 374 smerdyakov 88 4 x1;
#X msg 284 303 write poodle1.txt;
#X msg 289 240 tempo \$1;
#X obj 290 217 / 100;
#X floatatom 290 196 5 0 1000 0 - - -;
#X floatatom 292 147 5 0 1000 0 - - -;
#X msg 291 167 depth \$1;
#X obj 162 549 smerdyakov 88 4 x2;
#X obj 323 555 smerdyakov 88 4 x3;
#X obj 483 386 loadbang;
#X msg 392 203 mix x2;
#X msg 395 231 mix x1;
#X msg 393 174 mix x2 x3 \$1;
#X obj 394 151 / 100;
#X floatatom 394 130 5 0 1000 0 - - -;
#X msg 167 480 read ../walk1.txt;
#X msg 325 479 read ../walk2.txt;
#X msg 21 182 override 60;
#X msg 24 208 override 65;
#X obj 437 52 / 100;
#X floatatom 437 31 5 0 1000 0 - - -;
#X msg 437 77 uniformize \$1;
#X msg 482 416 400;
#X connect 0 0 20 0;
#X connect 0 0 21 0;
#X connect 0 1 14 0;
#X connect 0 1 20 1;
#X connect 1 0 2 0;
#X connect 1 0 6 0;
#X connect 2 0 3 0;
#X connect 2 0 7 0;
#X connect 3 0 8 0;
#X connect 4 0 1 0;
#X connect 4 0 5 0;
#X connect 5 0 0 0;
#X connect 6 0 0 0;
#X connect 7 0 0 0;
#X connect 8 0 0 0;
#X connect 9 0 10 0;
#X connect 11 0 21 0;
#X connect 12 0 21 0;
#X connect 13 0 21 0;
#X connect 14 0 21 1;
#X connect 14 1 21 2;
#X connect 15 0 21 0;
#X connect 16 0 15 0;
#X connect 17 0 18 0;
#X connect 18 0 21 0;
#X connect 20 0 19 0;
#X connect 21 0 9 0;
#X connect 21 1 9 1;
#X connect 21 2 9 2;
#X connect 22 0 21 0;
#X connect 23 0 21 0;
#X connect 24 0 23 0;
#X connect 25 0 24 0;
#X connect 26 0 27 0;
#X connect 27 0 21 0;
#X connect 30 0 37 0;
#X connect 30 0 36 0;
#X connect 30 0 12 0;
#X connect 30 0 43 0;
#X connect 31 0 21 0;
#X connect 32 0 21 0;
#X connect 33 0 21 0;
#X connect 34 0 33 0;
#X connect 35 0 34 0;
#X connect 36 0 28 0;
#X connect 37 0 29 0;
#X connect 38 0 21 0;
#X connect 39 0 21 0;
#X connect 40 0 42 0;
#X connect 41 0 40 0;
#X connect 42 0 21 0;
#X connect 43 0 25 0;
