#N canvas 467 52 726 714 10;
#X text 336 18 This is an attempt to make something compatible with
antescofo version v0.39.19 \, "Compiled on Aug 24 2010 21:36:42";
#X obj 50 24 inlet;
#X msg 49 584 read -c \$1;
#X obj 48 558 list;
#X obj 206 101 b;
#X obj 301 249 f;
#X obj 335 252 + 1;
#X msg 179 141 0;
#X msg 113 150 line 0;
#X obj 313 103 b;
#X text 214 87 stop;
#X text 127 72 start;
#X text 315 84 next;
#X obj 314 173 until;
#X obj 312 149 spigot;
#X msg 344 127 0;
#X msg 376 127 1;
#X obj 299 196 t b b;
#X msg 136 237 step;
#X obj 48 627 text define \$0-text;
#X obj 111 261 text sequence \$0-text;
#X obj 62 605 print read-score;
#X obj 119 332 b;
#X obj 111 283 list trim;
#X obj 397 399 f;
#X obj 281 362 list;
#X obj 242 388 route bang;
#X obj 253 447 spigot;
#X msg 209 414 0;
#X msg 241 413 1;
#X obj 419 364 t b s;
#X obj 420 342 symbol;
#X obj 338 478 pack 0 1;
#X obj 523 542 print GFWD-overload;
#X obj 523 517 spigot;
#X obj 397 421 t b f f b;
#X msg 567 489 1;
#X msg 535 491 0;
#X obj 339 544 pack 0 0 0 s;
#X obj 525 422 r \$0-done;
#X obj 525 448 pack 0 0;
#X obj 338 500 poly 12 1;
#X obj 339 571 route 1 2 3 4 5 6 7 8 9 10 11 12;
#X obj 170 365 s \$0-kill;
#X obj 253 572 print gfwd;
#X obj 74 526 outlet;
#X obj 51 45 route read start stop nextlabel tempo;
#X msg 432 265 tempo \$1 permin;
#X obj 470 158 loadbang;
#X obj 141 495 list split 1;
#X obj 253 469 t l l;
#X obj 234 496 list split 1;
#X obj 178 520 send;
#X obj 394 603 gfwd \$0;
#X obj 74 503 symbol;
#X msg 78 371 symbol start;
#X obj 85 430 unpack 0 0 s;
#X obj 157 455 t s b;
#X obj 120 88 t b b b;
#X msg 470 180 60 60;
#X obj 470 212 *;
#X obj 470 234 / 60;
#X obj 418 181 t b f;
#X obj 110 305 route NOTE GFWD [ ] KILL BPM FWD;
#X obj 431 654 gfwd \$0;
#X obj 412 676 gfwd \$0;
#X obj 339 674 gfwd \$0;
#X obj 357 652 gfwd \$0;
#X obj 375 625 gfwd \$0;
#X obj 449 627 gfwd \$0;
#X obj 467 605 gfwd \$0;
#X obj 486 677 gfwd \$0;
#X obj 504 655 gfwd \$0;
#X obj 523 628 gfwd \$0;
#X obj 541 606 gfwd \$0;
#X obj 437 295 s gfwd-text;
#X connect 1 0 46 0;
#X connect 2 0 19 0;
#X connect 2 0 21 0;
#X connect 3 0 2 0;
#X connect 4 0 15 0;
#X connect 4 0 13 1;
#X connect 5 0 6 0;
#X connect 5 0 24 1;
#X connect 6 0 5 1;
#X connect 7 0 5 1;
#X connect 8 0 20 0;
#X connect 9 0 14 0;
#X connect 13 0 17 0;
#X connect 14 0 13 0;
#X connect 15 0 14 1;
#X connect 16 0 14 1;
#X connect 17 0 18 0;
#X connect 17 1 5 0;
#X connect 18 0 20 0;
#X connect 20 0 23 0;
#X connect 20 1 4 0;
#X connect 22 0 13 1;
#X connect 23 0 63 0;
#X connect 24 0 35 0;
#X connect 25 0 26 0;
#X connect 26 1 27 0;
#X connect 27 0 50 0;
#X connect 28 0 27 1;
#X connect 29 0 27 1;
#X connect 30 0 24 0;
#X connect 30 1 38 3;
#X connect 31 0 30 0;
#X connect 32 0 41 0;
#X connect 34 0 33 0;
#X connect 35 0 34 0;
#X connect 35 1 32 0;
#X connect 35 3 36 0;
#X connect 36 0 34 1;
#X connect 37 0 34 1;
#X connect 38 0 42 0;
#X connect 39 0 40 0;
#X connect 40 0 41 0;
#X connect 41 0 38 0;
#X connect 41 1 38 2;
#X connect 41 2 37 0;
#X connect 41 2 38 1;
#X connect 42 0 66 0;
#X connect 42 1 67 0;
#X connect 42 2 68 0;
#X connect 42 3 53 0;
#X connect 42 4 65 0;
#X connect 42 5 64 0;
#X connect 42 6 69 0;
#X connect 42 7 70 0;
#X connect 42 8 71 0;
#X connect 42 9 72 0;
#X connect 42 10 73 0;
#X connect 42 11 74 0;
#X connect 46 0 3 0;
#X connect 46 1 55 0;
#X connect 46 1 58 0;
#X connect 46 2 4 0;
#X connect 46 3 9 0;
#X connect 46 4 62 0;
#X connect 47 0 20 0;
#X connect 47 0 75 0;
#X connect 48 0 59 0;
#X connect 49 1 52 0;
#X connect 50 0 49 0;
#X connect 50 1 51 0;
#X connect 51 0 52 1;
#X connect 54 0 45 0;
#X connect 55 0 54 1;
#X connect 56 2 57 0;
#X connect 57 0 54 1;
#X connect 57 1 54 0;
#X connect 58 0 9 0;
#X connect 58 1 8 0;
#X connect 58 1 7 0;
#X connect 58 1 16 0;
#X connect 58 2 29 0;
#X connect 58 2 4 0;
#X connect 59 0 60 0;
#X connect 60 0 61 0;
#X connect 61 0 47 0;
#X connect 62 0 60 0;
#X connect 62 1 60 1;
#X connect 63 0 22 0;
#X connect 63 0 56 0;
#X connect 63 1 28 0;
#X connect 63 1 31 0;
#X connect 63 3 29 0;
#X connect 63 4 43 0;
#X connect 63 5 60 0;
#X connect 63 6 25 0;
#X connect 63 7 25 0;
