#N canvas 313 52 506 561 10;
#X obj 45 50 inlet;
#X obj 256 105 sel symbol;
#X obj 249 177 f;
#X obj 249 199 sel 0 1;
#X obj 273 60 symbol;
#X obj 247 339 symbol;
#X obj 299 338 symbol;
#X obj 45 72 route 0;
#X obj 247 361 print kill-nothing;
#X obj 318 234 print kill-doit;
#X text 34 10 'velocity' \, line number \, name, f 12;
#X obj 44 126 t b f;
#X msg 79 175 line \$1;
#X obj 77 150 + 1;
#X obj 38 356 list trim;
#X obj 36 378 route [ ];
#X msg 144 308 stop;
#X msg 224 147 0;
#X msg 191 148 1;
#X text 286 178 1 if running;
#X obj 125 377 print gfwd-doit;
#X obj 273 38 r \$1-kill;
#X obj 388 333 f;
#X obj 388 355 s \$0-done;
#X obj 145 283 b;
#X obj 38 330 text sequence \$1-text -w 1;
#X obj 69 95 unpack 0 0 s;
#X obj 28 449 list split 1;
#X obj 90 422 t l l;
#X obj 121 450 list split 1;
#X obj 96 497 send;
#X obj 95 402 list;
#X obj 88 230 r reset;
#X obj 49 472 list trim;
#X msg 36 207 auto;
#X obj 57 289 r gfwd-text;
#X connect 0 0 7 0;
#X connect 1 0 2 0;
#X connect 2 0 3 0;
#X connect 3 0 5 0;
#X connect 3 1 6 0;
#X connect 3 1 22 0;
#X connect 3 1 24 0;
#X connect 4 0 1 0;
#X connect 5 0 8 0;
#X connect 6 0 9 0;
#X connect 7 1 26 0;
#X connect 11 0 34 0;
#X connect 11 1 13 0;
#X connect 11 1 22 1;
#X connect 12 0 25 0;
#X connect 13 0 12 0;
#X connect 14 0 15 0;
#X connect 15 1 24 0;
#X connect 15 2 31 0;
#X connect 16 0 25 0;
#X connect 17 0 2 1;
#X connect 18 0 2 1;
#X connect 21 0 4 0;
#X connect 22 0 23 0;
#X connect 24 0 17 0;
#X connect 24 0 16 0;
#X connect 25 0 14 0;
#X connect 25 2 24 0;
#X connect 26 1 11 0;
#X connect 26 2 1 1;
#X connect 26 2 6 1;
#X connect 26 2 5 1;
#X connect 26 2 18 0;
#X connect 27 1 33 0;
#X connect 28 0 27 0;
#X connect 28 1 29 0;
#X connect 29 0 30 1;
#X connect 31 0 28 0;
#X connect 32 0 24 0;
#X connect 33 0 30 0;
#X connect 34 0 25 0;
#X connect 35 0 25 0;
