#N canvas 55 60 1220 629 10;
#X obj 152 115 *~;
#X obj 152 317 output~;
#N canvas 0 22 450 278 (subpatch) 0;
#X array tab1 67 float 5;
#A 0 -0.142857 0.114285 -0.371428 -0.557142 -0.157143 0.0714284 -0.0714285
-0.257142 -0.899998 -0.699999 -0.471428 -0.342856 0.0571427 0.385713
0.799998 -0.585713 -0.314285 -0.0428571 0.185714 0.285714 0.114285
-0.0714285 -0.171428 -0.242857 -0.285714 -0.328571 -0.142857 0.0142856
0.042857 0.042857 -0.0142857 -0.0142857 -0.0142857 -0.0142857 -0.0142857
-0.0142857 -0.0142857 -0.0142857 -0.0142857 -0.0142857 -0.0142857 -0.0142857
-0.0142857 -0.0142857 -0.0142857 -0.0142857 -0.0142857 -0.0142857 -0.0142857
-0.0142857 -0.0142857 -0.0142857 -0.0142857 -0.0142857 -0.0214286 -0.0285714
-0.0285714 -0.0285714 -0.0285714 -0.0285714 -0.0285714 -0.0285714 -0.0285714
-0.0285714 -0.0285714 -0.0285714 -0.0428571;
#X coords 0 -1 66 1 200 140 1 0 0;
#X restore 962 51 graph;
#X msg 809 51 \; tab1 sinesum 100 1;
#X msg 177 -38 1;
#X msg 210 -10 0;
#X obj 233 -80 bng 15 250 50 0 empty empty empty 17 7 0 10 -262144
-1 -1;
#X obj 152 279 hip~ 5;
#X obj 152 197 *~;
#X floatatom 179 141 5 0 0 0 - - -, f 5;
#X obj 179 160 / 100;
#X obj 233 -116 metro;
#X obj 227 -140 tgl 15 0 empty empty empty 17 7 0 10 -262144 -1 -1
0 1;
#X obj 58 52 *~;
#X floatatom 138 -43 5 0 0 0 - - -, f 5;
#X obj 25 -9 osc~ 60;
#X obj 93 -9 osc~ 100;
#N canvas 516 116 594 464 tables 0;
#X obj 168 476 cos~;
#X obj 168 430 *~;
#X obj 211 478 cos~;
#X obj 252 379 wrap~;
#X obj 215 378 -~;
#X obj 211 455 +~;
#X obj 209 513 -~;
#X obj 230 539 *~;
#X obj 215 348 samphold~;
#X floatatom 232 228 4 0 200 0 - - -, f 4;
#X obj 232 251 / 10;
#X obj 232 300 line~;
#X text 232 187 tenths of;
#X text 232 207 fundamental);
#X obj 232 277 pack 0 50;
#X floatatom 121 260 4 0 0 0 - - -, f 4;
#X text 106 207 fundamental;
#X text 106 227 (= mod freq);
#X floatatom 435 345 4 0 500 0 - - -, f 4;
#X obj 385 361 cos~;
#X obj 435 414 line~;
#X obj 385 384 *~;
#X obj 435 368 / 100;
#X obj 168 453 +~;
#X text 388 410 modulating;
#X text 388 430 oscillator;
#X text 40 452 both phases-->;
#X text 9 435 add modulator to;
#X obj 207 565 +~;
#X obj 121 283 r~ a;
#X obj 217 606 s~ b;
#X obj 418 212 tgl 15 0 empty empty empty 17 7 0 10 -262144 -1 -1 0
1;
#X obj 418 166 r metro;
#X obj 435 391 pack 0 1000;
#X obj 418 232 moses 1;
#X obj 452 305 line 0 100;
#X msg 397 271 50 1000;
#X msg 464 269 10 1000;
#X connect 0 0 6 1;
#X connect 0 0 28 0;
#X connect 1 0 23 0;
#X connect 2 0 6 0;
#X connect 3 0 4 1;
#X connect 3 0 7 1;
#X connect 4 0 1 1;
#X connect 5 0 2 0;
#X connect 6 0 7 0;
#X connect 7 0 28 1;
#X connect 8 0 4 0;
#X connect 8 0 3 0;
#X connect 9 0 10 0;
#X connect 10 0 14 0;
#X connect 11 0 8 0;
#X connect 14 0 11 0;
#X connect 15 0 29 0;
#X connect 18 0 22 0;
#X connect 19 0 21 0;
#X connect 20 0 21 1;
#X connect 21 0 23 1;
#X connect 22 0 33 0;
#X connect 23 0 5 0;
#X connect 23 0 0 0;
#X connect 28 0 30 0;
#X connect 29 0 8 1;
#X connect 29 0 19 0;
#X connect 29 0 1 0;
#X connect 29 0 5 1;
#X connect 31 0 34 0;
#X connect 33 0 20 0;
#X connect 34 0 36 0;
#X connect 34 1 37 0;
#X connect 35 0 18 0;
#X connect 36 0 35 0;
#X connect 37 0 35 0;
#X restore 965 -35 pd tables;
#X floatatom 38 -45 5 0 0 0 - - -, f 5;
#X obj 58 75 s~ a;
#X floatatom 266 -136 5 0 0 0 - metro -, f 5;
#X obj 278 -81 s metro;
#X obj 57 99 r~ b;
#X floatatom 265 33 5 0 0 0 - b -, f 5;
#X floatatom 229 33 5 0 0 0 - a -, f 5;
#X floatatom 337 32 5 0 0 0 - d -, f 5;
#X floatatom 301 32 5 0 0 0 - c -, f 5;
#X floatatom 373 32 5 0 0 0 - e -, f 5;
#X obj 187 81 adsr 100 45 67 6 7;
#X obj 210 -38 del 2000;
#X obj 255 307 record2;
#X msg 465 -82 \; a 100 \; b 5 \; c 67 \; d 6 \; e 10;
#X obj 460 165 tgl 15 0 empty empty empty 17 7 0 10 -262144 -1 -1 0
1;
#X obj 449 205 double_random 1000 1;
#X obj 137 -70 / 2;
#X connect 0 0 8 0;
#X connect 4 0 28 0;
#X connect 5 0 28 0;
#X connect 6 0 4 0;
#X connect 6 0 29 0;
#X connect 7 0 1 0;
#X connect 7 0 1 1;
#X connect 7 0 30 0;
#X connect 7 0 30 1;
#X connect 8 0 7 0;
#X connect 9 0 10 0;
#X connect 10 0 8 1;
#X connect 11 0 6 0;
#X connect 11 0 21 0;
#X connect 12 0 11 0;
#X connect 13 0 19 0;
#X connect 13 0 0 0;
#X connect 14 0 16 0;
#X connect 15 0 13 0;
#X connect 16 0 13 1;
#X connect 18 0 15 0;
#X connect 23 0 28 2;
#X connect 24 0 28 1;
#X connect 25 0 28 4;
#X connect 26 0 28 3;
#X connect 27 0 28 5;
#X connect 27 0 29 1;
#X connect 28 0 0 1;
#X connect 29 0 5 0;
#X connect 32 0 33 0;
#X connect 33 1 18 0;
#X connect 33 1 11 1;
#X connect 33 1 34 0;
#X connect 34 0 14 0;
