#N canvas 13 188 1712 760 12;
#X obj 110 150 noise~;
#X obj 132 206 *~ 0.8;
#X obj 132 230 *~ 0.8;
#X floatatom 194 183 5 0 0 0 - - -;
#X text 236 184 input gain;
#X floatatom 194 210 5 0 0 0 - - -;
#X text 236 211 amplitude formation;
#X msg 493 380 246.379 5.96225 287.276 0.606508 0.61968;
#X obj 454 21 metro 100;
#X obj 454 -6 tgl 15 0 empty empty empty 17 7 0 10 -262144 -1 -1 1
1;
#X obj 454 174 line;
#X obj 454 149 pack 0 0 100;
#X floatatom 891 29 5 0 0 0 - - -;
#X text 848 26 slew;
#X obj 575 158 line;
#X obj 575 133 pack 0 0 100;
#X obj 672 56 / 100;
#X obj 672 157 line;
#X obj 672 132 pack 0 0 100;
#X obj 776 118 / 100;
#X obj 776 168 line;
#X obj 776 143 pack 0 0 100;
#X obj 831 231 / 100;
#X obj 831 281 line;
#X obj 831 256 pack 0 0 100;
#X obj 492 242 pack 0 0 0 0 0;
#X msg 492 355 set \$1 \$2 \$3 \$4 \$5;
#X obj 574 11 metro 100;
#X obj 574 -16 tgl 15 0 empty empty empty 17 7 0 10 -262144 -1 -1 1
1;
#X obj 671 2 metro 100;
#X obj 671 -25 tgl 15 0 empty empty empty 17 7 0 10 -262144 -1 -1 1
1;
#X obj 671 25 random 100;
#X obj 775 63 metro 100;
#X obj 775 36 tgl 15 0 empty empty empty 17 7 0 10 -262144 -1 -1 1
1;
#X obj 775 86 random 100;
#X obj 874 166 metro 100;
#X obj 874 139 tgl 15 0 empty empty empty 17 7 0 10 -262144 -1 -1 1
1;
#X obj 874 189 random 100;
#X obj 242 449 dac~;
#X obj 242 344 *~ 0.1;
#X obj 242 290 bp~;
#X obj 454 44 random 1000;
#X obj 574 34 random 12;
#X obj 574 66 / 12;
#X obj 574 108 * 12;
#X obj 454 74 / 1000;
#X obj 454 114 * 0;
#X floatatom 274 85 5 0 0 0 - - -;
#X floatatom 270 47 5 0 0 0 - - -;
#X text 204 86 Hi shelf;
#X text 223 46 tempo;
#X obj 60 208 *~ 0.68;
#X obj 60 232 *~ 0.99;
#X obj 664 93 * 10000;
#X floatatom 783 -7 5 0 0 0 - - -;
#X floatatom 637 75 5 0 0 0 - - -;
#X obj 242 318 clip~ -1 1;
#X msg 1233 406 208.202 6.48932 294.132 0.62316 0;
#X obj 1194 47 metro 100;
#X obj 1194 20 tgl 15 0 empty empty empty 17 7 0 10 -262144 -1 -1 1
1;
#X obj 1194 200 line;
#X obj 1194 175 pack 0 0 100;
#X floatatom 1631 55 5 0 0 0 - - -;
#X text 1588 52 slew;
#X obj 1315 184 line;
#X obj 1315 159 pack 0 0 100;
#X obj 1412 82 / 100;
#X obj 1412 183 line;
#X obj 1412 158 pack 0 0 100;
#X obj 1516 144 / 100;
#X obj 1516 194 line;
#X obj 1516 169 pack 0 0 100;
#X obj 1571 257 / 100;
#X obj 1571 307 line;
#X obj 1571 282 pack 0 0 100;
#X obj 1232 268 pack 0 0 0 0 0;
#X msg 1232 381 set \$1 \$2 \$3 \$4 \$5;
#X obj 1314 37 metro 100;
#X obj 1314 10 tgl 15 0 empty empty empty 17 7 0 10 -262144 -1 -1 1
1;
#X obj 1411 28 metro 100;
#X obj 1411 1 tgl 15 0 empty empty empty 17 7 0 10 -262144 -1 -1 1
1;
#X obj 1411 51 random 100;
#X obj 1515 89 metro 100;
#X obj 1515 62 tgl 15 0 empty empty empty 17 7 0 10 -262144 -1 -1 1
1;
#X obj 1515 112 random 100;
#X obj 1614 192 metro 100;
#X obj 1614 165 tgl 15 0 empty empty empty 17 7 0 10 -262144 -1 -1
0 1;
#X obj 1614 215 random 100;
#X obj 1194 70 random 1000;
#X obj 1314 60 random 12;
#X obj 1314 92 / 12;
#X obj 1314 134 * 12;
#X obj 1194 100 / 1000;
#X obj 1194 140 * 0;
#X floatatom 1014 111 5 0 0 0 - - -;
#X floatatom 1010 73 5 0 0 0 - - -;
#X obj 1404 119 * 10000;
#X floatatom 1523 19 5 0 0 0 - - -;
#X floatatom 1358 92 5 0 0 0 - - -;
#X obj 360 290 bp~;
#X obj 360 318 clip~ -1 1;
#X obj 360 344 *~ 0.1;
#X text 82 529 Stereo noise generator with randomization of Lopass
Fc. Set tempo \, slew in ms \, and max Fc for lopass.;
#X connect 0 0 1 0;
#X connect 0 0 51 0;
#X connect 1 0 2 0;
#X connect 2 0 40 0;
#X connect 2 0 99 0;
#X connect 3 0 1 1;
#X connect 5 0 2 1;
#X connect 8 0 41 0;
#X connect 9 0 8 0;
#X connect 10 0 25 0;
#X connect 10 0 40 1;
#X connect 11 0 10 0;
#X connect 12 0 11 1;
#X connect 12 0 15 1;
#X connect 12 0 18 1;
#X connect 12 0 21 1;
#X connect 12 0 24 1;
#X connect 14 0 25 1;
#X connect 14 0 40 2;
#X connect 15 0 14 0;
#X connect 16 0 53 0;
#X connect 17 0 25 2;
#X connect 17 0 47 0;
#X connect 18 0 17 0;
#X connect 19 0 21 0;
#X connect 20 0 25 3;
#X connect 21 0 20 0;
#X connect 22 0 24 0;
#X connect 23 0 25 4;
#X connect 24 0 23 0;
#X connect 25 0 26 0;
#X connect 26 0 7 0;
#X connect 27 0 42 0;
#X connect 28 0 27 0;
#X connect 29 0 31 0;
#X connect 30 0 29 0;
#X connect 31 0 16 0;
#X connect 32 0 34 0;
#X connect 33 0 32 0;
#X connect 34 0 19 0;
#X connect 35 0 37 0;
#X connect 36 0 35 0;
#X connect 37 0 22 0;
#X connect 39 0 38 0;
#X connect 40 0 56 0;
#X connect 41 0 45 0;
#X connect 42 0 43 0;
#X connect 43 0 44 0;
#X connect 44 0 15 0;
#X connect 45 0 46 0;
#X connect 46 0 11 0;
#X connect 47 0 46 1;
#X connect 48 0 8 1;
#X connect 51 0 52 0;
#X connect 53 0 18 0;
#X connect 54 0 29 1;
#X connect 55 0 53 1;
#X connect 56 0 39 0;
#X connect 58 0 88 0;
#X connect 59 0 58 0;
#X connect 60 0 75 0;
#X connect 60 0 99 1;
#X connect 61 0 60 0;
#X connect 62 0 61 1;
#X connect 62 0 65 1;
#X connect 62 0 68 1;
#X connect 62 0 71 1;
#X connect 62 0 74 1;
#X connect 64 0 75 1;
#X connect 64 0 99 2;
#X connect 65 0 64 0;
#X connect 66 0 96 0;
#X connect 67 0 75 2;
#X connect 67 0 94 0;
#X connect 68 0 67 0;
#X connect 69 0 71 0;
#X connect 70 0 75 3;
#X connect 71 0 70 0;
#X connect 72 0 74 0;
#X connect 73 0 75 4;
#X connect 74 0 73 0;
#X connect 75 0 76 0;
#X connect 76 0 57 0;
#X connect 77 0 89 0;
#X connect 78 0 77 0;
#X connect 79 0 81 0;
#X connect 80 0 79 0;
#X connect 81 0 66 0;
#X connect 82 0 84 0;
#X connect 83 0 82 0;
#X connect 84 0 69 0;
#X connect 85 0 87 0;
#X connect 86 0 85 0;
#X connect 87 0 72 0;
#X connect 88 0 92 0;
#X connect 89 0 90 0;
#X connect 90 0 91 0;
#X connect 91 0 65 0;
#X connect 92 0 93 0;
#X connect 93 0 61 0;
#X connect 94 0 93 1;
#X connect 95 0 58 1;
#X connect 96 0 68 0;
#X connect 97 0 79 1;
#X connect 98 0 96 1;
#X connect 99 0 100 0;
#X connect 100 0 101 0;
#X connect 101 0 38 1;
