#N canvas 51 97 771 442 12;
#X obj 323 22 inlet~;
#X obj 93 131 loop~;
#X obj 182 12 r init;
#X obj 182 38 b;
#X obj 182 62 samplerate~;
#X msg 93 91 1;
#X obj 180 92 /~;
#X obj 93 156 biquad~ 0 0 1 -1 0;
#X obj 92 224 *~;
#X obj 89 186 wrap~;
#X obj 89 272 *~ 0.5;
#X obj 89 297 phasor~;
#X msg 167 279 0;
#X obj 100 326 outlet~;
#X obj 313 55 max~ 0.2;
#X obj 294 154 snapshot~;
#X obj 300 119 metro 250;
#X obj 300 101 tgl 15 0 empty empty empty 17 7 0 10 -262144 -1 -1 0
1;
#X floatatom 294 179 5 0 0 0 - - -, f 5;
#X obj 332 245 tgl 15 0 empty empty empty 17 7 0 10 -262144 -1 -1 0
1;
#X obj 245 303 tabwrite~ array1;
#X obj 331 267 metro 1001;
#X obj 265 274 bng 15 250 50 0 empty empty empty 17 7 0 10 -262144
-1 -1;
#X connect 0 0 14 0;
#X connect 1 0 7 0;
#X connect 1 0 20 0;
#X connect 2 0 3 0;
#X connect 3 0 4 0;
#X connect 3 0 5 0;
#X connect 3 0 1 0;
#X connect 3 0 12 0;
#X connect 4 0 6 0;
#X connect 4 0 8 1;
#X connect 5 0 1 0;
#X connect 6 0 1 1;
#X connect 7 0 9 0;
#X connect 8 0 10 0;
#X connect 9 0 8 0;
#X connect 10 0 11 0;
#X connect 11 0 13 0;
#X connect 12 0 11 1;
#X connect 14 0 6 1;
#X connect 15 0 18 0;
#X connect 16 0 15 0;
#X connect 17 0 16 0;
#X connect 19 0 21 0;
#X connect 21 0 22 0;
#X connect 22 0 20 0;
