#N canvas 201 0 711 318 10;
#X obj 50 148 tabreadwrap4~ poodle 8;
#X floatatom 58 119 5 0 0 0 - - -;
#X floatatom 110 120 5 0 0 0 - - -;
#X obj 246 58 table poodle 24;
#X msg 183 197 \; poodle 0 0 1 2 3 4 5 6 7 0 0 0 0 0 0 0 0 1 1 1 1
1 1 1 1;
#X obj 55 222 snapshot~;
#X obj 96 199 metro 250;
#X obj 98 178 loadbang;
#X floatatom 63 254 7 0 0 0 - - -;
#X connect 0 0 5 0;
#X connect 1 0 0 0;
#X connect 2 0 0 1;
#X connect 5 0 8 0;
#X connect 6 0 5 0;
#X connect 7 0 6 0;
#X connect 7 0 4 0;
