#N canvas 607 157 663 581 10;
#X obj 111 114 dbtorms;
#X obj 143 51 unpack;
#X obj 166 5 r \$1;
#X obj 17 417 outlet~;
#X obj 166 29 t l b;
#X obj 196 135 20;
#X obj 157 157 swap;
#X obj 126 181 t f f;
#X obj 333 348 del 20;
#X obj 49 373 line~;
#X obj 133 289 pack;
#X obj 98 203 <= 30;
#X obj 98 224 sel 1 0;
#X obj 133 259 f;
#X obj 164 259 f;
#X obj 190 228 expr $f1*$f1*$f1*$f1;
#X msg 295 323 stop;
#X obj 333 320 t b;
#X obj 270 419 snapshot~;
#X obj 270 443 expr sqrt(sqrt(max($f1 \, 0)));
#X obj 259 387 t f b;
#X obj 167 471 expr $f3 + ($f1-$f3)*20/$f2;
#X obj 167 496 expr $f1*$f1*$f1*$f1;
#X obj 167 522 pack 0 20;
#X obj 432 225 - 20;
#X obj 409 272 pack;
#X obj 409 249 f;
#X obj 409 294 s \$1;
#X obj 186 323 swap;
#X obj 186 366 route 0;
#X msg 186 388 set \$1;
#X obj 186 345 pack;
#X obj 141 72 t f f;
#X obj 111 92 * 0.15;
#X obj 111 136 * 17783;
#X connect 0 0 34 0;
#X connect 1 0 32 0;
#X connect 1 1 6 1;
#X connect 2 0 4 0;
#X connect 4 0 1 0;
#X connect 4 1 5 0;
#X connect 5 0 6 1;
#X connect 6 0 7 0;
#X connect 6 1 14 1;
#X connect 6 1 15 0;
#X connect 7 0 11 0;
#X connect 7 1 10 1;
#X connect 7 1 20 0;
#X connect 7 1 24 0;
#X connect 8 0 26 0;
#X connect 9 0 3 0;
#X connect 9 0 18 0;
#X connect 10 0 9 0;
#X connect 10 0 16 0;
#X connect 10 0 28 0;
#X connect 11 0 12 0;
#X connect 12 0 13 0;
#X connect 12 1 14 0;
#X connect 13 0 10 0;
#X connect 14 0 21 0;
#X connect 14 0 17 0;
#X connect 15 0 13 1;
#X connect 16 0 8 0;
#X connect 17 0 8 0;
#X connect 18 0 19 0;
#X connect 19 0 21 2;
#X connect 20 0 21 1;
#X connect 20 1 18 0;
#X connect 21 0 22 0;
#X connect 22 0 23 0;
#X connect 23 0 9 0;
#X connect 24 0 25 1;
#X connect 25 0 27 0;
#X connect 26 0 25 0;
#X connect 28 0 31 0;
#X connect 28 1 31 1;
#X connect 29 0 30 0;
#X connect 30 0 18 0;
#X connect 31 0 29 0;
#X connect 32 0 33 0;
#X connect 32 1 26 1;
#X connect 33 0 0 0;
#X connect 34 0 6 0;
