#N canvas 239 125 820 696 12;
#X msg 213 214 set 10000;
#X obj 17 126 sel 0 1;
#X obj 239 86 == \$1;
#X msg 46 333 0;
#X floatatom 239 108 0 0 0 0 - - -;
#X obj 86 333 i;
#X obj 133 333 + 1;
#X obj 338 220 i;
#X msg 165 214 stop;
#X obj 267 435 sel 0;
#X obj 338 246 change;
#X text 371 219 event number;
#X obj 86 127 spigot;
#X obj 239 64 r section-number;
#X obj 479 131 r section-scofo;
#X obj 451 55 r section-scofo-tutti;
#X obj 344 269 s section-label;
#X obj 151 174 r section-reset;
#X obj 86 86 r section-step;
#X text 360 291 for display;
#X text 98 64 manual step;
#X text 247 44 section number;
#X obj 459 79 r section-scofo-number;
#X obj 465 106 r section-scofo-right-inlet;
#X obj 86 283 spigot;
#X obj 86 308 t b;
#X obj 114 212 t b;
#X obj 165 239 del 200;
#X msg 114 258 0;
#X msg 151 262 1;
#X text 170 153 reset;
#X text 190 4 SCORE FOLLOWER AND QLIST SEQUENCER;
#X msg 252 478 nextlabel;
#X obj 349 441 bng 15 250 50 0 empty empty empty 17 7 0 10 -262144
-1 -1;
#X obj 339 482 f \$1;
#X obj 377 650 s event-name;
#X msg 255 558 score ../antescore\$1.txt \, start;
#X obj 73 611 spigot;
#X obj 73 636 print zzz;
#X obj 140 612 tgl 15 0 empty empty empty 17 7 0 10 -262144 -1 -1 0
1;
#X obj 594 574 antescofake;
#X obj 612 625 print note;
#X msg 641 444 start;
#X obj 264 409 spigot;
#X obj 31 370 r section-antescofo-number-\$1;
#X obj 196 408 spigot;
#X obj 584 289 loadbang;
#X obj 583 341 tgl 15 0 empty empty empty 17 7 0 10 -262144 -1 -1 0
1;
#X obj 23 511 print section-antescofo-number-\$1;
#X obj 498 391 r section-antescofo-number-\$1;
#X obj 500 427 spigot;
#X obj 432 421 spigot;
#X obj 583 361 == 0;
#X obj 408 467 sel 0;
#X msg 662 473 nextlabel;
#X msg 444 496 nextlabel;
#X obj 591 649 s event-name;
#X msg 420 523 read antescore-latest.txt \, start;
#X msg 584 314 0;
#X obj 244 613 antescofake/antescofake;
#X connect 0 0 10 0;
#X connect 1 1 3 0;
#X connect 2 0 1 0;
#X connect 2 0 4 0;
#X connect 3 0 5 0;
#X connect 4 0 12 1;
#X connect 5 0 7 0;
#X connect 6 0 5 1;
#X connect 7 0 10 0;
#X connect 7 0 6 0;
#X connect 8 0 27 0;
#X connect 9 0 34 0;
#X connect 9 1 32 0;
#X connect 10 0 16 0;
#X connect 10 0 43 0;
#X connect 10 0 51 0;
#X connect 12 0 24 0;
#X connect 13 0 2 0;
#X connect 17 0 8 0;
#X connect 17 0 29 0;
#X connect 17 0 0 0;
#X connect 18 0 12 0;
#X connect 24 0 25 0;
#X connect 25 0 5 0;
#X connect 26 0 27 0;
#X connect 26 0 28 0;
#X connect 27 0 29 0;
#X connect 28 0 24 1;
#X connect 29 0 24 1;
#X connect 32 0 37 0;
#X connect 32 0 59 0;
#X connect 33 0 34 0;
#X connect 34 0 36 0;
#X connect 36 0 37 0;
#X connect 36 0 59 0;
#X connect 37 0 38 0;
#X connect 39 0 37 1;
#X connect 40 0 56 0;
#X connect 42 0 40 0;
#X connect 43 0 9 0;
#X connect 44 0 45 0;
#X connect 45 0 37 0;
#X connect 45 0 48 0;
#X connect 45 0 59 0;
#X connect 46 0 58 0;
#X connect 47 0 43 1;
#X connect 47 0 45 1;
#X connect 47 0 52 0;
#X connect 49 0 50 0;
#X connect 50 0 40 0;
#X connect 51 0 53 0;
#X connect 52 0 50 1;
#X connect 52 0 51 1;
#X connect 53 0 57 0;
#X connect 53 1 55 0;
#X connect 54 0 40 0;
#X connect 55 0 40 0;
#X connect 57 0 40 0;
#X connect 58 0 47 0;
#X connect 59 0 35 0;
