#N canvas 233 68 551 528 10;
#X obj 54 188 hilbert~;
#X obj 227 171 cos~;
#X obj 263 171 cos~;
#X obj 54 220 *~;
#X obj 86 220 *~;
#X obj 54 256 -~;
#X obj 124 257 +~;
#X obj 227 119 phasor~;
#X obj 140 397 *~;
#X obj 171 398 *~;
#X obj 129 225 *~;
#X obj 161 225 *~;
#X obj 53 329 +~;
#X obj 106 332 -~;
#X obj 141 423 -~;
#X obj 287 371 +~;
#X obj 313 370 -~;
#X obj 391 402 *~;
#X obj 422 403 *~;
#X obj 392 428 +~;
#X obj 263 149 -~ -0.25;
#X obj 53 156 inlet~;
#X obj 226 93 inlet~;
#X obj 141 462 outlet~;
#X obj 331 456 outlet~;
#X text 112 28 split a signal into LF and HF bands;
#X text 50 129 signal;
#X text 228 72 cutoff (Hz.);
#X text 146 489 low;
#X text 335 485 high;
#X obj 411 190 inlet;
#X obj 54 293 hilbert~;
#X obj 125 295 hilbert~;
#X obj 329 405 *~;
#X obj 360 406 *~;
#X obj 330 432 -~;
#X text 425 434 (quadrature);
#X obj 201 399 *~;
#X obj 232 400 *~;
#X obj 202 425 +~;
#X text 235 431 (quadrature);
#X connect 0 0 3 0;
#X connect 0 0 10 0;
#X connect 0 1 4 0;
#X connect 0 1 11 0;
#X connect 1 0 3 1;
#X connect 1 0 8 1;
#X connect 1 0 11 1;
#X connect 1 0 17 1;
#X connect 1 0 33 1;
#X connect 1 0 37 1;
#X connect 2 0 4 1;
#X connect 2 0 9 1;
#X connect 2 0 10 1;
#X connect 2 0 18 1;
#X connect 2 0 34 1;
#X connect 2 0 38 1;
#X connect 3 0 5 0;
#X connect 4 0 5 1;
#X connect 5 0 31 0;
#X connect 6 0 32 0;
#X connect 7 0 1 0;
#X connect 7 0 20 0;
#X connect 8 0 14 0;
#X connect 9 0 14 1;
#X connect 10 0 6 0;
#X connect 11 0 6 1;
#X connect 12 0 8 0;
#X connect 12 0 38 0;
#X connect 13 0 9 0;
#X connect 13 0 37 0;
#X connect 14 0 23 0;
#X connect 15 0 18 0;
#X connect 15 0 33 0;
#X connect 16 0 17 0;
#X connect 16 0 34 0;
#X connect 17 0 19 0;
#X connect 18 0 19 1;
#X connect 20 0 2 0;
#X connect 21 0 0 0;
#X connect 22 0 7 0;
#X connect 30 0 0 1;
#X connect 30 0 31 1;
#X connect 30 0 32 1;
#X connect 31 0 12 0;
#X connect 31 0 16 0;
#X connect 31 1 13 0;
#X connect 31 1 15 0;
#X connect 32 0 13 1;
#X connect 32 0 15 1;
#X connect 32 1 12 1;
#X connect 32 1 16 1;
#X connect 33 0 35 0;
#X connect 34 0 35 1;
#X connect 35 0 24 0;
#X connect 37 0 39 0;
#X connect 38 0 39 1;
