#N canvas 433 403 522 563 12;
#X obj 54 30 bellpartial \$1 0;
#X msg 223 173 \; bell-params 0 100 90 7 92 95;
#X msg 221 212 \; bell-note 48 100 100;
#X floatatom 221 109 5 0 0 0 - - -;
#X obj 207 55 r bell-note-\$1;
#X obj 207 78 s bell-do-note-\$1;
#X msg 221 134 \; bell-note-1 \$1 100 100;
#X obj 54 9 r bell-do-params;
#X obj 54 9 r bell-do-params;
#X obj 54 51 bellpartial \$1 1;
#X obj 54 72 bellpartial \$1 2;
#X obj 54 93 bellpartial \$1 3;
#X obj 54 114 bellpartial \$1 4;
#X obj 54 135 bellpartial \$1 5;
#X obj 54 156 bellpartial \$1 6;
#X obj 54 177 bellpartial \$1 7;
#X obj 54 198 bellpartial \$1 8;
#X obj 54 219 bellpartial \$1 9;
#X obj 54 240 bellpartial \$1 10;
#X obj 54 261 bellpartial \$1 11;
#X obj 54 282 bellpartial \$1 12;
#X obj 54 303 bellpartial \$1 13;
#X obj 54 324 bellpartial \$1 14;
#X obj 54 345 bellpartial \$1 15;
#X obj 17 516 outlet~;
#X obj 13 427 inlet~;
#X obj 80 516 outlet~;
#X obj 67 428 inlet~;
#X obj 143 516 outlet~;
#X obj 118 428 inlet~;
#X obj 173 427 inlet~;
#X obj 205 516 outlet~;
#X obj 268 516 outlet~;
#X obj 330 516 outlet~;
#X obj 229 429 inlet~;
#X obj 287 430 inlet~;
#N canvas 360 22 769 555 flanger 0;
#X obj 58 63 inlet~;
#X obj 56 500 outlet~;
#X obj 74 439 *~;
#X obj 56 473 +~;
#X obj 383 350 expr min(100 \, max(0 \, $f1)) / 100;
#N canvas 2 383 539 499 flanger-stage-1 0;
#X obj 46 10 inlet~;
#X obj 44 442 outlet~;
#X obj 327 27 inlet~;
#X obj 408 136 inlet;
#X obj 437 201 line~;
#X obj 57 239 *~;
#X obj 284 159 +~;
#X obj 284 242 +~;
#X obj 68 310 *~;
#X obj 437 176 pack 0 30;
#X obj 54 61 sig~ 0.023;
#X obj 85 390 *~;
#X obj 285 322 +~;
#X obj 445 277 *~;
#X obj 436 333 *~;
#X obj 52 159 vd~ \$0-flanger-delay;
#X obj 57 203 vd~ \$0-flanger-delay;
#X obj 68 272 vd~ \$0-flanger-delay;
#X obj 85 352 vd~ \$0-flanger-delay;
#X connect 2 0 6 1;
#X connect 2 0 7 1;
#X connect 2 0 12 1;
#X connect 3 0 9 0;
#X connect 4 0 5 1;
#X connect 4 0 13 0;
#X connect 4 0 13 1;
#X connect 4 0 14 0;
#X connect 5 0 1 0;
#X connect 6 0 7 0;
#X connect 6 0 16 0;
#X connect 7 0 12 0;
#X connect 7 0 17 0;
#X connect 8 0 1 0;
#X connect 9 0 4 0;
#X connect 10 0 6 0;
#X connect 10 0 15 0;
#X connect 11 0 1 0;
#X connect 12 0 18 0;
#X connect 13 0 8 1;
#X connect 13 0 14 1;
#X connect 14 0 11 1;
#X connect 15 0 1 0;
#X connect 16 0 5 0;
#X connect 17 0 8 0;
#X connect 18 0 11 0;
#X restore 88 211 pd flanger-stage-1;
#N canvas 556 290 563 548 flanger-stage-2 0;
#X obj 55 45 inlet~;
#X obj 42 483 outlet~;
#X obj 327 27 inlet~;
#X obj 408 136 inlet;
#X obj 433 222 line~;
#X obj 53 260 *~;
#X obj 280 180 +~;
#X obj 280 263 +~;
#X obj 64 331 *~;
#X obj 433 197 pack 0 30;
#X obj 50 82 sig~ 0.023;
#X obj 81 411 *~;
#X obj 281 343 +~;
#X obj 441 298 *~;
#X obj 432 354 *~;
#X obj 48 180 vd~ \$0-flanger-delay2;
#X obj 53 224 vd~ \$0-flanger-delay2;
#X obj 64 293 vd~ \$0-flanger-delay2;
#X obj 81 373 vd~ \$0-flanger-delay2;
#X connect 2 0 6 1;
#X connect 2 0 7 1;
#X connect 2 0 12 1;
#X connect 3 0 9 0;
#X connect 4 0 5 1;
#X connect 4 0 13 0;
#X connect 4 0 13 1;
#X connect 4 0 14 0;
#X connect 5 0 1 0;
#X connect 6 0 7 0;
#X connect 6 0 16 0;
#X connect 7 0 12 0;
#X connect 7 0 17 0;
#X connect 8 0 1 0;
#X connect 9 0 4 0;
#X connect 10 0 6 0;
#X connect 10 0 15 0;
#X connect 11 0 1 0;
#X connect 12 0 18 0;
#X connect 13 0 8 1;
#X connect 13 0 14 1;
#X connect 14 0 11 1;
#X connect 15 0 1 0;
#X connect 16 0 5 0;
#X connect 17 0 8 0;
#X connect 18 0 11 0;
#X restore 88 304 pd flanger-stage-2;
#X obj 422 251 *~ 4;
#X obj 383 383 expr $f1*$f1*$f1*$f1;
#X obj 421 138 line~;
#X obj 415 70 unpack;
#X obj 382 322 line;
#X obj 335 462 pack 0 30;
#X floatatom 437 462 5 0 0 0 - - -;
#X obj 335 490 line~;
#X obj 130 385 *~;
#X floatatom 289 382 5 0 0 0 - - -;
#X floatatom 287 417 5 0 0 0 - - -;
#X obj 74 415 -~;
#X obj 335 431 expr sqrt(max(0.05 \, (1-$f1)));
#X obj 418 41 t l b;
#X obj 467 71 50;
#X obj 358 104 expr $f1*$f1*$f1/10000;
#X obj 88 142 delwrite-thru~ \$0-flanger-delay 61;
#X obj 88 245 delwrite-thru~ \$0-flanger-delay2 121;
#X obj 500 492 genctl b-del\$1;
#X obj 104 440 amp-linlin~ b-mix;
#X obj 415 17 r b-del\$1;
#X obj 381 295 r b-fback;
#X connect 0 0 3 0;
#X connect 0 0 18 1;
#X connect 0 0 23 0;
#X connect 2 0 3 1;
#X connect 3 0 1 0;
#X connect 4 0 5 2;
#X connect 4 0 8 0;
#X connect 4 0 16 0;
#X connect 4 0 19 0;
#X connect 5 0 24 0;
#X connect 6 0 15 0;
#X connect 7 0 6 1;
#X connect 8 0 6 2;
#X connect 8 0 17 0;
#X connect 9 0 7 0;
#X connect 9 0 5 1;
#X connect 10 0 22 0;
#X connect 10 1 9 1;
#X connect 11 0 4 0;
#X connect 12 0 14 0;
#X connect 14 0 15 1;
#X connect 15 0 18 0;
#X connect 18 0 2 0;
#X connect 19 0 12 0;
#X connect 19 0 13 0;
#X connect 20 0 10 0;
#X connect 20 1 21 0;
#X connect 21 0 9 1;
#X connect 22 0 9 0;
#X connect 23 0 5 0;
#X connect 24 0 6 0;
#X connect 26 0 2 1;
#X connect 27 0 20 0;
#X connect 28 0 11 0;
#X restore 189 392 pd flanger;
#X obj 311 389 genctl b-mix;
#X obj 415 387 mutectl b-mix;
#X obj 314 414 genctl b-fback;
#X obj 249 248 r~ from-jack\$1;
#X obj 248 270 *~;
#X obj 278 270 amp-quarticlin~ jack-to-bells;
#X obj 128 468 splat-sum b \$1;
#X obj 392 516 outlet~;
#X obj 343 434 inlet~;
#X obj 240 318 *~;
#X obj 241 296 r~ from-samp1\$1;
#X obj 270 318 amp-quarticlin~ samp1-to-bells;
#X obj 237 366 *~;
#X obj 238 344 r~ from-samp2\$1;
#X obj 267 366 amp-quarticlin~ samp2-to-bells;
#X connect 0 0 9 0;
#X connect 0 1 9 1;
#X connect 3 0 6 0;
#X connect 4 0 5 0;
#X connect 7 0 0 0;
#X connect 9 0 10 0;
#X connect 9 1 10 1;
#X connect 10 0 11 0;
#X connect 10 1 11 1;
#X connect 11 0 12 0;
#X connect 11 1 12 1;
#X connect 12 0 13 0;
#X connect 12 1 13 1;
#X connect 13 0 14 0;
#X connect 13 1 14 1;
#X connect 14 0 15 0;
#X connect 14 1 15 1;
#X connect 15 0 16 0;
#X connect 15 1 16 1;
#X connect 16 0 17 0;
#X connect 16 1 17 1;
#X connect 17 0 18 0;
#X connect 17 1 18 1;
#X connect 18 0 19 0;
#X connect 18 1 19 1;
#X connect 19 0 20 0;
#X connect 19 1 20 1;
#X connect 20 0 21 0;
#X connect 20 1 21 1;
#X connect 21 0 22 0;
#X connect 21 1 22 1;
#X connect 22 0 23 0;
#X connect 22 1 23 1;
#X connect 23 1 36 0;
#X connect 25 0 43 0;
#X connect 27 0 43 1;
#X connect 29 0 43 2;
#X connect 30 0 43 3;
#X connect 34 0 43 4;
#X connect 35 0 43 5;
#X connect 36 0 43 7;
#X connect 40 0 41 0;
#X connect 41 0 36 0;
#X connect 42 0 41 1;
#X connect 43 0 24 0;
#X connect 43 1 26 0;
#X connect 43 2 28 0;
#X connect 43 3 31 0;
#X connect 43 4 32 0;
#X connect 43 5 33 0;
#X connect 43 6 44 0;
#X connect 45 0 43 6;
#X connect 46 0 36 0;
#X connect 47 0 46 0;
#X connect 48 0 46 1;
#X connect 49 0 36 0;
#X connect 50 0 49 0;
#X connect 51 0 49 1;
