#N canvas 534 28 471 578 10;
#X obj 56 360 rpole~;
#X obj 55 426 cpole~;
#X obj 159 516 cpole~;
#X obj 55 398 *~;
#X msg 394 399 clear;
#X obj 151 87 loadbang;
#X obj 56 336 *~;
#X obj 195 134 samplerate~;
#X obj 195 155 / 2;
#X obj 151 177 / 22050;
#X obj 151 135 f \$1;
#X obj 151 155 t f b;
#X obj 159 108 inlet;
#X obj 14 215 inlet~;
#X obj 394 170 inlet;
#X obj 159 541 outlet~;
#X text 14 194 audio;
#X text 396 147 clear;
#X text 157 67 hp freq;
#X obj 150 247 line~;
#X obj 223 246 line~;
#X obj 272 247 line~;
#X obj 302 195 inlet;
#X obj 84 398 *~;
#X obj 86 460 *~;
#X obj 112 460 *~;
#X obj 86 482 -~;
#X obj 139 461 *~;
#X obj 165 461 *~;
#X obj 139 482 +~;
#X obj 14 237 *~ 0.125;
#X obj 122 247 -~;
#X obj 195 246 -~;
#X obj 283 277 *~ -1;
#X obj 91 202 sig~ -1;
#X obj 14 259 rzero~ 1;
#X obj 14 281 rzero~ 1;
#X obj 14 303 rzero~ 1;
#X text 47 23 3-pole \, 3-zero butterworth high-pass filter with line~
objects to try to de-click transitions;
#X obj 151 199 buttercoef3a;
#X connect 0 0 3 0;
#X connect 0 0 23 0;
#X connect 1 0 24 0;
#X connect 1 0 27 0;
#X connect 1 1 25 0;
#X connect 1 1 28 0;
#X connect 2 0 15 0;
#X connect 3 0 1 0;
#X connect 4 0 0 0;
#X connect 4 0 1 0;
#X connect 4 0 2 0;
#X connect 4 0 35 0;
#X connect 4 0 36 0;
#X connect 4 0 37 0;
#X connect 5 0 10 0;
#X connect 6 0 0 0;
#X connect 7 0 8 0;
#X connect 8 0 9 1;
#X connect 9 0 39 0;
#X connect 10 0 11 0;
#X connect 11 0 9 0;
#X connect 11 1 7 0;
#X connect 12 0 10 0;
#X connect 13 0 30 0;
#X connect 14 0 4 0;
#X connect 19 0 0 1;
#X connect 19 0 31 1;
#X connect 20 0 1 2;
#X connect 20 0 2 2;
#X connect 20 0 32 1;
#X connect 21 0 1 3;
#X connect 21 0 33 0;
#X connect 21 0 25 1;
#X connect 21 0 27 1;
#X connect 22 0 19 1;
#X connect 22 0 20 1;
#X connect 22 0 21 1;
#X connect 23 0 1 1;
#X connect 24 0 26 0;
#X connect 25 0 26 1;
#X connect 26 0 2 0;
#X connect 27 0 29 0;
#X connect 28 0 29 1;
#X connect 29 0 2 1;
#X connect 30 0 35 0;
#X connect 31 0 6 1;
#X connect 32 0 3 1;
#X connect 32 0 24 1;
#X connect 32 0 28 1;
#X connect 33 0 2 3;
#X connect 33 0 23 1;
#X connect 34 0 31 0;
#X connect 34 0 32 0;
#X connect 35 0 36 0;
#X connect 36 0 37 0;
#X connect 37 0 6 0;
#X connect 39 0 19 0;
#X connect 39 1 20 0;
#X connect 39 2 21 0;
