#N canvas 638 159 576 685 10;
#X obj 56 360 rpole~;
#X obj 55 426 cpole~;
#X obj 159 516 cpole~;
#X obj 55 398 *~;
#X msg 484 394 clear;
#X obj 138 126 loadbang;
#X obj 56 336 *~;
#X obj 182 173 samplerate~;
#X obj 182 194 / 2;
#X obj 138 216 / 22050;
#X obj 138 174 f \$1;
#X obj 138 194 t f b;
#X obj 146 147 inlet;
#X obj 61 119 inlet~;
#X obj 484 165 inlet;
#X obj 201 636 outlet~;
#X text 61 98 audio;
#X text 486 142 clear;
#X text 144 106 hp freq;
#X obj 177 282 line~;
#X obj 218 282 line~;
#X obj 259 282 line~;
#X obj 289 234 inlet;
#X obj 84 398 *~;
#X obj 86 460 *~;
#X obj 112 460 *~;
#X obj 86 482 -~;
#X obj 139 461 *~;
#X obj 165 461 *~;
#X obj 139 482 +~;
#X obj 201 566 rzero~ -1;
#X obj 201 588 rzero~ -1;
#X obj 201 610 rzero~ -1;
#X obj 201 544 *~ 0.125;
#X text 84 23 3-pole \, 3-zero butterworth low-pass filter with line~
objects to try to de-click transitions;
#X obj 138 238 buttercoef3a;
#X obj 78 241 sig~ 1;
#X obj 78 277 -~;
#X obj 143 284 -~;
#X obj 270 312 *~ -1;
#X connect 0 0 3 0;
#X connect 0 0 23 0;
#X connect 1 0 24 0;
#X connect 1 0 27 0;
#X connect 1 1 25 0;
#X connect 1 1 28 0;
#X connect 2 0 33 0;
#X connect 3 0 1 0;
#X connect 4 0 0 0;
#X connect 4 0 1 0;
#X connect 4 0 2 0;
#X connect 4 0 30 0;
#X connect 4 0 31 0;
#X connect 4 0 32 0;
#X connect 5 0 10 0;
#X connect 6 0 0 0;
#X connect 7 0 8 0;
#X connect 8 0 9 1;
#X connect 9 0 35 0;
#X connect 10 0 11 0;
#X connect 11 0 9 0;
#X connect 11 1 7 0;
#X connect 12 0 10 0;
#X connect 13 0 6 0;
#X connect 14 0 4 0;
#X connect 19 0 0 1;
#X connect 20 0 1 2;
#X connect 20 0 2 2;
#X connect 21 0 1 3;
#X connect 21 0 39 0;
#X connect 21 0 25 1;
#X connect 21 0 27 1;
#X connect 22 0 19 1;
#X connect 22 0 20 1;
#X connect 22 0 21 1;
#X connect 23 0 1 1;
#X connect 24 0 26 0;
#X connect 25 0 26 1;
#X connect 26 0 2 0;
#X connect 27 0 29 0;
#X connect 28 0 29 1;
#X connect 29 0 2 1;
#X connect 30 0 31 0;
#X connect 31 0 32 0;
#X connect 32 0 15 0;
#X connect 33 0 30 0;
#X connect 35 0 19 0;
#X connect 35 0 37 1;
#X connect 35 1 20 0;
#X connect 35 1 38 1;
#X connect 35 2 21 0;
#X connect 36 0 37 0;
#X connect 36 0 38 0;
#X connect 37 0 6 1;
#X connect 38 0 3 1;
#X connect 38 0 24 1;
#X connect 38 0 28 1;
#X connect 39 0 2 3;
#X connect 39 0 23 1;
