#N canvas 542 151 589 591 10;
#X obj 47 508 outlet~;
#X obj 86 24 inlet;
#X obj 86 55 unpack 0 0 0;
#X obj 40 197 line~;
#X obj 46 252 tabread4~ chapo-tab;
#X obj 366 271 r chapo-depth;
#X obj 354 186 r chapo-dc;
#X obj 135 281 max 1e-20;
#X obj 199 107 line;
#X obj 367 296 line;
#X obj 369 321 / 100;
#X obj 135 309 expr sqrt(sqrt($f1/100))-$f2;
#X obj 355 209 line;
#X obj 355 234 / 50;
#X obj 135 370 +;
#X obj 135 337 *;
#X obj 136 395 expr $f1*$f1*$f1*$f1;
#X obj 48 314 *~ 0;
#X floatatom 138 421 5 0 0 0 - - -;
#X obj 198 83 r chapo-spect;
#X obj 46 116 expr 10000*$f2/$f1;
#X obj 219 169 f;
#X obj 222 145 r chapo-filt;
#X obj 219 191 * 10;
#X msg 44 169 0 \, 1 50;
#X obj 114 180 line~;
#X obj 116 152 pack;
#X obj 41 222 *~;
#X connect 1 0 2 0;
#X connect 2 1 20 0;
#X connect 2 2 7 0;
#X connect 3 0 27 0;
#X connect 4 0 17 0;
#X connect 5 0 9 0;
#X connect 6 0 12 0;
#X connect 7 0 11 0;
#X connect 8 0 20 1;
#X connect 9 0 10 0;
#X connect 10 0 15 1;
#X connect 11 0 15 0;
#X connect 12 0 13 0;
#X connect 13 0 11 1;
#X connect 13 0 14 1;
#X connect 14 0 16 0;
#X connect 15 0 14 0;
#X connect 16 0 18 0;
#X connect 16 0 17 1;
#X connect 17 0 0 0;
#X connect 19 0 8 0;
#X connect 20 0 26 0;
#X connect 20 0 24 0;
#X connect 21 0 23 0;
#X connect 22 0 21 0;
#X connect 23 0 26 1;
#X connect 24 0 3 0;
#X connect 25 0 27 1;
#X connect 26 0 25 0;
#X connect 27 0 4 0;
