#N canvas 376 125 654 610 10;
#X obj 15 33 inlet~;
#X obj 197 147 vd~ \$0-del;
#X obj 31 422 *~;
#X obj 62 420 amp-linlin~ \$1;
#X obj 198 177 *~;
#X obj 229 177 amp-linlin~ comb-fback;
#X obj 198 204 rpole~;
#X obj 474 180 line~;
#X obj 465 105 unpack;
#X obj 465 80 t l b;
#X obj 434 159 * 0.01;
#X obj 513 105 20;
#X obj 434 137 clip 0 99;
#X obj 260 121 line~;
#X obj 311 55 unpack;
#X obj 311 30 t l b;
#X obj 359 55 20;
#X obj 260 79 mtof;
#X obj 260 101 expr 2000/$f1;
#X obj 311 7 r \$2;
#X obj 465 57 r comb-lopass;
#X obj 12 147 +~;
#X obj 144 147 *~ 0.5;
#N canvas 202 238 450 300 delwrite1 0;
#X obj 62 32 inlet~;
#X obj 60 100 outlet~;
#X obj 82 68 delwrite~ \$0-del2 100;
#X connect 0 0 1 0;
#X connect 0 0 2 0;
#X restore 25 303 pd delwrite1;
#N canvas 202 238 450 300 delwrite2 0;
#X obj 62 32 inlet~;
#X obj 60 100 outlet~;
#X obj 82 68 delwrite~ \$0-del3 100;
#X connect 0 0 1 0;
#X connect 0 0 2 0;
#X restore 24 360 pd delwrite2;
#N canvas 202 238 450 300 delread2 0;
#X obj 64 31 inlet~;
#X obj 66 165 outlet~;
#X obj 147 35 inlet~;
#X obj 64 92 +~;
#X obj 234 36 inlet~;
#X obj 126 102 *~;
#X obj 125 75 vd~ \$0-del3;
#X connect 0 0 3 0;
#X connect 2 0 6 0;
#X connect 3 0 1 0;
#X connect 4 0 5 1;
#X connect 5 0 3 1;
#X connect 6 0 5 0;
#X restore 25 392 pd delread2;
#X obj 148 308 *~ 0.5;
#X obj 345 351 line~;
#X obj 338 263 unpack;
#X obj 338 238 t l b;
#X obj 386 263 20;
#X obj 338 215 r comb-octave;
#X obj 307 295 clip 0 50;
#X obj 307 317 * 0.02;
#X obj 310 462 line~;
#X obj 306 409 * 0.02;
#X obj 306 387 clip 0 50;
#X obj 306 366 - 50;
#N canvas 202 238 450 300 delread1 0;
#X obj 64 31 inlet~;
#X obj 66 165 outlet~;
#X obj 147 35 inlet~;
#X obj 64 92 +~;
#X obj 234 36 inlet~;
#X obj 126 102 *~;
#X obj 125 75 vd~ \$0-del2;
#X connect 0 0 3 0;
#X connect 2 0 6 0;
#X connect 3 0 1 0;
#X connect 4 0 5 1;
#X connect 5 0 3 1;
#X connect 6 0 5 0;
#X restore 27 331 pd delread1;
#X obj 154 375 *~ 0.5;
#X obj 169 461 inlet~;
#X obj 165 485 +~;
#X obj 166 522 outlet~;
#X obj 26 64 outlet~;
#X obj 54 246 vd~ \$0-del;
#X obj 11 208 delwrite~ \$0-del 100;
#X obj 32 269 +~;
#X obj 211 230 *~;
#X obj 203 257 -~;
#X obj 203 279 clip~ -5 5;
#X obj 408 438 *;
#X obj 408 310 r comb-invert;
#X obj 407 413 t b f;
#X obj 408 356 sel 0;
#X obj 407 335 t f b;
#X msg 408 382 1;
#X msg 440 384 -1;
#X obj 478 356 20;
#X connect 0 0 21 0;
#X connect 0 0 43 0;
#X connect 1 0 4 0;
#X connect 2 0 41 0;
#X connect 3 0 2 1;
#X connect 4 0 6 0;
#X connect 5 0 4 1;
#X connect 6 0 47 0;
#X connect 6 0 48 0;
#X connect 7 0 6 1;
#X connect 7 0 47 1;
#X connect 8 0 12 0;
#X connect 8 1 7 1;
#X connect 9 0 8 0;
#X connect 9 1 11 0;
#X connect 10 0 7 0;
#X connect 11 0 7 1;
#X connect 12 0 10 0;
#X connect 13 0 1 0;
#X connect 13 0 22 0;
#X connect 14 0 17 0;
#X connect 14 1 13 1;
#X connect 15 0 14 0;
#X connect 15 1 16 0;
#X connect 16 0 13 1;
#X connect 17 0 18 0;
#X connect 18 0 13 0;
#X connect 19 0 15 0;
#X connect 20 0 9 0;
#X connect 21 0 45 0;
#X connect 21 0 46 0;
#X connect 22 0 26 0;
#X connect 22 0 44 0;
#X connect 23 0 38 0;
#X connect 24 0 25 0;
#X connect 25 0 2 0;
#X connect 26 0 38 1;
#X connect 26 0 39 0;
#X connect 27 0 38 2;
#X connect 28 0 32 0;
#X connect 28 0 37 0;
#X connect 28 1 27 1;
#X connect 28 1 34 1;
#X connect 29 0 28 0;
#X connect 29 1 30 0;
#X connect 30 0 27 1;
#X connect 30 0 34 1;
#X connect 31 0 29 0;
#X connect 32 0 33 0;
#X connect 33 0 27 0;
#X connect 34 0 25 2;
#X connect 35 0 50 0;
#X connect 36 0 35 0;
#X connect 37 0 36 0;
#X connect 38 0 24 0;
#X connect 39 0 25 1;
#X connect 40 0 41 1;
#X connect 41 0 42 0;
#X connect 44 0 46 1;
#X connect 46 0 23 0;
#X connect 47 0 48 1;
#X connect 48 0 49 0;
#X connect 49 0 21 1;
#X connect 50 0 34 0;
#X connect 51 0 54 0;
#X connect 52 0 50 0;
#X connect 52 1 50 1;
#X connect 53 0 55 0;
#X connect 53 1 56 0;
#X connect 54 0 53 0;
#X connect 54 1 57 0;
#X connect 55 0 52 0;
#X connect 56 0 52 0;
#X connect 57 0 34 1;
