#N canvas 0 22 450 300 10;
#X obj 195 62 r \$1;
#X obj 184 96 f;
#X obj 82 126 f;
#X obj 79 64 r resend-ctls;
#X obj 77 86 b;
#X obj 82 154 s \$1;
#X connect 0 0 1 0;
#X connect 1 0 2 1;
#X connect 2 0 5 0;
#X connect 3 0 4 0;
#X connect 4 0 2 0;
