#N canvas 80 386 1050 522 12;
#X obj 396 12 inlet;
#X obj 141 175 r data-beatparams;
#X obj 112 133 r data-beatnow;
#X obj 83 133 +;
#X obj 83 299 *;
#X obj 99 277 r delay-multiplier;
#X obj 120 154 r \$1-beatnow;
#X obj 156 197 r \$1-beatparams;
#X obj 112 229 s \$1-beatnow;
#X obj 144 253 s \$1-beatparams;
#X obj 475 198 getsize t_wiggle vec;
#X obj 127 305 - 1;
#X obj 127 327 max 1;
#X msg 38 420 set \, add \, add2 \$1 \, adddollar 1 \, add2 \$2;
#X msg 38 453 \; p1-cf \$1 241.379;
#X obj 83 329 /;
#X obj 38 372 pack s 0;
#X obj 432 198 moses;
#X obj 402 171 f;
#X obj 432 174 + 1;
#X obj 251 371 del;
#X msg 418 147 0;
#X obj 432 229 element t_wiggle vec;
#X obj 432 251 get t_wigglept y;
#X obj 221 341 t f b;
#X obj 287 348 r reset;
#X msg 287 370 stop;
#X obj 83 207 x-to-time;
#X obj 396 39 data-start t_wiggle;
#X obj 396 62 t b p p;
#X obj 914 181 r data-beatparams;
#X obj 887 129 r data-beatnow;
#X obj 851 152 +;
#X obj 927 208 r \$1-beatparams;
#X obj 884 231 s \$1-beatnow;
#X obj 719 254 *;
#X obj 749 253 r pix-per-beat;
#X obj 694 78 t p p p p;
#X obj 895 151 r \$1-beatnow;
#X obj 914 256 s \$1-beatparams;
#X obj 856 209 x-to-time;
#X obj 732 126 get t_wiggle width x;
#X obj 703 310 to-proportional t_wiggle;
#X obj 720 279 set t_wiggle width;
#X obj 675 337 s wiggle-fixwidthforpointer;
#X obj 41 104 get t_wiggle var width x;
#X connect 0 0 28 0;
#X connect 1 0 27 2;
#X connect 2 0 27 1;
#X connect 3 0 27 0;
#X connect 4 0 15 0;
#X connect 5 0 4 1;
#X connect 6 0 27 1;
#X connect 7 0 27 2;
#X connect 10 0 11 0;
#X connect 10 0 17 1;
#X connect 11 0 12 0;
#X connect 12 0 15 1;
#X connect 13 0 14 0;
#X connect 15 0 16 1;
#X connect 15 0 20 1;
#X connect 16 0 13 0;
#X connect 17 0 22 0;
#X connect 18 0 19 0;
#X connect 19 0 18 1;
#X connect 19 0 17 0;
#X connect 20 0 18 0;
#X connect 21 0 18 1;
#X connect 22 0 23 0;
#X connect 23 0 24 0;
#X connect 24 0 14 0;
#X connect 24 1 20 0;
#X connect 25 0 26 0;
#X connect 26 0 20 0;
#X connect 27 0 4 0;
#X connect 27 1 8 0;
#X connect 27 2 9 0;
#X connect 28 0 29 0;
#X connect 28 1 37 0;
#X connect 29 0 18 0;
#X connect 29 1 21 0;
#X connect 29 1 45 0;
#X connect 29 2 10 0;
#X connect 29 2 22 1;
#X connect 30 0 40 2;
#X connect 31 0 40 1;
#X connect 32 0 40 0;
#X connect 33 0 40 2;
#X connect 35 0 43 0;
#X connect 36 0 35 1;
#X connect 37 0 44 0;
#X connect 37 1 42 0;
#X connect 37 2 41 0;
#X connect 37 3 43 1;
#X connect 38 0 40 1;
#X connect 40 0 35 0;
#X connect 40 1 34 0;
#X connect 40 2 39 0;
#X connect 41 0 32 0;
#X connect 41 1 32 1;
#X connect 45 0 16 0;
#X connect 45 1 3 0;
#X connect 45 2 3 1;
