#N canvas 114 77 497 568 12;
#X obj 99 41 inlet;
#X text 153 39 event number;
#X obj 149 159 until;
#X msg 149 180 next;
#X obj 269 147 r section-patchname;
#X obj 219 147 symbol;
#X msg 219 169 traverse \$1;
#X obj 139 217 pointer t_tmarker;
#X obj 185 321 moses;
#X obj 98 75 t b b b f;
#X obj 98 467 f;
#X obj 110 338 0;
#X obj 221 392 t f b;
#X obj 221 420 max;
#X obj 253 421 f;
#X obj 189 346 b;
#X obj 191 372 f;
#X obj 97 500 outlet;
#X text 151 501 x value;
#X obj 170 247 get t_tmarker label x;
#X obj 288 287 pack;
#X obj 302 321 print foo;
#X obj 152 278 moses 1;
#X obj 219 297 + 1;
#X obj 146 135 1000;
#X connect 0 0 9 0;
#X connect 2 0 3 0;
#X connect 3 0 7 0;
#X connect 4 0 5 1;
#X connect 5 0 6 0;
#X connect 6 0 7 0;
#X connect 7 0 19 0;
#X connect 7 2 2 1;
#X connect 8 0 15 0;
#X connect 9 0 10 0;
#X connect 9 1 24 0;
#X connect 9 2 5 0;
#X connect 9 2 11 0;
#X connect 9 3 23 0;
#X connect 10 0 17 0;
#X connect 11 0 14 0;
#X connect 12 0 13 0;
#X connect 12 1 14 0;
#X connect 13 0 14 0;
#X connect 13 0 10 1;
#X connect 14 0 13 1;
#X connect 15 0 16 0;
#X connect 16 0 12 0;
#X connect 19 0 22 0;
#X connect 19 1 16 1;
#X connect 19 1 20 1;
#X connect 20 0 21 0;
#X connect 22 1 8 0;
#X connect 22 1 20 0;
#X connect 23 0 8 1;
#X connect 24 0 2 0;
