#N canvas 294 101 450 300 10;
#X obj 67 73 until;
#X obj 135 110 f;
#X obj 166 109 + 1;
#X obj 144 79 f \$1;
#X obj 190 80 f \$2;
#X obj 66 43 t b b;
#X obj 66 20 inlet;
#X obj 174 155 >=;
#X obj 174 186 sel 1;
#X obj 154 29 inlet;
#X obj 217 29 inlet;
#X obj 170 217 t b;
#X obj 137 244 f;
#X obj 131 135 t f f;
#X obj 135 269 outlet;
#X obj 287 33 inlet;
#X text 290 14 stop;
#X obj 287 54 b;
#X connect 0 0 1 0;
#X connect 1 0 2 0;
#X connect 1 0 13 0;
#X connect 2 0 1 1;
#X connect 3 0 1 1;
#X connect 4 0 7 1;
#X connect 5 0 0 0;
#X connect 5 1 3 0;
#X connect 5 1 4 0;
#X connect 6 0 5 0;
#X connect 7 0 8 0;
#X connect 8 0 0 1;
#X connect 8 1 11 0;
#X connect 9 0 3 1;
#X connect 10 0 4 1;
#X connect 11 0 12 0;
#X connect 12 0 14 0;
#X connect 13 0 7 0;
#X connect 13 1 12 1;
#X connect 15 0 17 0;
#X connect 17 0 0 1;
