#N canvas 534 33 701 614 12;
#X text 351 164 noise freq;
#X text 600 139 freq;
#X text 601 155 CF;
#X text 602 170 BW;
#X text 599 223 noisef;
#X text 600 185 shift;
#X text 598 261 fm freq;
#X text 598 277 fm depth;
#X obj 16 563 outlet~;
#X text 38 193 amp;
#X text 601 124 amp;
#X text 596 294 fm table;
#X obj 14 405 inlet~;
#X obj 499 347 r \$1-hit;
#X text 572 110 receives:;
#N canvas 0 22 450 300 shift 0;
#X obj 143 137 line~;
#X obj 143 84 unpack;
#X obj 143 162 outlet~;
#X obj 166 57 t l b;
#X obj 195 113 0;
#X obj 166 33 r \$1-s;
#X obj 128 111 * 0.1;
#X connect 0 0 2 0;
#X connect 1 0 6 0;
#X connect 1 1 0 1;
#X connect 3 0 1 0;
#X connect 3 1 4 0;
#X connect 4 0 0 1;
#X connect 5 0 3 0;
#X connect 6 0 0 0;
#X restore 157 313 pd shift;
#N canvas 0 22 450 300 noise 0;
#X obj 207 140 line~;
#X obj 207 165 outlet~;
#X obj 207 45 t l b;
#X obj 237 83 0;
#X obj 67 102 expr $f1*$f1*$f1*0.01;
#X obj 186 68 unpack;
#X obj 207 21 r \$1-nf;
#X connect 0 0 1 0;
#X connect 2 0 5 0;
#X connect 2 1 3 0;
#X connect 3 0 0 1;
#X connect 4 0 0 0;
#X connect 5 0 4 0;
#X connect 5 1 0 1;
#X connect 6 0 2 0;
#X restore 339 203 pd noise;
#X text 348 63 center freq;
#N canvas 0 22 396 408 bw 0;
#X obj 103 286 outlet~;
#X obj 119 45 r \$1-bw;
#X obj 103 219 line~;
#X obj 103 241 *~;
#X obj 103 263 *~;
#X obj 96 94 unpack;
#X obj 119 67 t l b;
#X obj 96 148 mtof;
#X obj 96 169 sqrt;
#X obj 96 190 sqrt;
#X obj 149 195 20;
#X obj 38 148 moses 1;
#X connect 1 0 6 0;
#X connect 2 0 3 0;
#X connect 2 0 3 1;
#X connect 3 0 4 0;
#X connect 3 0 4 1;
#X connect 4 0 0 0;
#X connect 5 0 11 0;
#X connect 5 1 2 1;
#X connect 6 0 5 0;
#X connect 6 1 10 0;
#X connect 7 0 8 0;
#X connect 8 0 9 0;
#X connect 9 0 2 0;
#X connect 10 0 2 1;
#X connect 11 0 2 0;
#X connect 11 1 7 0;
#X restore 268 99 pd bw;
#X text 268 64 bandwidth;
#X text 147 278 freq shift;
#X text 337 183 (quartic \, 10=10hz.);
#X obj 259 191 *~;
#X text 345 79 (MIDI units);
#X text 273 241 location;
#X text 270 258 (sec/100);
#N canvas 1 31 454 304 loc 0;
#X obj 207 140 line~;
#X obj 204 229 outlet~;
#X obj 207 45 t l b;
#X obj 186 68 unpack;
#X obj 99 108 expr $f1*$f2*0.01;
#X obj 363 87 r sample-rate;
#X obj 237 83 30;
#X obj 207 21 r \$1-p;
#X obj 307 43 r \$1-p-bis;
#X obj 293 141 expr $f1*$f2*0.01;
#X obj 306 68 unpack;
#X obj 293 165 line~;
#X obj 207 202 -~;
#X connect 0 0 12 0;
#X connect 2 0 3 0;
#X connect 2 1 6 0;
#X connect 3 0 4 0;
#X connect 3 1 0 1;
#X connect 4 0 0 0;
#X connect 5 0 4 1;
#X connect 5 0 9 1;
#X connect 6 0 0 1;
#X connect 7 0 2 0;
#X connect 8 0 10 0;
#X connect 9 0 11 0;
#X connect 10 0 9 0;
#X connect 10 1 11 1;
#X connect 11 0 12 1;
#X connect 12 0 1 0;
#X restore 273 280 pd loc;
#X text 353 229 balance;
#X text 352 246 (0-100);
#N canvas 0 22 450 300 balance 0;
#X obj 207 140 line~;
#X obj 207 165 outlet~;
#X obj 207 45 t l b;
#X obj 237 83 0;
#X obj 186 68 unpack;
#X obj 179 106 * 0.01;
#X obj 207 21 r \$1-n;
#X connect 0 0 1 0;
#X connect 2 0 4 0;
#X connect 2 1 3 0;
#X connect 3 0 0 1;
#X connect 4 0 5 0;
#X connect 4 1 0 1;
#X connect 5 0 0 0;
#X connect 6 0 2 0;
#X restore 354 264 pd balance;
#N canvas 750 79 450 300 cf 0;
#X obj 103 186 line~;
#X obj 103 208 *~;
#X obj 103 230 *~;
#X obj 96 94 unpack;
#X obj 103 255 outlet~;
#X obj 119 67 t l b;
#X obj 96 115 mtof;
#X obj 96 136 sqrt;
#X obj 96 157 sqrt;
#X obj 119 43 r \$1-cf;
#X obj 149 162 20;
#X connect 0 0 1 0;
#X connect 0 0 1 1;
#X connect 1 0 2 0;
#X connect 1 0 2 1;
#X connect 2 0 4 0;
#X connect 3 0 6 0;
#X connect 3 1 0 1;
#X connect 5 0 3 0;
#X connect 5 1 10 0;
#X connect 6 0 7 0;
#X connect 7 0 8 0;
#X connect 8 0 0 0;
#X connect 9 0 5 0;
#X connect 10 0 0 1;
#X restore 352 100 pd cf;
#X text 482 2 table;
#X obj 471 22 r \$1-t;
#X text 148 293 (tenths);
#X obj 231 192 *~;
#X text 265 79 (MIDI units);
#X obj 479 46 tabread bash-window-sizes;
#X text 504 327 hit;
#X text 598 310 hit;
#N canvas 682 220 362 283 cfcorrect 0;
#X obj 119 43 r \$1-t;
#X obj 119 67 sel 0;
#X obj 104 242 outlet;
#X obj 101 94 1;
#X floatatom 104 218 7 0 0 0 - - -;
#X obj 149 94 tabread bash-window-sizes;
#X obj 149 125 t b f;
#X obj 149 149 samplerate~;
#X obj 149 176 /;
#X obj 149 199 / 261.62;
#X floatatom 251 185 5 0 0 0 - - -;
#X connect 0 0 1 0;
#X connect 1 0 3 0;
#X connect 1 1 5 0;
#X connect 3 0 4 0;
#X connect 4 0 2 0;
#X connect 5 0 6 0;
#X connect 6 0 7 0;
#X connect 6 1 8 1;
#X connect 7 0 8 0;
#X connect 8 0 9 0;
#X connect 9 0 4 0;
#X restore 387 126 pd cfcorrect;
#X obj 352 126 *~ 1;
#X floatatom 393 151 5 0 0 0 - - -;
#X text 374 319 (MIDI);
#X text 598 238 noisec;
#X text 603 204 noise;
#N canvas 750 79 368 285 nc 0;
#X obj 95 48 r \$1-nc;
#X obj 95 126 max 0;
#X obj 95 149 mtof;
#X obj 95 70 t l b;
#X obj 95 102 unpack;
#X obj 115 191 outlet;
#X obj 115 169 pack;
#X obj 138 69 20;
#X obj 182 125 max 0;
#X obj 182 148 mtof;
#X obj 182 69 t l b;
#X obj 182 101 unpack;
#X obj 202 190 outlet;
#X obj 202 168 pack;
#X obj 225 68 20;
#X obj 182 47 r \$1-pc;
#X connect 0 0 3 0;
#X connect 1 0 2 0;
#X connect 2 0 6 0;
#X connect 3 0 4 0;
#X connect 3 1 7 0;
#X connect 4 0 1 0;
#X connect 4 1 6 1;
#X connect 6 0 5 0;
#X connect 7 0 6 1;
#X connect 8 0 9 0;
#X connect 9 0 13 0;
#X connect 10 0 11 0;
#X connect 10 1 14 0;
#X connect 11 0 8 0;
#X connect 11 1 13 1;
#X connect 13 0 12 0;
#X connect 14 0 13 1;
#X connect 15 0 10 0;
#X restore 380 338 pd nc;
#X text 375 285 noise and;
#X text 375 302 pitch cutoff;
#X obj 98 369 fred~ ------------------------------------------------------
;
#N canvas 88 104 729 548 frequency 0;
#X obj 149 268 line~;
#X obj 146 151 unpack;
#X obj 146 500 outlet~;
#X obj 169 124 t l b;
#X text 24 40 If no time value is given \, 0 is used.;
#X obj 192 151 0;
#X obj 297 476 outlet~;
#X msg 268 132 set \$1;
#X obj 268 108 makefilename tab-pitch%d;
#X obj 374 192 r \$1-p;
#X obj 606 114 inlet;
#X obj 606 201 samplerate~;
#X obj 603 174 t b f;
#X obj 608 226 /;
#X obj 608 148 * 100;
#X obj 146 450 tabread4~ mtof-curve;
#X obj 296 449 tabread4~ imtof-curve;
#X obj 150 311 +~;
#X obj 378 281 line~;
#X obj 376 231 unpack;
#X obj 364 327 tabread4~ tab-pitch1;
#X obj 377 259 *;
#X obj 364 348 -~ 60;
#X obj 363 371 *~;
#X obj 399 389 t f;
#X obj 400 410 / 100;
#X obj 151 334 +~ 50;
#X floatatom 604 281 5 0 0 0 - - -;
#X obj 169 100 r \$1-f;
#X obj 267 86 r \$1-t;
#X obj 399 369 r \$1-f0;
#N canvas 206 35 655 539 FM 0;
#X obj 520 265 line~;
#X obj 520 212 unpack;
#X obj 172 470 outlet~;
#X obj 543 185 t l b;
#X obj 566 241 0;
#X obj 174 237 inlet~;
#X obj 543 161 r \$1-fd;
#X text 543 130 FM depth;
#X text 291 22 fm freq;
#X obj 303 396 *~;
#X obj 303 417 +~ 1;
#X msg 31 345 set \$1;
#X obj 31 323 makefilename fmtab%d;
#X obj 199 372 tabosc4~ fmtab0;
#X text 28 284 FM table;
#X obj 290 60 r \$1-ff;
#X obj 31 300 r \$1-ft;
#X text 289 39 (1/2-tones);
#X obj 225 136 mtof;
#X obj 225 159 / 8.1758;
#X obj 274 193 line~;
#X obj 267 114 unpack;
#X obj 290 87 t l b;
#X obj 320 169 0;
#X obj 198 350 *~;
#X text 520 145 (quartic \, 50=f);
#X obj 318 238 expr $f1*$f1*$f1*$f1*.0004*.0004;
#X obj 173 446 *~;
#X connect 0 0 9 1;
#X connect 1 0 26 0;
#X connect 1 1 0 1;
#X connect 3 0 1 0;
#X connect 3 1 4 0;
#X connect 4 0 0 1;
#X connect 5 0 24 0;
#X connect 5 0 27 0;
#X connect 6 0 3 0;
#X connect 9 0 10 0;
#X connect 10 0 27 1;
#X connect 11 0 13 0;
#X connect 12 0 11 0;
#X connect 13 0 9 0;
#X connect 15 0 22 0;
#X connect 16 0 12 0;
#X connect 18 0 19 0;
#X connect 19 0 20 0;
#X connect 20 0 24 1;
#X connect 21 0 18 0;
#X connect 21 1 20 1;
#X connect 22 0 21 0;
#X connect 22 1 23 0;
#X connect 23 0 20 1;
#X connect 24 0 13 0;
#X connect 26 0 0 0;
#X connect 27 0 2 0;
#X restore 147 475 pd FM;
#N canvas 485 280 655 543 vibrato 0;
#X obj 99 59 inlet~;
#X obj 110 451 outlet~;
#X obj 247 64 r \$1-vf;
#X obj 351 27 r \$1-rf;
#X obj 251 247 * 0.1;
#X obj 251 273 phasor~;
#X obj 342 144 *;
#X obj 342 121 t f b;
#X obj 342 96 f;
#X obj 342 165 + 1;
#X obj 251 222 *;
#X obj 262 195 t b f;
#X obj 498 98 r \$1-attack;
#X obj 473 150 b;
#X obj 372 143 random 200;
#X obj 372 165 - 100;
#X obj 220 313 *~;
#X obj 231 337 *~;
#X obj 219 383 -~;
#X obj 514 463 snapshot~;
#X obj 486 196 f;
#X obj 486 223 == 0;
#X obj 496 123 t b b;
#X obj 520 196 1;
#X obj 486 245 * 2;
#X obj 486 268 - 1;
#X obj 515 382 *;
#X obj 516 335 random 200;
#X obj 516 357 - 100;
#X obj 247 86 line 0 100;
#X obj 351 50 line 0 100;
#X obj 536 268 line 0 100;
#X obj 549 407 line 0 100;
#X obj 536 246 r \$1-vd;
#X obj 549 384 r \$1-rd;
#X obj 486 291 *;
#X obj 486 382 +;
#X obj 486 312 t f b;
#X obj 372 187 * 0.01;
#X obj 221 418 *~ 0;
#X obj 221 443 +~ 0;
#X obj 107 385 +~;
#X obj 484 432 t f b;
#X obj 487 489 -;
#X obj 486 404 * 0.01;
#X obj 448 46 r reset;
#X msg 446 76 0;
#X obj 275 323 threshold~ 0.5 1 0.2 1;
#X obj 219 362 *~ 12;
#X obj 265 361 *~ 16;
#X obj 429 215 0;
#X obj 351 72 * 0.01;
#X obj 549 428 * 0.01;
#X connect 0 0 41 0;
#X connect 2 0 29 0;
#X connect 3 0 30 0;
#X connect 4 0 5 0;
#X connect 5 0 16 0;
#X connect 5 0 16 1;
#X connect 5 0 17 1;
#X connect 5 0 47 0;
#X connect 6 0 9 0;
#X connect 7 0 6 0;
#X connect 7 1 14 0;
#X connect 8 0 7 0;
#X connect 9 0 11 0;
#X connect 10 0 4 0;
#X connect 11 0 10 0;
#X connect 11 1 10 1;
#X connect 12 0 22 0;
#X connect 13 0 8 0;
#X connect 13 0 20 0;
#X connect 13 0 50 0;
#X connect 14 0 15 0;
#X connect 15 0 38 0;
#X connect 16 0 17 0;
#X connect 16 0 48 0;
#X connect 17 0 49 0;
#X connect 18 0 39 0;
#X connect 19 0 40 1;
#X connect 19 0 43 1;
#X connect 20 0 21 0;
#X connect 21 0 20 1;
#X connect 21 0 24 0;
#X connect 22 0 13 0;
#X connect 22 1 23 0;
#X connect 23 0 20 1;
#X connect 24 0 25 0;
#X connect 25 0 35 0;
#X connect 26 0 36 1;
#X connect 27 0 28 0;
#X connect 28 0 26 0;
#X connect 29 0 10 0;
#X connect 30 0 51 0;
#X connect 31 0 35 1;
#X connect 32 0 52 0;
#X connect 33 0 31 0;
#X connect 34 0 32 0;
#X connect 35 0 37 0;
#X connect 36 0 44 0;
#X connect 37 0 36 0;
#X connect 37 1 27 0;
#X connect 38 0 6 1;
#X connect 39 0 40 0;
#X connect 40 0 19 0;
#X connect 40 0 41 1;
#X connect 41 0 1 0;
#X connect 42 0 43 0;
#X connect 42 1 19 0;
#X connect 43 0 39 1;
#X connect 44 0 42 0;
#X connect 45 0 46 0;
#X connect 46 0 9 0;
#X connect 47 0 13 0;
#X connect 48 0 18 0;
#X connect 49 0 18 1;
#X connect 50 0 5 1;
#X connect 51 0 8 1;
#X connect 52 0 26 1;
#X restore 201 396 pd vibrato;
#X obj 424 231 0;
#X obj 378 305 -~;
#X obj 471 280 line~;
#X obj 469 230 unpack;
#X obj 470 258 *;
#X obj 517 230 0;
#X obj 467 191 r \$1-p-bis;
#X connect 0 0 17 0;
#X connect 1 0 0 0;
#X connect 1 1 0 1;
#X connect 3 0 1 0;
#X connect 3 1 5 0;
#X connect 5 0 0 1;
#X connect 7 0 20 0;
#X connect 8 0 7 0;
#X connect 9 0 19 0;
#X connect 9 0 33 0;
#X connect 10 0 14 0;
#X connect 11 0 13 0;
#X connect 12 0 11 0;
#X connect 12 1 13 1;
#X connect 13 0 21 1;
#X connect 13 0 27 0;
#X connect 13 0 37 1;
#X connect 14 0 12 0;
#X connect 15 0 31 0;
#X connect 16 0 6 0;
#X connect 17 0 26 0;
#X connect 18 0 34 0;
#X connect 19 0 21 0;
#X connect 19 1 18 1;
#X connect 20 0 22 0;
#X connect 21 0 18 0;
#X connect 22 0 23 0;
#X connect 23 0 17 1;
#X connect 24 0 25 0;
#X connect 25 0 23 1;
#X connect 26 0 32 0;
#X connect 28 0 3 0;
#X connect 29 0 8 0;
#X connect 30 0 24 0;
#X connect 31 0 2 0;
#X connect 32 0 15 0;
#X connect 32 0 16 0;
#X connect 33 0 18 1;
#X connect 34 0 20 0;
#X connect 35 0 34 1;
#X connect 36 0 37 0;
#X connect 36 1 35 1;
#X connect 37 0 35 0;
#X connect 38 0 35 1;
#X connect 39 0 36 0;
#X connect 39 0 38 0;
#X restore 135 63 pd frequency;
#X obj 71 563 outlet~;
#X obj 62 405 inlet~;
#X obj 127 564 outlet~;
#X obj 110 406 inlet~;
#N canvas 561 221 642 667 control 0;
#X obj 368 11 r \$1-d;
#X obj 204 180 timer;
#X obj 368 98 t f f;
#X obj 280 92 * 10;
#X obj 384 389 t f f;
#X obj 490 449 s \$1-p;
#X obj 384 434 + 1000;
#X obj 384 482 s \$1-p;
#X obj 384 458 pack 0 10000;
#X obj 490 424 pack 0 0;
#X obj 368 57 unpack;
#X obj 368 34 t l b;
#X obj 421 117 pack;
#X obj 413 33 0;
#X obj 51 177 t b b;
#X obj 52 207 timer;
#X floatatom 52 228 7 0 0 0 - - -;
#X obj 441 216 print \$1-p-bis;
#X obj 114 158 bng 15 250 50 0 empty empty empty 17 7 0 10 -262144
-1 -1;
#X obj 95 25 r start-rt-table;
#X obj 93 85 sel 0 1;
#X obj 143 151 bng 15 250 50 0 empty empty empty 17 7 0 10 -262144
-1 -1;
#X obj 246 379 print timer;
#X obj 252 179 timer;
#X obj 280 139 t b b;
#X obj 176 207 t f f;
#X obj 177 239 min;
#X obj 211 240 max;
#X obj 186 316 f;
#X obj 157 287 moses 5000;
#X obj 280 115 metro 2000;
#X obj 157 316 b;
#X obj 474 493 print position;
#X obj 421 144 s \$1-p-bis;
#X obj 297 232 * 0.1;
#X connect 0 0 11 0;
#X connect 1 0 25 0;
#X connect 2 0 3 0;
#X connect 2 1 12 0;
#X connect 3 0 30 0;
#X connect 4 0 6 0;
#X connect 4 1 9 0;
#X connect 6 0 8 0;
#X connect 8 0 7 0;
#X connect 9 0 5 0;
#X connect 10 0 2 0;
#X connect 10 1 12 1;
#X connect 11 0 10 0;
#X connect 11 1 13 0;
#X connect 12 0 33 0;
#X connect 13 0 12 1;
#X connect 14 0 15 0;
#X connect 14 1 15 1;
#X connect 15 0 16 0;
#X connect 19 0 20 0;
#X connect 20 0 1 0;
#X connect 20 0 14 0;
#X connect 20 0 18 0;
#X connect 20 1 14 0;
#X connect 20 1 21 0;
#X connect 20 1 23 0;
#X connect 23 0 27 1;
#X connect 23 0 26 1;
#X connect 24 0 1 1;
#X connect 24 1 23 1;
#X connect 25 0 26 0;
#X connect 25 1 27 0;
#X connect 26 0 29 0;
#X connect 27 0 28 1;
#X connect 28 0 34 0;
#X connect 29 0 31 0;
#X connect 29 1 34 0;
#X connect 30 0 24 0;
#X connect 31 0 28 0;
#X connect 34 0 4 0;
#X restore 476 438 pd control;
#N canvas 1 31 692 290 receive-p-note 0;
#X obj 30 41 r \$1-note;
#X obj 521 142 s \$1-a;
#X obj 499 166 s \$1-attack;
#X obj 46 125 s \$1-f;
#X obj 66 101 s \$1-f0;
#X obj 85 170 s \$1-cf;
#X obj 107 147 s \$1-bw;
#X obj 126 124 s \$1-s;
#X obj 145 101 s \$1-p;
#X obj 164 171 s \$1-t;
#X obj 186 148 s \$1-ff;
#X obj 205 124 s \$1-fd;
#X obj 225 102 s \$1-ft;
#X obj 248 173 s \$1-n;
#X obj 269 150 s \$1-nf;
#X obj 287 128 s \$1-nc;
#X obj 309 103 s \$1-pc;
#X obj 331 179 s \$1-vd;
#X obj 352 156 s \$1-vf;
#X obj 370 134 s \$1-rd;
#X obj 392 109 s \$1-rf;
#X obj 427 153 s \$1-d;
#X obj 30 150 s \$1-a;
#X obj 557 115 pack 0 0;
#X obj 499 116 t b l b;
#X obj 30 62 route a f f0 cf bw s p t ff fd ft n nf nc pc vd vf rd
rf d attack;
#X obj 456 71 print \$1-unknown;
#X connect 0 0 25 0;
#X connect 23 0 1 0;
#X connect 24 0 2 0;
#X connect 24 1 1 0;
#X connect 24 2 23 0;
#X connect 25 0 22 0;
#X connect 25 1 3 0;
#X connect 25 2 4 0;
#X connect 25 3 5 0;
#X connect 25 4 6 0;
#X connect 25 5 7 0;
#X connect 25 6 8 0;
#X connect 25 7 9 0;
#X connect 25 8 10 0;
#X connect 25 9 11 0;
#X connect 25 10 12 0;
#X connect 25 11 13 0;
#X connect 25 12 14 0;
#X connect 25 13 15 0;
#X connect 25 14 16 0;
#X connect 25 15 17 0;
#X connect 25 16 18 0;
#X connect 25 17 19 0;
#X connect 25 18 20 0;
#X connect 25 19 21 0;
#X connect 25 20 24 0;
#X connect 25 21 26 0;
#X restore 475 460 pd receive-p-note;
#X obj 157 406 inlet~;
#X obj 181 564 outlet~;
#X obj 233 566 outlet~;
#X obj 287 566 outlet~;
#X obj 210 404 inlet~;
#X obj 293 404 inlet~;
#X obj 25 211 amp-quarticlin~ \$1-a;
#X obj 34 108 switch~;
#X obj 34 14 r \$1-switch;
#X obj 52 43 loadbang;
#X msg 53 69 1;
#X obj 352 567 outlet~;
#X obj 358 405 inlet~;
#X obj 14 478 splat-sum \$2 \$3;
#X obj 48 237 amp-quarticlin~ f-master;
#X obj 33 274 *~;
#X connect 12 0 69 0;
#X connect 13 0 48 12;
#X connect 15 0 48 2;
#X connect 16 0 48 6;
#X connect 18 0 34 1;
#X connect 22 0 48 4;
#X connect 26 0 48 5;
#X connect 29 0 48 7;
#X connect 30 0 40 0;
#X connect 32 0 36 0;
#X connect 32 0 48 10;
#X connect 34 0 48 3;
#X connect 36 0 48 11;
#X connect 36 0 49 0;
#X connect 39 0 40 1;
#X connect 39 0 41 0;
#X connect 40 0 22 1;
#X connect 45 0 48 8;
#X connect 45 1 48 9;
#X connect 48 0 69 7;
#X connect 49 0 48 1;
#X connect 49 1 34 0;
#X connect 49 1 22 0;
#X connect 51 0 69 1;
#X connect 53 0 69 2;
#X connect 56 0 69 3;
#X connect 60 0 69 4;
#X connect 61 0 69 5;
#X connect 62 0 71 0;
#X connect 64 0 63 0;
#X connect 65 0 66 0;
#X connect 66 0 63 0;
#X connect 68 0 69 6;
#X connect 69 0 8 0;
#X connect 69 1 50 0;
#X connect 69 2 52 0;
#X connect 69 3 57 0;
#X connect 69 4 58 0;
#X connect 69 5 59 0;
#X connect 69 6 67 0;
#X connect 70 0 71 1;
#X connect 71 0 48 0;
