#N canvas 28 138 989 394 10;
#X obj 413 73 inlet;
#N canvas 70 177 635 713 sequence-vec 1;
#X obj 466 217 f;
#X obj 497 216 + 1;
#X obj 444 242 sel;
#X obj 332 464 *;
#X obj 332 510 del;
#X obj 360 466 r delay-multiplier;
#X obj 344 487 r reset-stop;
#X obj 179 43 inlet;
#X obj 124 538 outlet;
#X obj 57 537 outlet;
#X text 170 26 pointer in;
#X text 25 3 Sequence an array of (x \, w) values.;
#X msg 482 193 0;
#X obj 459 290 t p b p;
#X obj 107 271 *;
#X obj 107 316 del;
#X obj 134 272 r delay-multiplier;
#X obj 118 293 r reset-stop;
#X msg 129 93 0;
#X obj 49 342 pointer;
#X obj 106 393 0;
#X obj 202 539 outlet;
#X obj 97 124 element t_fred vec;
#X obj 459 266 element t_fred vec;
#X obj 465 164 getsize t_fred vec;
#X obj 107 149 get t_fredpoint time;
#X text 48 627 The first vector element comes out after an initial
delay \, but the time value for ramping there is zero \, and there
is no delay for the second element to appear. That second one \, however
\, comes with a ramp value.;
#X obj 179 65 t b p p b;
#X obj 345 176 get t_fred x;
#X obj 107 172 +;
#X obj 333 342 get t_fredpoint time;
#X obj 333 365 +;
#X obj 120 193 r \$0-beatnow;
#X obj 212 194 r \$0-beatparams;
#X obj 121 242 s \$0-beatnow;
#X obj 211 241 s \$0-beatparams;
#X obj 361 390 r \$0-beatnow;
#X obj 453 391 r \$0-beatparams;
#X obj 361 439 s \$0-beatnow;
#X obj 453 440 s \$0-beatparams;
#X obj 488 19 r data-beatparams;
#X obj 381 22 r data-beatnow;
#X obj 366 62 f;
#X obj 456 81 f;
#X obj 363 94 s \$0-beatnow;
#X obj 486 126 s \$0-beatparams;
#X obj 68 367 t b p b b;
#X obj 143 367 pointer;
#X obj 214 375 get t_fred tie;
#X obj 174 442 spigot;
#X obj 143 402 t p p;
#X obj 72 443 spigot;
#X obj 197 414 == 0;
#X obj 228 442 spigot;
#X obj 265 538 outlet;
#X text 50 582 Outlets: 1: vector elements \, 2: time to ramp to new
values \, 3: pointer only for first one of sequence \, 4: pointer if
we're a tie;
#X obj 124 443 spigot;
#X obj 107 220 x-to-time;
#X obj 332 415 x-to-time;
#X obj 487 42 unpack 0 0 0 0 p;
#X obj 485 99 pack 0 0 0 0 p;
#X connect 0 0 1 0;
#X connect 1 0 0 1;
#X connect 1 0 2 0;
#X connect 2 1 23 0;
#X connect 3 0 4 0;
#X connect 3 0 8 0;
#X connect 4 0 0 0;
#X connect 5 0 3 1;
#X connect 6 0 4 0;
#X connect 7 0 27 0;
#X connect 12 0 0 1;
#X connect 13 0 9 0;
#X connect 13 2 30 0;
#X connect 14 0 15 0;
#X connect 15 0 19 0;
#X connect 16 0 14 1;
#X connect 17 0 15 0;
#X connect 18 0 22 0;
#X connect 19 0 46 0;
#X connect 20 0 56 0;
#X connect 22 0 19 1;
#X connect 22 0 25 0;
#X connect 23 0 13 0;
#X connect 24 0 2 1;
#X connect 25 0 29 0;
#X connect 27 0 18 0;
#X connect 27 2 23 1;
#X connect 27 2 24 0;
#X connect 27 2 22 1;
#X connect 27 2 28 0;
#X connect 27 2 47 1;
#X connect 27 3 12 0;
#X connect 27 3 42 0;
#X connect 27 3 43 0;
#X connect 28 0 29 1;
#X connect 28 0 31 1;
#X connect 29 0 57 0;
#X connect 30 0 31 0;
#X connect 31 0 58 0;
#X connect 32 0 57 1;
#X connect 33 0 57 2;
#X connect 36 0 58 1;
#X connect 37 0 58 2;
#X connect 40 0 59 0;
#X connect 41 0 42 1;
#X connect 42 0 44 0;
#X connect 43 0 60 0;
#X connect 46 0 0 0;
#X connect 46 1 51 0;
#X connect 46 2 20 0;
#X connect 46 3 47 0;
#X connect 47 0 50 0;
#X connect 48 0 52 0;
#X connect 48 0 53 1;
#X connect 49 0 21 0;
#X connect 50 0 49 0;
#X connect 50 0 53 0;
#X connect 50 1 48 0;
#X connect 51 0 9 0;
#X connect 52 0 49 1;
#X connect 52 0 51 1;
#X connect 52 0 56 1;
#X connect 53 0 54 0;
#X connect 56 0 8 0;
#X connect 57 0 14 0;
#X connect 57 1 34 0;
#X connect 57 2 35 0;
#X connect 58 0 3 0;
#X connect 58 1 38 0;
#X connect 58 2 39 0;
#X connect 59 0 43 1;
#X connect 59 1 60 1;
#X connect 59 2 60 2;
#X connect 59 3 60 3;
#X connect 59 4 60 4;
#X connect 60 0 45 0;
#X restore 413 117 pd sequence-vec;
#X obj 580 360 s \$1-f;
#X obj 59 336 pack;
#X obj 59 360 s \$1-a;
#X obj 106 336 pack;
#X obj 106 360 s \$1-cf;
#X obj 161 336 pack;
#X obj 161 360 s \$1-bw;
#X obj 263 336 pack;
#X obj 216 336 pack;
#X obj 216 360 s \$1-s;
#X obj 263 360 s \$1-n;
#X obj 418 336 pack;
#X obj 473 336 pack;
#X obj 418 360 s \$1-ff;
#X obj 473 360 s \$1-fd;
#X text 410 49 args: 1 which voice;
#X obj 576 256 get t_fred y t ft;
#X obj 685 361 s \$1-ft;
#X obj 631 361 s \$1-t;
#X obj 310 336 pack;
#X obj 310 360 s \$1-nf;
#X obj 529 335 pack;
#X obj 529 359 s \$1-p;
#X obj 606 304 v clef-y;
#X obj 576 306 -;
#X obj 576 330 + 60;
#X obj 576 280 t f b;
#X obj 576 231 t p b;
#X obj 619 231 s \$1-hit;
#X obj 61 148 get t_fredpoint a cf bw s n nf nc ff fd p;
#X obj 363 336 pack;
#X obj 363 360 s \$1-nc;
#X text 574 199 init settings;
#X obj 811 130 v clef-y;
#X obj 781 132 -;
#X obj 781 156 + 60;
#X obj 781 106 t f b;
#X obj 781 82 get t_fred y;
#X obj 777 223 spigot;
#X obj 814 177 b;
#X obj 814 198 1;
#X obj 736 266 f;
#X obj 845 177 b;
#X obj 845 198 0;
#X obj 746 290 pack;
#X obj 778 252 t b f;
#X text 776 46 do pitch as a gliss;
#X text 776 61 if tied;
#X text 576 213 if not tied;
#X floatatom 747 343 5 0 0 0 - - -;
#X obj 413 93 data-start t_fred;
#X connect 0 0 52 0;
#X connect 1 0 31 0;
#X connect 1 1 3 1;
#X connect 1 1 5 1;
#X connect 1 1 7 1;
#X connect 1 1 10 1;
#X connect 1 1 9 1;
#X connect 1 1 13 1;
#X connect 1 1 14 1;
#X connect 1 1 23 1;
#X connect 1 1 21 1;
#X connect 1 1 32 1;
#X connect 1 1 40 0;
#X connect 1 2 29 0;
#X connect 1 3 39 0;
#X connect 3 0 4 0;
#X connect 5 0 6 0;
#X connect 7 0 8 0;
#X connect 9 0 12 0;
#X connect 10 0 11 0;
#X connect 13 0 15 0;
#X connect 14 0 16 0;
#X connect 18 0 28 0;
#X connect 18 1 20 0;
#X connect 18 2 19 0;
#X connect 18 2 51 0;
#X connect 21 0 22 0;
#X connect 23 0 24 0;
#X connect 25 0 26 1;
#X connect 26 0 27 0;
#X connect 27 0 2 0;
#X connect 28 0 26 0;
#X connect 28 1 25 0;
#X connect 29 0 18 0;
#X connect 29 1 30 0;
#X connect 31 0 3 0;
#X connect 31 1 5 0;
#X connect 31 2 7 0;
#X connect 31 3 10 0;
#X connect 31 4 9 0;
#X connect 31 5 21 0;
#X connect 31 6 32 0;
#X connect 31 7 13 0;
#X connect 31 8 14 0;
#X connect 31 9 23 0;
#X connect 32 0 33 0;
#X connect 35 0 36 1;
#X connect 36 0 37 0;
#X connect 37 0 41 0;
#X connect 37 0 43 1;
#X connect 38 0 36 0;
#X connect 38 1 35 0;
#X connect 39 0 38 0;
#X connect 40 0 44 0;
#X connect 40 0 47 0;
#X connect 41 0 42 0;
#X connect 42 0 40 1;
#X connect 43 0 46 0;
#X connect 44 0 45 0;
#X connect 45 0 40 1;
#X connect 46 0 2 0;
#X connect 47 0 43 0;
#X connect 47 1 46 1;
#X connect 52 0 1 0;
