#N canvas 182 15 458 492 10;
#X obj 176 246 makenote;
#X obj 176 391 outlet;
#X obj 63 173 i;
#X obj 179 58 inlet;
#X obj 112 164 + 1;
#X obj 112 187 % 100;
#X obj 122 135 t b f;
#X obj 64 202 + 1;
#X obj 140 335 f;
#X obj 118 306 t b;
#X obj 176 367 pack 0 0 0 0 0 0 0;
#X text 25 416 out: voicenum \, vel \, pitch \, onset \, rise \, decay
\, sample-number;
#X obj 179 82 unpack 0 0 0 0 0 0 0;
#X obj 122 109 * 100;
#X obj 206 108 * 10;
#X obj 239 108 * 10;
#X text 72 6 packed notes -- pitch(MIDI) \, vel \, dur(sec/100) \,
onset(sec/100) \, rise(msec) \, decay(msec) \, sampno;
#X text 25 445 note unit changes: pitch to cents \, and all times to
msec \, to feed the old (pluton) sample voice;
#X obj 176 271 poly 16 1;
#X connect 0 0 18 0;
#X connect 0 1 18 1;
#X connect 2 0 4 0;
#X connect 2 0 7 0;
#X connect 3 0 12 0;
#X connect 4 0 5 0;
#X connect 5 0 2 1;
#X connect 6 0 2 0;
#X connect 6 1 8 1;
#X connect 7 0 0 0;
#X connect 8 0 10 2;
#X connect 9 0 8 0;
#X connect 10 0 1 0;
#X connect 12 0 13 0;
#X connect 12 1 0 1;
#X connect 12 2 14 0;
#X connect 12 3 15 0;
#X connect 12 4 10 4;
#X connect 12 5 10 5;
#X connect 12 6 10 6;
#X connect 13 0 6 0;
#X connect 14 0 0 2;
#X connect 15 0 10 3;
#X connect 18 0 9 0;
#X connect 18 0 10 0;
#X connect 18 2 10 1;
