#N canvas 95 99 783 586 10;
#X obj 73 111 phasor~;
#X obj 37 554 outlet~;
#X obj 590 463 /~ 256;
#X obj 433 52 inlet~;
#X obj 206 57 inlet~;
#X obj 276 56 inlet~;
#X obj 98 56 inlet~;
#X obj 152 55 inlet~;
#X obj 26 51 inlet~;
#X obj 759 61 inlet;
#X obj 759 85 t b;
#X obj 73 89 *~;
#X obj 153 109 0;
#X obj 72 339 cos~;
#X obj 106 340 cos~;
#X obj 105 318 -~ 0.25;
#X obj 191 284 +~;
#X obj 104 162 phasor~;
#X obj 103 192 -~ 0.5;
#X obj 159 169 wrap~;
#X obj 159 192 -~ 0.5;
#X obj 104 135 *~ 0.5;
#X obj 363 56 inlet~;
#X obj 362 159 /~;
#X obj 490 51 inlet~;
#X obj 319 468 *~;
#X obj 150 341 hilbert~;
#X obj 101 404 -~;
#X obj 101 382 *~;
#X obj 133 382 *~;
#X obj 33 531 *~;
#X obj 644 60 inlet;
#X text 274 15 center freq;
#X text 205 14 bandwidth;
#X obj 460 464 shaker2~;
#X obj 132 288 print~;
#X obj 132 261 bng 15 250 50 0 empty empty empty 0 -6 0 8 -262144 -1
-1;
#X text 493 28 0-1;
#X text 484 13 balance \,;
#X text 639 38 number;
#X text 639 23 table;
#X text 293 27 over;
#X text 275 39 base freq;
#X text 223 26 over;
#X text 205 39 base freq;
#X text 24 30 amplitude;
#X text 433 20 noise;
#X text 432 33 freq;
#X text 366 32 samples;
#X text 365 16 location \,;
#X text 109 23 freq \,;
#X text 114 38 Hz;
#X obj 192 309 rampdown~;
#X obj 700 62 inlet;
#X text 700 24 block;
#X text 700 39 size;
#X text 760 42 hit;
#X obj 192 244 sync-read 0;
#X obj 549 52 inlet;
#X text 546 34 cutoff;
#X text 546 21 noise;
#X text 154 14 shift;
#X text 156 24 over;
#X text 143 38 base freq;
#X obj 593 53 inlet;
#X text 590 35 cutoff;
#X text 590 22 pitch;
#X obj 494 413 unpack;
#X obj 459 435 butterworth-hp3~;
#X obj 268 404 unpack;
#X obj 233 436 butterworth-lp3~;
#X obj 371 438 *~;
#X obj 399 468 -~;
#X obj 406 493 *~;
#X obj 348 467 -~ 1;
#X obj 405 519 -~;
#X obj 398 439 *~ 2;
#X obj 282 244 sync-read 1;
#X connect 0 0 15 0;
#X connect 0 0 13 0;
#X connect 2 0 34 1;
#X connect 3 0 2 0;
#X connect 4 0 57 1;
#X connect 4 0 77 1;
#X connect 5 0 57 2;
#X connect 5 0 77 2;
#X connect 6 0 11 0;
#X connect 6 0 21 0;
#X connect 7 0 11 1;
#X connect 8 0 30 0;
#X connect 9 0 10 0;
#X connect 10 0 12 0;
#X connect 10 0 52 1;
#X connect 10 0 57 6;
#X connect 10 0 68 3;
#X connect 10 0 70 3;
#X connect 10 0 77 6;
#X connect 11 0 0 0;
#X connect 12 0 0 1;
#X connect 12 0 17 1;
#X connect 13 0 28 0;
#X connect 14 0 29 0;
#X connect 15 0 14 0;
#X connect 16 0 52 0;
#X connect 17 0 18 0;
#X connect 18 0 19 0;
#X connect 18 0 57 0;
#X connect 19 0 20 0;
#X connect 20 0 77 0;
#X connect 21 0 17 0;
#X connect 22 0 23 0;
#X connect 23 0 57 3;
#X connect 23 0 77 3;
#X connect 24 0 71 0;
#X connect 24 0 71 1;
#X connect 24 0 76 0;
#X connect 25 0 75 1;
#X connect 26 0 28 1;
#X connect 26 1 29 1;
#X connect 27 0 68 0;
#X connect 27 0 70 0;
#X connect 28 0 27 0;
#X connect 29 0 27 1;
#X connect 30 0 1 0;
#X connect 31 0 57 4;
#X connect 31 0 77 4;
#X connect 34 0 73 1;
#X connect 36 0 35 0;
#X connect 52 0 26 0;
#X connect 53 0 23 1;
#X connect 53 0 57 5;
#X connect 53 0 77 5;
#X connect 57 0 16 0;
#X connect 57 0 35 0;
#X connect 58 0 67 0;
#X connect 64 0 69 0;
#X connect 67 0 68 1;
#X connect 67 1 68 2;
#X connect 68 0 34 0;
#X connect 69 0 70 1;
#X connect 69 1 70 2;
#X connect 70 0 25 0;
#X connect 71 0 72 1;
#X connect 71 0 74 0;
#X connect 72 0 73 0;
#X connect 73 0 75 0;
#X connect 74 0 25 1;
#X connect 75 0 30 1;
#X connect 76 0 72 0;
#X connect 77 0 16 1;
