#N canvas 16 362 1193 568 10;
#X msg 458 483 set \$1;
#X obj 458 432 line 0 100;
#X obj 458 250 r \$1;
#X obj 458 506 s \$1-set;
#X text 18 6 Control a number box (or other graphical control) by sending
it "set" messages whenever the value changes. If the value change is
ramped \, the control imitates the ramp but only updates 10 times a
second.;
#X text 17 70 Sending a symbol to "\$1-grab" causes the current value
to be sent to that symbol.;
#X obj 466 457 v \$0-last;
#X obj 28 324 r \$1-grab;
#X obj 28 394 pack s 0;
#X msg 28 416 \; \$1 \$2;
#X obj 28 346 t a b;
#X obj 237 363 v \$0-last;
#X msg 237 387 set \$1;
#X obj 160 414 change;
#X obj 60 368 v \$0-last;
#X obj 160 385 v \$0-last;
#X obj 160 486 pack 0 s s;
#X obj 160 439 t f b b;
#X obj 188 463 symbol \$1;
#X msg 160 508 \; \$3 list \$2 \$1;
#X obj 281 315 r grab-all-init;
#X obj 173 339 r grab-all-rest;
#X obj 160 361 b;
#X obj 261 485 symbol;
#X text 12 264 Automata should send not to the parameter name (\$1)
but to \$1-auto.;
#X obj 281 339 t b;
#X obj 261 462 r grab-all-target;
#X obj 160 315 r grab-all-get-\$1;
#X text 15 98 Sending a symbol to grab-all-target sets the destination
for a selective grab. Only values that change since the most recent
"grab-all-init" get reported. Banging grab-all-get-\$1 reports any
change in this particular parameter. Then bang grab-all-next to get
any spillover.;
#X obj 534 182 r auto-register-\$1;
#X obj 665 226 r auto-print;
#X obj 604 58 r auto-param-\$1;
#X text 14 165 Sending (value \, symbol) to auto-register-\$1 informs
us that we're under external control by an automat. If a conflicting
one comes in we complain. The automat should send parameter changes
to "auto-param-\$1" instead of just "\$1". Messages to "\$1" issue
a warning that soneone is trying to write to a parameter under automatic
control. Sending to auto-print prints out all parameters under automatic
control.;
#X obj 471 310 spigot;
#X obj 534 255 b;
#X obj 570 307 v \$0-autoon;
#X obj 521 310 tgl 15 0 empty empty empty 17 7 0 10 -262144 -1 -1 0
1;
#X obj 533 276 0;
#X obj 570 279 1;
#X obj 665 266 v \$0-autoon;
#X obj 665 246 b;
#X obj 665 287 sel 1;
#X obj 665 307 t b b;
#X obj 665 372 pack s s;
#X obj 692 350 symbol \$1;
#X obj 665 412 print;
#X obj 665 328 symbol;
#X obj 580 329 v \$0-autoon;
#X obj 580 349 pack 0 s;
#X obj 580 369 route 1;
#X obj 534 204 route 0 1;
#X obj 570 234 symbol;
#X obj 570 257 t b s b s;
#X obj 478 380 print conflict;
#X obj 471 354 t b a;
#X msg 471 332 (message);
#X msg 665 392 \$1 is controlling \$2;
#X obj 463 145 r reset;
#X text 430 41 Args:;
#X text 450 58 \$1 name of parameter;
#X text 450 73 \$2 reset value;
#X obj 471 197 f \$2;
#X obj 471 217 s \$1;
#X obj 463 168 t b b b;
#X obj 798 170 symbol;
#X text 536 142 register a machine controlling;
#X text 538 156 this parameter;
#X obj 1069 178 r reset;
#X obj 1051 316 spigot;
#X obj 856 282 r \$1;
#X obj 888 282 r auto-param-\$1;
#X obj 856 312 spigot;
#X obj 1135 269 tgl 15 0 empty empty empty 17 7 0 10 -262144 -1 -1
0 1;
#X obj 856 355 s;
#X obj 907 348 symbol;
#X symbolatom 907 374 10 0 0 0 - - -;
#X msg 907 324 symbol auto-param-\$1;
#X obj 799 191 t s b;
#X obj 844 189 symbol \$1;
#X obj 799 212 pack s s;
#X obj 1135 245 1;
#X obj 1160 245 0;
#X obj 1052 206 t b b;
#X msg 1053 370 \; auto-register-\$1 0;
#X obj 1052 346 symbol;
#X obj 798 148 r gang-\$1;
#X text 795 126 gang this parameter to another;
#X obj 1052 129 r ungang-\$1;
#X obj 1062 151 r ungang-all;
#X msg 799 238 \; auto-register-\$1 1 ganged-from-\$2;
#X floatatom 574 448 5 0 0 0 - - -;
#X obj 466 279 spigot;
#X obj 516 279 tgl 15 0 empty empty empty 17 7 0 10 -262144 -1 -1 1
1;
#X obj 604 104 1;
#X obj 667 103 0;
#X obj 606 80 t b l b;
#X obj 632 104 s \$1;
#X obj 708 76 loadbang;
#X obj 301 372 r grab-setallchanged;
#X msg 300 397 set 1e+20;
#X connect 0 0 3 0;
#X connect 1 0 0 0;
#X connect 1 0 6 0;
#X connect 2 0 1 0;
#X connect 2 0 91 0;
#X connect 7 0 10 0;
#X connect 8 0 9 0;
#X connect 10 0 8 0;
#X connect 10 1 14 0;
#X connect 11 0 12 0;
#X connect 12 0 13 0;
#X connect 13 0 17 0;
#X connect 14 0 8 1;
#X connect 15 0 13 0;
#X connect 16 0 19 0;
#X connect 17 0 16 0;
#X connect 17 1 18 0;
#X connect 18 0 16 1;
#X connect 20 0 25 0;
#X connect 21 0 22 0;
#X connect 22 0 15 0;
#X connect 23 0 16 2;
#X connect 25 0 11 0;
#X connect 26 0 23 0;
#X connect 27 0 22 0;
#X connect 29 0 50 0;
#X connect 30 0 40 0;
#X connect 31 0 95 0;
#X connect 33 0 55 0;
#X connect 34 0 37 0;
#X connect 36 0 33 1;
#X connect 37 0 36 0;
#X connect 37 0 35 0;
#X connect 38 0 36 0;
#X connect 38 0 35 0;
#X connect 39 0 41 0;
#X connect 40 0 39 0;
#X connect 41 0 42 0;
#X connect 42 0 46 0;
#X connect 42 1 44 0;
#X connect 43 0 56 0;
#X connect 44 0 43 1;
#X connect 46 0 43 0;
#X connect 47 0 48 0;
#X connect 48 0 49 0;
#X connect 49 0 54 0;
#X connect 50 0 34 0;
#X connect 50 1 51 0;
#X connect 51 0 52 0;
#X connect 52 0 38 0;
#X connect 52 1 46 1;
#X connect 52 2 47 0;
#X connect 52 3 48 1;
#X connect 54 0 39 0;
#X connect 54 1 53 0;
#X connect 55 0 54 0;
#X connect 56 0 45 0;
#X connect 57 0 63 0;
#X connect 61 0 62 0;
#X connect 63 0 25 0;
#X connect 63 1 61 0;
#X connect 63 2 34 0;
#X connect 64 0 77 0;
#X connect 67 0 82 0;
#X connect 68 0 84 0;
#X connect 69 0 71 0;
#X connect 70 0 71 0;
#X connect 71 0 73 0;
#X connect 72 0 71 1;
#X connect 72 0 68 1;
#X connect 74 0 73 1;
#X connect 74 0 75 0;
#X connect 76 0 74 0;
#X connect 77 0 79 0;
#X connect 77 0 84 1;
#X connect 77 0 76 0;
#X connect 77 1 78 0;
#X connect 77 1 80 0;
#X connect 78 0 79 1;
#X connect 79 0 89 0;
#X connect 80 0 72 0;
#X connect 81 0 72 0;
#X connect 82 0 81 0;
#X connect 82 1 68 0;
#X connect 84 0 83 0;
#X connect 85 0 64 0;
#X connect 87 0 82 0;
#X connect 88 0 82 0;
#X connect 91 0 33 0;
#X connect 92 0 91 1;
#X connect 93 0 92 0;
#X connect 94 0 92 0;
#X connect 95 0 93 0;
#X connect 95 1 96 0;
#X connect 95 2 94 0;
#X connect 97 0 93 0;
#X connect 98 0 99 0;
#X connect 99 0 13 0;
