#N canvas 6 179 763 280 10;
#X obj 7 55 inlet;
#X obj 49 29 r \$1-a;
#X obj 7 133 f;
#X obj 74 56 r \$1-f;
#X obj 142 59 r \$1-cf;
#X obj 192 30 r \$1-bw;
#X obj 428 61 r \$1-n;
#X obj 328 33 r \$1-ff;
#X obj 353 60 r \$1-fd;
#X obj 403 33 r \$1-ft;
#X obj 7 190 outlet;
#X obj 49 81 t f;
#X obj 74 81 t f;
#X obj 142 81 t f;
#X obj 192 81 t f;
#X obj 217 81 t f;
#X obj 428 82 t f;
#X obj 328 81 t f;
#X obj 353 81 t f;
#X obj 403 82 t f;
#X obj 471 82 t f;
#X obj 471 35 r \$1-nf;
#X obj 260 81 t f;
#X obj 285 81 t f;
#X obj 285 58 r \$1-t;
#X obj 217 59 r \$1-s;
#X obj 260 32 r \$1-p;
#X obj 496 82 t f;
#X obj 496 61 r \$1-nc;
#X obj 7 166 pack 0 0 0 0 0 0 0 0 0 0 0 0 0 0 0 0 0 0 0;
#X obj 7 81 b;
#X obj 117 81 t f;
#X obj 117 29 r \$1-f0;
#X obj 546 82 t f;
#X obj 546 35 r \$1-pc;
#X obj 571 82 t f;
#X obj 621 82 t f;
#X obj 646 82 t f;
#X obj 696 82 t f;
#X obj 571 61 r \$1-vd;
#X obj 621 35 r \$1-vf;
#X obj 646 61 r \$1-rd;
#X obj 696 35 r \$1-rf;
#X connect 0 0 30 0;
#X connect 1 0 11 0;
#X connect 2 0 29 0;
#X connect 3 0 12 0;
#X connect 4 0 13 0;
#X connect 5 0 14 0;
#X connect 6 0 16 0;
#X connect 7 0 17 0;
#X connect 8 0 18 0;
#X connect 9 0 19 0;
#X connect 11 0 2 1;
#X connect 12 0 29 1;
#X connect 13 0 29 3;
#X connect 14 0 29 4;
#X connect 15 0 29 5;
#X connect 16 0 29 11;
#X connect 17 0 29 8;
#X connect 18 0 29 9;
#X connect 19 0 29 10;
#X connect 20 0 29 12;
#X connect 21 0 20 0;
#X connect 22 0 29 6;
#X connect 23 0 29 7;
#X connect 24 0 23 0;
#X connect 25 0 15 0;
#X connect 26 0 22 0;
#X connect 27 0 29 13;
#X connect 28 0 27 0;
#X connect 29 0 10 0;
#X connect 30 0 2 0;
#X connect 31 0 29 2;
#X connect 32 0 31 0;
#X connect 33 0 29 14;
#X connect 34 0 33 0;
#X connect 35 0 29 15;
#X connect 36 0 29 16;
#X connect 37 0 29 17;
#X connect 38 0 29 18;
#X connect 39 0 35 0;
#X connect 40 0 36 0;
#X connect 41 0 37 0;
#X connect 42 0 38 0;
