#N canvas 1 31 1197 769 10;
#X obj 307 125 r jack-partial;
#X obj 307 146 pack 0 0 0;
#X msg 308 191 clear;
#X obj 308 169 inlet;
#X obj 301 103 r peaktracker-tutti;
#X obj 189 226 peaktracker 64;
#X msg 105 97 snapshot;
#X obj 269 47 t b b;
#X obj 82 26 r jack-snap\$1;
#X obj 152 323 spigot;
#X msg 269 72 doit;
#X obj 269 24 r jack-gliss\$1;
#X obj 190 298 == 0;
#X obj 310 268 f;
#X obj 310 307 > 0;
#X obj 285 338 spigot;
#X obj 120 73 s jack-snap\$1-start;
#X obj 82 50 t b b b;
#X obj 82 123 s jack-snap\$1-done;
#X msg 128 284 stop;
#X obj 128 544 del;
#X obj 282 638 print xx;
#X obj 166 580 bang;
#X obj 282 611 spigot;
#X obj 205 541 list;
#X obj 204 581 list split 4;
#X obj 338 612 tgl 15 0 empty empty empty 17 7 0 10 -262144 -1 -1 0
1;
#X floatatom 146 468 5 0 0 0 - - -;
#X msg 241 442 1 2 3 4 5 6 7 8 9 10 11 12 13 14;
#X obj 283 475 t b l;
#X obj 27 209 r jack-fade\$1;
#X obj 27 234 r jack-clear;
#X obj 31 261 r reset;
#X obj 304 395 print xx;
#X obj 304 360 spigot;
#X obj 360 361 tgl 15 0 empty empty empty 17 7 0 10 -262144 -1 -1 0
1;
#X obj 610 353 s jack-paf-list;
#X obj 596 279 unpack 0 0 0 0;
#X obj 610 331 pack 0 0 0 0;
#X obj 487 172 s jack-bank-\$1;
#X obj 565 49 r \$0-listout;
#X obj 152 349 s \$0-listout;
#X obj 204 685 s \$0-listout;
#X obj 487 147 spigot;
#X obj 538 147 == 0;
#X obj 622 192 loadbang;
#X obj 622 213 f \$1;
#X obj 622 234 * 4;
#X obj 596 303 +;
#X obj 596 146 spigot;
#X obj 644 147 == 1;
#X obj 681 147 spigot;
#X obj 731 147 == 2;
#X obj 342 335 print error-jack-arpeg;
#X obj 342 310 moses 0;
#X floatatom 725 77 5 0 0 0 - - -;
#X obj 622 256 - 3;
#X obj 681 170 s jack-formant-list;
#X obj 756 270 r jack-limit-voice;
#X obj 726 202 r jack-fade\$1;
#X obj 726 228 spigot;
#X obj 727 270 f;
#X obj 727 249 b;
#X obj 727 295 - 1;
#X obj 727 316 scanner;
#X obj 727 356 s jack-paf-fadeout;
#X obj 310 246 r jack-arpeg;
#X obj 658 49 r jack-snapfn;
#X obj 779 146 spigot;
#X obj 829 146 == 3;
#X obj 537 466 r jack-samp-transpo;
#X obj 537 490 f;
#X obj 714 465 f;
#X obj 714 441 r jack-samp-amp;
#X obj 681 465 *;
#X obj 681 488 / 50;
#X obj 505 679 s samp-note-1;
#X obj 504 490 +;
#X obj 546 516 r jack-samp-dur;
#X obj 546 538 f;
#X obj 666 539 f;
#X obj 666 517 r jack-samp-onset;
#X obj 665 582 f;
#X obj 664 625 f;
#X obj 661 671 f;
#X obj 661 649 r jack-samp-no;
#X obj 664 603 r jack-samp-dec;
#X obj 665 560 r jack-samp-rise;
#X obj 505 654 pack 0 0 0 0 0 0 0;
#X obj 518 428 unpack 0 0 0 0;
#X obj 669 440 * 100;
#X obj 685 381 sqrt;
#X obj 685 404 sqrt;
#X obj 509 457 ftom;
#X obj 378 671 print dosnap-note;
#X obj 871 145 spigot;
#X obj 921 145 == 4;
#X obj 929 305 r jack-samp-transpo;
#X obj 929 329 f;
#X obj 1106 304 f;
#X obj 1106 280 r jack-samp-amp;
#X obj 1073 304 *;
#X obj 1073 327 / 50;
#X obj 896 329 +;
#X obj 931 355 r jack-samp-dur;
#X obj 933 377 f;
#X obj 910 267 unpack 0 0 0 0;
#X obj 1073 259 * 100;
#X obj 901 296 ftom;
#X obj 959 424 f;
#X obj 958 402 r jack-samp-no;
#X obj 919 401 * 10;
#X obj 1002 462 f;
#X obj 1002 438 r jack-samp-rise;
#X obj 897 493 pack 0 0 0 0 0;
#X msg 896 527 \; e-note \$1 \$2 \$3 \$4 \$5;
#X obj 977 239 +;
#X floatatom 982 218 5 0 0 0 - - -;
#X connect 0 0 1 0;
#X connect 1 0 5 0;
#X connect 2 0 5 0;
#X connect 3 0 2 0;
#X connect 4 0 5 0;
#X connect 5 0 9 0;
#X connect 5 1 15 0;
#X connect 6 0 5 0;
#X connect 7 0 10 0;
#X connect 7 1 19 0;
#X connect 8 0 17 0;
#X connect 9 0 41 0;
#X connect 10 0 5 0;
#X connect 11 0 7 0;
#X connect 12 0 9 1;
#X connect 13 0 12 0;
#X connect 13 0 14 0;
#X connect 13 0 20 1;
#X connect 13 0 54 0;
#X connect 14 0 15 1;
#X connect 15 0 29 0;
#X connect 15 0 34 0;
#X connect 17 0 18 0;
#X connect 17 1 6 0;
#X connect 17 2 16 0;
#X connect 17 2 19 0;
#X connect 19 0 20 0;
#X connect 20 0 24 0;
#X connect 22 0 20 0;
#X connect 23 0 21 0;
#X connect 24 0 25 0;
#X connect 25 0 22 0;
#X connect 25 0 23 0;
#X connect 25 0 42 0;
#X connect 25 1 24 1;
#X connect 26 0 23 1;
#X connect 27 0 20 1;
#X connect 28 0 29 0;
#X connect 29 0 24 0;
#X connect 29 1 24 1;
#X connect 30 0 19 0;
#X connect 31 0 19 0;
#X connect 32 0 19 0;
#X connect 34 0 33 0;
#X connect 35 0 34 1;
#X connect 37 0 48 0;
#X connect 37 1 38 1;
#X connect 37 2 38 2;
#X connect 37 3 38 3;
#X connect 38 0 36 0;
#X connect 40 0 43 0;
#X connect 40 0 49 0;
#X connect 40 0 51 0;
#X connect 40 0 68 0;
#X connect 40 0 95 0;
#X connect 43 0 39 0;
#X connect 44 0 43 1;
#X connect 45 0 46 0;
#X connect 46 0 47 0;
#X connect 47 0 56 0;
#X connect 48 0 38 0;
#X connect 49 0 37 0;
#X connect 50 0 49 1;
#X connect 50 0 60 1;
#X connect 51 0 57 0;
#X connect 52 0 51 1;
#X connect 54 0 53 0;
#X connect 56 0 48 1;
#X connect 58 0 61 1;
#X connect 59 0 60 0;
#X connect 60 0 62 0;
#X connect 61 0 63 0;
#X connect 62 0 61 0;
#X connect 63 0 64 0;
#X connect 64 0 65 0;
#X connect 66 0 13 0;
#X connect 67 0 44 0;
#X connect 67 0 50 0;
#X connect 67 0 52 0;
#X connect 67 0 55 0;
#X connect 67 0 69 0;
#X connect 67 0 96 0;
#X connect 68 0 89 0;
#X connect 69 0 68 1;
#X connect 70 0 71 0;
#X connect 71 0 77 1;
#X connect 72 0 74 1;
#X connect 73 0 72 0;
#X connect 74 0 75 0;
#X connect 75 0 88 1;
#X connect 77 0 88 0;
#X connect 78 0 79 0;
#X connect 79 0 88 2;
#X connect 80 0 88 3;
#X connect 81 0 80 0;
#X connect 82 0 88 4;
#X connect 83 0 88 5;
#X connect 84 0 88 6;
#X connect 85 0 84 0;
#X connect 86 0 83 0;
#X connect 87 0 82 0;
#X connect 88 0 76 0;
#X connect 89 2 93 0;
#X connect 89 3 91 0;
#X connect 90 0 74 0;
#X connect 91 0 92 0;
#X connect 92 0 90 0;
#X connect 93 0 77 0;
#X connect 95 0 106 0;
#X connect 96 0 95 1;
#X connect 97 0 98 0;
#X connect 98 0 103 1;
#X connect 99 0 101 1;
#X connect 100 0 99 0;
#X connect 101 0 102 0;
#X connect 102 0 114 1;
#X connect 103 0 114 0;
#X connect 104 0 105 0;
#X connect 105 0 111 0;
#X connect 106 2 116 0;
#X connect 106 3 107 0;
#X connect 107 0 101 0;
#X connect 108 0 103 0;
#X connect 109 0 114 3;
#X connect 110 0 109 0;
#X connect 111 0 114 2;
#X connect 112 0 114 4;
#X connect 113 0 112 0;
#X connect 114 0 115 0;
#X connect 116 0 108 0;
#X connect 117 0 116 1;
