#N canvas 143 345 1057 370 10;
#X text 53 8 voice number \, age \, freq \, amp;
#X obj 196 307 s amp\$1;
#X obj 155 169 ftom;
#X obj 198 227 lin-to-quartic;
#X obj 41 174 b;
#X obj 41 195 0;
#X obj 73 252 pack;
#X obj 40 135 route 0 1;
#X obj 98 227 r jack-gliss;
#X obj 198 205 *;
#X obj 216 162 line;
#X obj 216 184 dbtorms;
#X obj 196 284 pack;
#X obj 116 144 unpack 0 0 0;
#X obj 71 174 unpack;
#X obj 71 195 ftom;
#X obj 219 262 r jack-amptc;
#X obj 51 277 t l;
#X obj 41 70 route 0 1 2;
#X obj 265 307 s amp\$2;
#X obj 196 330 s amp\$3;
#X obj 265 330 s amp\$4;
#X obj 51 305 s cf\$1;
#X obj 113 305 s cf\$2;
#X obj 50 329 s cf\$3;
#X obj 112 329 s cf\$4;
#X obj 41 47 spigot;
#X obj 97 46 r jack-amp-base\$5;
#X obj 216 140 r jack-amp-base\$5;
#X obj 464 165 ftom;
#X obj 507 223 lin-to-quartic;
#X obj 350 170 b;
#X obj 350 191 0;
#X obj 382 248 pack;
#X obj 349 131 route 0 1;
#X obj 407 223 r jack-gliss;
#X obj 507 201 *;
#X obj 525 158 line;
#X obj 525 180 dbtorms;
#X obj 505 280 pack;
#X obj 425 140 unpack 0 0 0;
#X obj 380 170 unpack;
#X obj 380 191 ftom;
#X obj 528 258 r jack-amptc;
#X obj 360 273 t l;
#X obj 525 136 r jack-amp-base\$5;
#X obj 774 162 ftom;
#X obj 817 220 lin-to-quartic;
#X obj 660 167 b;
#X obj 660 188 0;
#X obj 692 245 pack;
#X obj 659 128 route 0 1;
#X obj 717 220 r jack-gliss;
#X obj 817 198 *;
#X obj 835 155 line;
#X obj 835 177 dbtorms;
#X obj 815 277 pack;
#X obj 735 137 unpack 0 0 0;
#X obj 690 167 unpack;
#X obj 690 188 ftom;
#X obj 838 255 r jack-amptc;
#X obj 670 270 t l;
#X obj 835 133 r jack-amp-base\$5;
#X obj 360 301 s cf\$1b;
#X obj 422 301 s cf\$2b;
#X obj 359 325 s cf\$3b;
#X obj 421 325 s cf\$4b;
#X obj 505 303 s amp\$1b;
#X obj 574 303 s amp\$2b;
#X obj 505 326 s amp\$3b;
#X obj 574 326 s amp\$4b;
#X obj 670 298 s cf\$1c;
#X obj 732 298 s cf\$2c;
#X obj 669 322 s cf\$3c;
#X obj 731 322 s cf\$4c;
#X obj 815 300 s amp\$1c;
#X obj 884 300 s amp\$2c;
#X obj 815 323 s amp\$3c;
#X obj 884 323 s amp\$4c;
#X obj 41 25 r jack-formant-list;
#X connect 2 0 6 0;
#X connect 3 0 12 0;
#X connect 4 0 5 0;
#X connect 5 0 12 0;
#X connect 6 0 17 0;
#X connect 7 0 4 0;
#X connect 7 1 14 0;
#X connect 7 2 13 0;
#X connect 8 0 6 1;
#X connect 9 0 3 0;
#X connect 10 0 11 0;
#X connect 11 0 9 1;
#X connect 12 0 1 0;
#X connect 12 0 20 0;
#X connect 12 0 19 0;
#X connect 12 0 21 0;
#X connect 13 1 2 0;
#X connect 13 2 9 0;
#X connect 14 0 15 0;
#X connect 14 1 9 0;
#X connect 15 0 17 0;
#X connect 16 0 12 1;
#X connect 17 0 22 0;
#X connect 17 0 23 0;
#X connect 17 0 24 0;
#X connect 17 0 25 0;
#X connect 18 0 7 0;
#X connect 18 1 34 0;
#X connect 18 2 51 0;
#X connect 26 0 18 0;
#X connect 27 0 26 1;
#X connect 28 0 10 0;
#X connect 29 0 33 0;
#X connect 30 0 39 0;
#X connect 31 0 32 0;
#X connect 32 0 39 0;
#X connect 33 0 44 0;
#X connect 34 0 31 0;
#X connect 34 1 41 0;
#X connect 34 2 40 0;
#X connect 35 0 33 1;
#X connect 36 0 30 0;
#X connect 37 0 38 0;
#X connect 38 0 36 1;
#X connect 39 0 67 0;
#X connect 39 0 68 0;
#X connect 39 0 69 0;
#X connect 39 0 70 0;
#X connect 40 1 29 0;
#X connect 40 2 36 0;
#X connect 41 0 42 0;
#X connect 41 1 36 0;
#X connect 42 0 44 0;
#X connect 43 0 39 1;
#X connect 44 0 63 0;
#X connect 44 0 64 0;
#X connect 44 0 65 0;
#X connect 44 0 66 0;
#X connect 45 0 37 0;
#X connect 46 0 50 0;
#X connect 47 0 56 0;
#X connect 48 0 49 0;
#X connect 49 0 56 0;
#X connect 50 0 61 0;
#X connect 51 0 48 0;
#X connect 51 1 58 0;
#X connect 51 2 57 0;
#X connect 52 0 50 1;
#X connect 53 0 47 0;
#X connect 54 0 55 0;
#X connect 55 0 53 1;
#X connect 56 0 75 0;
#X connect 56 0 76 0;
#X connect 56 0 77 0;
#X connect 56 0 78 0;
#X connect 57 1 46 0;
#X connect 57 2 53 0;
#X connect 58 0 59 0;
#X connect 58 1 53 0;
#X connect 59 0 61 0;
#X connect 60 0 56 1;
#X connect 61 0 71 0;
#X connect 61 0 72 0;
#X connect 61 0 73 0;
#X connect 61 0 74 0;
#X connect 62 0 54 0;
#X connect 79 0 26 0;
