#N canvas 0 22 639 445 10;
#X obj 138 178 *~;
#X obj 138 201 *~;
#X obj 140 150 inlet~;
#X obj 169 179 catch~ jack-sum-\$1;
#X obj 169 201 amp-quarticlin~ jack-amp\$1;
#X obj 135 411 outlet~;
#X obj 138 255 shaker2~;
#X obj 430 136 unpack;
#X obj 454 112 t l b;
#X obj 484 139 0;
#X obj 393 158 moses -99;
#X msg 392 181 0;
#X obj 426 181 mtof;
#X obj 449 241 line;
#X obj 426 204 / 256;
#X obj 454 88 r jack-n-fre;
#N canvas 370 320 450 300 delwrite 0;
#X obj 68 99 outlet~;
#X obj 67 28 inlet~;
#X obj 83 64 delwrite~ jack-del\$0 1000;
#X connect 1 0 0 0;
#X connect 1 0 2 0;
#X restore 138 281 pd delwrite;
#X obj 135 362 +~;
#X obj 135 385 *~ 0.3;
#X obj 148 332 jack-pshift~ 1 \$0;
#X obj 269 332 jack-pshift~ 2 \$0;
#X obj 212 413 s~ from-jack\$1;
#X connect 0 0 1 0;
#X connect 1 0 6 0;
#X connect 2 0 0 0;
#X connect 3 0 0 1;
#X connect 4 0 1 1;
#X connect 6 0 16 0;
#X connect 7 0 10 0;
#X connect 7 1 13 1;
#X connect 8 0 7 0;
#X connect 8 1 9 0;
#X connect 9 0 13 1;
#X connect 10 0 11 0;
#X connect 10 1 12 0;
#X connect 11 0 13 0;
#X connect 12 0 14 0;
#X connect 13 0 6 1;
#X connect 14 0 13 0;
#X connect 15 0 8 0;
#X connect 16 0 17 0;
#X connect 16 0 19 0;
#X connect 16 0 20 0;
#X connect 17 0 18 0;
#X connect 18 0 5 0;
#X connect 18 0 21 0;
#X connect 19 0 17 1;
#X connect 20 0 17 1;
