#N canvas 755 293 626 569 10;
#X obj 135 377 *~;
#X obj 78 154 exp;
#X floatatom 79 173 6 0 0 0 - - -;
#X obj 80 274 /;
#X obj 188 233 * 0.001;
#X obj 79 417 cos~;
#X obj 79 437 *~;
#X obj 79 457 +~;
#X obj 268 319 wrap~;
#X obj 326 382 *~;
#X obj 267 442 cos~;
#X obj 267 469 *~;
#X obj 268 292 +~ 0.5;
#X obj 79 377 -~ 0.5;
#X obj 79 397 *~ 0.5;
#X obj 267 381 -~ 0.5;
#X obj 267 414 *~ 0.5;
#X obj 79 189 - 1;
#X obj 78 114 * 0.05776;
#X obj 79 210 * -1;
#X text 130 164 speed;
#X text 129 178 change;
#X obj 79 316 phasor~;
#X obj 188 212 max 1;
#X obj 78 134 * 0.01;
#X text 271 52 window (msec);
#X obj 51 23 inlet~;
#X obj 342 341 line~;
#X obj 188 188 f;
#X obj 79 488 outlet~;
#X obj 78 92 line;
#X obj 188 167 line;
#X obj 79 70 r jack-fre\$1;
#X obj 272 71 r jack-wind;
#X obj 142 429 vd~ jack-del\$2;
#X obj 326 444 vd~ jack-del\$2;
#X obj 291 118 t l b;
#X obj 297 146 pack;
#X obj 334 119 100;
#X obj 95 253 t b f;
#X connect 0 0 34 0;
#X connect 1 0 2 0;
#X connect 2 0 17 0;
#X connect 3 0 22 0;
#X connect 4 0 39 0;
#X connect 5 0 6 0;
#X connect 6 0 7 0;
#X connect 7 0 29 0;
#X connect 8 0 9 0;
#X connect 8 0 15 0;
#X connect 9 0 35 0;
#X connect 10 0 11 0;
#X connect 11 0 7 1;
#X connect 12 0 8 0;
#X connect 13 0 14 0;
#X connect 14 0 5 0;
#X connect 15 0 16 0;
#X connect 16 0 10 0;
#X connect 17 0 19 0;
#X connect 18 0 24 0;
#X connect 19 0 3 0;
#X connect 22 0 0 0;
#X connect 22 0 13 0;
#X connect 22 0 12 0;
#X connect 23 0 4 0;
#X connect 24 0 1 0;
#X connect 27 0 0 1;
#X connect 27 0 9 1;
#X connect 28 0 23 0;
#X connect 30 0 18 0;
#X connect 31 0 28 0;
#X connect 32 0 30 0;
#X connect 33 0 36 0;
#X connect 34 0 6 1;
#X connect 35 0 11 1;
#X connect 36 0 37 0;
#X connect 36 1 38 0;
#X connect 37 0 31 0;
#X connect 37 0 27 0;
#X connect 38 0 37 1;
#X connect 39 0 3 0;
#X connect 39 1 3 1;
