#N canvas 210 90 863 372 10;
#X obj 118 75 r jack-paf-list;
#X text 99 29 voice number \, age \, freq \, amp;
#X obj 118 102 route \$1;
#X obj 85 318 s pitch\$1;
#X obj 276 311 s amp\$1;
#X obj 233 157 ftom;
#X obj 276 215 lin-to-quartic;
#X obj 90 215 b;
#X obj 90 236 0;
#X obj 107 293 pack;
#X obj 119 129 route 0 1;
#X obj 144 292 r jack-gliss;
#X obj 276 193 *;
#X obj 294 109 line;
#X obj 294 131 dbtorms;
#X obj 294 86 r jack-amp-base1;
#X obj 276 288 pack;
#X obj 194 132 unpack 0 0 0;
#X obj 149 162 unpack;
#X obj 149 183 ftom;
#X obj 398 215 lin-to-quartic;
#X obj 398 193 *;
#X obj 416 109 line;
#X obj 416 131 dbtorms;
#X obj 398 288 pack;
#X obj 416 86 r jack-amp-base2;
#X obj 519 215 lin-to-quartic;
#X obj 544 240 r jack-amptc;
#X obj 519 193 *;
#X obj 537 109 line;
#X obj 537 131 dbtorms;
#X obj 519 288 pack;
#X obj 537 86 r jack-amp-base3;
#X obj 398 311 s amp\$1b;
#X obj 519 311 s amp\$1c;
#X obj 675 198 r jack-paf-fadeout;
#X obj 675 222 route \$1;
#X obj 675 272 pack;
#X obj 684 296 s amp\$1;
#X obj 679 319 s amp\$1b;
#X obj 675 341 s amp\$1c;
#X msg 674 244 0;
#X connect 0 0 2 0;
#X connect 2 0 10 0;
#X connect 5 0 9 0;
#X connect 6 0 16 0;
#X connect 7 0 8 0;
#X connect 8 0 16 0;
#X connect 8 0 24 0;
#X connect 8 0 31 0;
#X connect 9 0 3 0;
#X connect 10 0 7 0;
#X connect 10 1 18 0;
#X connect 10 2 17 0;
#X connect 11 0 9 1;
#X connect 12 0 6 0;
#X connect 13 0 14 0;
#X connect 14 0 12 1;
#X connect 15 0 13 0;
#X connect 16 0 4 0;
#X connect 17 1 5 0;
#X connect 17 2 12 0;
#X connect 17 2 21 0;
#X connect 17 2 28 0;
#X connect 18 0 19 0;
#X connect 18 1 12 0;
#X connect 18 1 21 0;
#X connect 18 1 28 0;
#X connect 19 0 3 0;
#X connect 20 0 24 0;
#X connect 21 0 20 0;
#X connect 22 0 23 0;
#X connect 23 0 21 1;
#X connect 24 0 33 0;
#X connect 25 0 22 0;
#X connect 26 0 31 0;
#X connect 27 0 31 1;
#X connect 27 0 24 1;
#X connect 27 0 16 1;
#X connect 27 0 37 1;
#X connect 28 0 26 0;
#X connect 29 0 30 0;
#X connect 30 0 28 1;
#X connect 31 0 34 0;
#X connect 32 0 29 0;
#X connect 35 0 36 0;
#X connect 36 0 41 0;
#X connect 37 0 38 0;
#X connect 37 0 39 0;
#X connect 37 0 40 0;
#X connect 41 0 37 0;
