#N canvas 0 22 466 316 10;
#X obj 103 163 smerdyakov 100 2 \$1;
#X obj 106 44 loadbang;
#X obj 106 66 bng 15 250 50 0 empty empty empty 0 -6 0 8 -262144 -1
-1;
#X obj 106 86 symbol \$1;
#X msg 103 138 read \$1;
#X obj 105 112 makefilename %s.txt;
#X connect 1 0 2 0;
#X connect 2 0 3 0;
#X connect 3 0 5 0;
#X connect 4 0 0 0;
#X connect 5 0 4 0;
