#N canvas 636 282 650 571 10;
#X obj 79 231 smerdyakov 100 2;
#X obj 410 55 r \$1tempo;
#X obj 410 98 expr pow(2 \, $f1/12);
#X msg 410 125 tempo \$1;
#X obj 89 88 f;
#X obj 126 89 + 1;
#X obj 89 120 moses 100;
#X obj 158 120 expr 200 - $f1;
#X msg 85 181 \$1 64 100;
#X msg 120 60 -1;
#X obj 40 42 metro 1000;
#X obj 40 22 tgl 15 0 empty empty empty 0 -6 0 8 -262144 -1 -1 0 1
;
#X msg 182 168 clear \, record 1;
#X obj 85 144 moses 0;
#X obj 129 348 r \$1base;
#X obj 79 356 +;
#X obj 79 329 *;
#X obj 124 324 * 0.01;
#X obj 125 282 r \$1range;
#X obj 129 371 line;
#X obj 124 304 line;
#X obj 410 77 line;
#X obj 79 413 s \$1;
#X obj 79 383 pack;
#X obj 171 403 r \$1line;
#X obj 171 423 t f;
#X obj 261 57 r \$1mark;
#X msg 257 85 play \$1;
#X obj 13 285 print smerd;
#X obj 352 268 t f;
#X obj 352 248 r \$1order;
#X obj 352 288 * 0.01;
#X msg 353 309 depth \$1;
#X msg 279 128 print;
#X obj 343 337 print zzz;
#X obj 268 343 r \$1seq;
#X obj 268 366 line;
#X obj 282 408 t f f f;
#X obj 343 440 int;
#X obj 307 444 int;
#X obj 344 462 + 1;
#X obj 267 446 -;
#X obj 258 521 pack 0 s s;
#X msg 258 543 mix \$2 \$3 \$1;
#X obj 273 388 * 0.1;
#X obj 306 483 makefilename walk%d;
#X obj 346 506 makefilename walk%d;
#X floatatom 18 341 5 0 0 0 - - -;
#X obj 549 64 r \$1ost;
#X obj 548 86 line;
#X obj 549 112 / 100;
#X msg 548 133 uniformize \$1;
#X obj 222 215 loadbang;
#X msg 224 242 read walk0.txt;
#X connect 0 0 16 0;
#X connect 0 0 47 0;
#X connect 1 0 21 0;
#X connect 2 0 3 0;
#X connect 3 0 0 0;
#X connect 4 0 5 0;
#X connect 4 0 6 0;
#X connect 5 0 4 1;
#X connect 6 0 13 0;
#X connect 6 1 7 0;
#X connect 7 0 8 0;
#X connect 8 0 0 0;
#X connect 9 0 4 1;
#X connect 10 0 4 0;
#X connect 11 0 10 0;
#X connect 12 0 0 0;
#X connect 13 0 12 0;
#X connect 13 1 8 0;
#X connect 14 0 19 0;
#X connect 15 0 23 0;
#X connect 16 0 15 0;
#X connect 17 0 16 1;
#X connect 18 0 20 0;
#X connect 19 0 15 1;
#X connect 20 0 17 0;
#X connect 21 0 2 0;
#X connect 23 0 22 0;
#X connect 24 0 25 0;
#X connect 25 0 23 1;
#X connect 26 0 27 0;
#X connect 27 0 0 0;
#X connect 29 0 31 0;
#X connect 30 0 29 0;
#X connect 31 0 32 0;
#X connect 32 0 0 0;
#X connect 33 0 0 0;
#X connect 35 0 36 0;
#X connect 36 0 44 0;
#X connect 37 0 41 0;
#X connect 37 1 39 0;
#X connect 37 2 38 0;
#X connect 38 0 40 0;
#X connect 39 0 41 1;
#X connect 39 0 45 0;
#X connect 40 0 46 0;
#X connect 41 0 42 0;
#X connect 42 0 43 0;
#X connect 43 0 0 0;
#X connect 44 0 37 0;
#X connect 45 0 42 1;
#X connect 46 0 42 2;
#X connect 48 0 49 0;
#X connect 49 0 50 0;
#X connect 50 0 51 0;
#X connect 51 0 0 0;
#X connect 52 0 53 0;
#X connect 53 0 0 0;
