#N canvas 94 -92 805 790 16;
#X obj 91 33 inlet;
#X obj 93 62 route list;
#X obj 274 375 list split 1;
#X obj 274 292 until;
#X obj 275 319 list append;
#X obj 355 399 bang;
#X obj 60 196 f \$1;
#X obj 93 84 t b l b;
#X obj 36 235 list append;
#X msg 35 266 \; pitch\$1 \$2 \; vamp\$1 \$3 \; vfreq\$1 \$4 \; noise\$1
\$5 \; amp\$1 \$6 \; cf\$1 \$7 \; bw\$1 \$8 \; amp\$1b \$9 \; cf\$1b
\$10 \; bw\$1b \$11 \; amp\$1c \$12 \; cf\$1c \$13 \; bw\$1c \$14;
#X obj 289 478 route float;
#X obj 506 509 f;
#X obj 540 509 + 1;
#X msg 528 486 0;
#X obj 447 612 t l;
#X obj 340 615 list;
#X obj 386 585 list prepend;
#X obj 473 510 b;
#X text 210 395 seralized list;
#X text 388 564 accumulate new list;
#X obj 353 513 t l b b;
#X obj 342 259 t b b l b;
#X obj 228 246 t f b;
#X obj 224 274 del;
#X msg 343 232 list a 4 5 v 5 6 x 123 34 w 500 e 45 67;
#X obj 343 644 route bang list;
#X obj 311 678 route w;
#X obj 150 724 route pitch vamp vfreq noise amp cf bw ampb cfb bwb
ampc cfc bwc;
#X obj 150 828 s pitch\$1;
#X obj 179 806 s vamp\$1;
#X obj 209 784 s vfreq\$1;
#X obj 239 763 s noise\$1;
#X obj 269 814 s amp\$1;
#X obj 299 791 s cf\$1;
#X obj 329 769 s bw\$1;
#X obj 359 820 s amp\$1b;
#X obj 389 797 s cf\$1b;
#X obj 419 775 s bw\$1b;
#X obj 449 822 s amp\$1c;
#X obj 479 799 s cf\$1c;
#X obj 509 777 s bw\$1c;
#X obj 379 698 print paf-unknown-parameter;
#X obj 367 192 t l;
#X obj 281 191 list;
#X obj 306 165 list prepend;
#X text 308 144 accumulate new list;
#X obj 167 147 route w;
#X obj 166 117 spigot;
#X obj 226 120 spigot;
#X obj 260 23 loadbang;
#X msg 262 48 0;
#X obj 222 92 == 0;
#X msg 196 46 1;
#X obj 168 173 del;
#X obj 136 218 r reset;
#X msg 136 240 stop;
#X msg 293 52 1;
#X obj 130 287 print;
#X obj 160 86 t a a;
#X connect 0 0 1 0;
#X connect 1 0 7 0;
#X connect 1 1 58 0;
#X connect 2 0 10 0;
#X connect 2 1 4 1;
#X connect 2 2 5 0;
#X connect 3 0 4 0;
#X connect 4 0 2 0;
#X connect 5 0 3 1;
#X connect 5 0 15 0;
#X connect 6 0 8 0;
#X connect 7 0 6 0;
#X connect 7 1 8 1;
#X connect 7 2 50 0;
#X connect 7 2 44 1;
#X connect 8 0 9 0;
#X connect 10 0 16 0;
#X connect 10 0 17 0;
#X connect 10 1 20 0;
#X connect 11 0 12 0;
#X connect 12 0 11 1;
#X connect 13 0 11 1;
#X connect 14 0 16 1;
#X connect 15 0 25 0;
#X connect 16 0 14 0;
#X connect 16 0 15 1;
#X connect 17 0 11 0;
#X connect 20 0 16 0;
#X connect 20 1 15 0;
#X connect 20 2 16 1;
#X connect 21 1 3 0;
#X connect 21 2 4 1;
#X connect 21 3 13 0;
#X connect 21 3 16 1;
#X connect 21 3 15 1;
#X connect 22 0 23 0;
#X connect 22 1 3 1;
#X connect 23 0 3 0;
#X connect 24 0 21 0;
#X connect 25 1 26 0;
#X connect 26 0 22 0;
#X connect 26 1 27 0;
#X connect 27 0 28 0;
#X connect 27 1 29 0;
#X connect 27 2 30 0;
#X connect 27 3 31 0;
#X connect 27 4 32 0;
#X connect 27 5 33 0;
#X connect 27 6 34 0;
#X connect 27 7 35 0;
#X connect 27 8 36 0;
#X connect 27 9 37 0;
#X connect 27 10 38 0;
#X connect 27 11 39 0;
#X connect 27 12 40 0;
#X connect 27 13 41 0;
#X connect 42 0 44 1;
#X connect 43 0 21 0;
#X connect 44 0 42 0;
#X connect 44 0 43 1;
#X connect 46 0 53 0;
#X connect 46 0 56 0;
#X connect 46 1 27 0;
#X connect 47 0 46 0;
#X connect 48 0 44 0;
#X connect 49 0 50 0;
#X connect 50 0 48 1;
#X connect 50 0 51 0;
#X connect 51 0 47 1;
#X connect 53 0 43 0;
#X connect 54 0 55 0;
#X connect 55 0 53 0;
#X connect 55 0 23 0;
#X connect 56 0 48 1;
#X connect 56 0 51 0;
#X connect 58 0 47 0;
#X connect 58 1 48 0;
