#N canvas 411 0 817 612 12;
#X obj 59 491 t b;
#X obj 59 438 f;
#X obj 59 516 f;
#X msg 103 517 0;
#X obj 59 468 moses 1;
#X obj 113 468 spigot 1;
#X obj 59 541 t b f b;
#X obj 139 567 0;
#X obj 59 567 1;
#X obj 193 488 t b;
#X obj 193 435 f;
#X obj 193 513 f;
#X msg 237 514 0;
#X obj 193 465 moses 1;
#X obj 247 465 spigot 1;
#X obj 193 538 t b f b;
#X obj 279 564 0;
#X obj 193 564 1;
#X obj 325 488 t b;
#X obj 325 435 f;
#X obj 325 513 f;
#X msg 369 514 0;
#X obj 325 465 moses 1;
#X obj 379 465 spigot 1;
#X obj 325 538 t b f b;
#X obj 410 564 0;
#X obj 325 564 1;
#X obj 201 74 r paf-clear-all;
#X obj 114 444 f;
#X obj 247 443 f;
#X obj 379 441 f;
#X obj 21 24 genctl amp\$1;
#X obj 21 41 genctl noise\$1;
#X obj 22 64 genctl pitch\$1;
#X obj 20 86 genctl cf\$1;
#X obj 20 107 genctl bw\$1;
#X obj 20 149 genctl vamp\$1;
#X obj 19 169 genctl vfreq\$1;
#X obj 18 213 genctl amp\$1b;
#X obj 19 233 genctl cf\$1b;
#X obj 19 253 genctl bw\$1b;
#X obj 20 295 genctl amp\$1c;
#X obj 19 316 genctl cf\$1c;
#X obj 19 337 genctl bw\$1c;
#X obj 59 391 r paf-mute\$1;
#X obj 193 388 r paf-mute\$1;
#X obj 325 388 r paf-mute\$1;
#X obj 114 423 r amp\$1;
#X obj 247 420 r amp\$1b;
#X obj 379 420 r amp\$1c;
#X obj 84 567 s amp\$1;
#X obj 218 564 s amp\$1b;
#X obj 349 564 s amp\$1c;
#X obj 193 48 r paf-clear\$1;
#X obj 357 26 r pitch\$1;
#X obj 339 5 r paf\$1-spit;
#X obj 339 73 f;
#X obj 402 225 r amp\$1;
#X obj 355 94 r vamp\$1;
#X obj 372 138 r vfreq\$1;
#X obj 431 25 r cf\$1;
#X obj 439 72 r bw\$1;
#X obj 388 181 r noise\$1;
#X obj 453 113 r amp\$1b;
#X obj 471 161 r cf\$1b;
#X obj 490 209 r bw\$1b;
#X obj 492 25 r amp\$1c;
#X obj 521 65 r cf\$1c;
#X obj 531 109 r bw\$1c;
#X obj 337 271 pack 0 0 0 0 0 0 0 0 0 0 0 0 0;
#X obj 337 341 print;
#X obj 337 320 list trim;
#X obj 192 101 b;
#X obj 192 127 f \$1;
#X obj 337 296 list prepend paf;
#X msg 192 153 \; amp\$1 0 \; noise\$1 0 \; pitch\$1 0 \; cf\$1 0 \;
bw\$1 0 \; vamp\$1 0 \; vfreq\$1 0 \; amp\$1b 0 \; cf\$1b 0 \; bw\$1b
0 \; amp\$1c 0 \; cf\$1c 0 \; bw\$1c 0;
#X obj 357 51 f;
#X obj 355 118 f;
#X obj 372 162 f;
#X obj 389 203 f;
#X obj 403 249 f;
#X obj 431 47 f;
#X obj 439 94 f;
#X obj 454 135 f;
#X obj 473 184 f;
#X obj 489 232 f;
#X obj 492 46 f;
#X obj 522 90 f;
#X obj 532 130 f;
#X connect 0 0 2 0;
#X connect 1 0 4 0;
#X connect 2 0 6 0;
#X connect 3 0 6 0;
#X connect 4 0 0 0;
#X connect 4 1 3 0;
#X connect 5 0 2 1;
#X connect 6 0 8 0;
#X connect 6 1 50 0;
#X connect 6 2 7 0;
#X connect 7 0 5 1;
#X connect 8 0 5 1;
#X connect 9 0 11 0;
#X connect 10 0 13 0;
#X connect 11 0 15 0;
#X connect 12 0 15 0;
#X connect 13 0 9 0;
#X connect 13 1 12 0;
#X connect 14 0 11 1;
#X connect 15 0 17 0;
#X connect 15 1 51 0;
#X connect 15 2 16 0;
#X connect 16 0 14 1;
#X connect 17 0 14 1;
#X connect 18 0 20 0;
#X connect 19 0 22 0;
#X connect 20 0 24 0;
#X connect 21 0 24 0;
#X connect 22 0 18 0;
#X connect 22 1 21 0;
#X connect 23 0 20 1;
#X connect 24 0 26 0;
#X connect 24 1 52 0;
#X connect 24 2 25 0;
#X connect 25 0 23 1;
#X connect 26 0 23 1;
#X connect 27 0 72 0;
#X connect 28 0 5 0;
#X connect 28 0 1 1;
#X connect 29 0 14 0;
#X connect 29 0 10 1;
#X connect 30 0 23 0;
#X connect 30 0 19 1;
#X connect 44 0 1 0;
#X connect 45 0 10 0;
#X connect 46 0 19 0;
#X connect 47 0 28 0;
#X connect 48 0 29 0;
#X connect 49 0 30 0;
#X connect 53 0 72 0;
#X connect 54 0 76 0;
#X connect 55 0 56 0;
#X connect 56 0 69 0;
#X connect 57 0 80 0;
#X connect 58 0 77 0;
#X connect 59 0 78 0;
#X connect 60 0 81 0;
#X connect 61 0 82 0;
#X connect 62 0 79 0;
#X connect 63 0 83 0;
#X connect 64 0 84 0;
#X connect 65 0 85 0;
#X connect 66 0 86 0;
#X connect 67 0 87 0;
#X connect 68 0 88 0;
#X connect 69 0 74 0;
#X connect 71 0 70 0;
#X connect 72 0 73 0;
#X connect 73 0 75 0;
#X connect 74 0 71 0;
#X connect 76 0 56 1;
#X connect 77 0 69 1;
#X connect 78 0 69 2;
#X connect 79 0 69 3;
#X connect 80 0 69 4;
#X connect 81 0 69 5;
#X connect 82 0 69 6;
#X connect 83 0 69 7;
#X connect 84 0 69 8;
#X connect 85 0 69 9;
#X connect 86 0 69 10;
#X connect 87 0 69 11;
#X connect 88 0 69 12;
