#N canvas 148 127 1007 492 12;
#X obj 365 314 s \$2-spect;
#X floatatom 564 226 0 0 0 0 - - -;
#X obj 564 245 s \$2-tc;
#X obj 23 45 inlet~;
#X obj 24 455 outlet~;
#X obj 24 433 +~;
#X obj 41 409 *~;
#X obj 237 52 inlet;
#X obj 235 230 route 6 7 8 9 10 11;
#X obj 237 75 route 0 1 2 3 4 5;
#X msg 410 98 1;
#X obj 397 76 split 1 10000;
#X obj 396 51 inlet;
#X text 372 30 spectral shift;
#X floatatom 365 288 0 0 0 0 - - -;
#X text 557 16 lopass;
#X obj 564 35 inlet;
#X obj 564 173 / 1;
#X obj 564 134 fswap 16000;
#X obj 564 110 mtof;
#X obj 564 60 split 1 128;
#X obj 564 84 split 1 90;
#X msg 645 177 1e+08;
#X msg 609 175 10;
#X obj 395 149 samplerate~;
#X obj 342 173 expr 65536./($f1 * $f2);
#X text 464 291 the spectral shift is unity for an input of 64 \, so
we compute (64*npoints)/(SR*spect) to give us a constant to convert
(freq in Hz.) to (FFT bin).;
#X obj 342 149 t f b;
#X obj 154 52 print;
#X obj 74 409 amp-linear~ \$2-amp;
#X obj 41 95 trailvoice \$1 \$2;
#X obj 41 121 trailvoice \$1 \$2;
#X obj 41 146 trailvoice \$1 \$2;
#X obj 41 173 trailvoice \$1 \$2;
#X obj 41 199 trailvoice \$1 \$2;
#X obj 41 225 trailvoice \$1 \$2;
#X obj 42 251 trailvoice \$1 \$2;
#X obj 41 277 trailvoice \$1 \$2;
#X obj 41 302 trailvoice \$1 \$2;
#X obj 41 328 trailvoice \$1 \$2;
#X obj 41 354 trailvoice \$1 \$2;
#X obj 41 379 trailvoice \$1 \$2;
#X text 214 31 voice/freq/amp;
#X connect 1 0 2 0;
#X connect 3 0 5 0;
#X connect 5 0 4 0;
#X connect 6 0 5 1;
#X connect 7 0 9 0;
#X connect 8 0 36 1;
#X connect 8 1 37 1;
#X connect 8 2 38 1;
#X connect 8 3 39 1;
#X connect 8 4 40 1;
#X connect 8 5 41 1;
#X connect 9 0 30 1;
#X connect 9 1 31 1;
#X connect 9 2 32 1;
#X connect 9 3 33 1;
#X connect 9 4 34 1;
#X connect 9 5 35 1;
#X connect 9 6 8 0;
#X connect 10 0 27 0;
#X connect 11 0 27 0;
#X connect 11 1 10 0;
#X connect 12 0 11 0;
#X connect 14 0 0 0;
#X connect 16 0 20 0;
#X connect 17 0 1 0;
#X connect 18 0 17 0;
#X connect 18 1 17 1;
#X connect 19 0 18 0;
#X connect 20 0 21 0;
#X connect 20 1 22 0;
#X connect 21 0 19 0;
#X connect 21 1 23 0;
#X connect 22 0 1 0;
#X connect 23 0 1 0;
#X connect 24 0 25 1;
#X connect 25 0 14 0;
#X connect 27 0 25 0;
#X connect 27 1 24 0;
#X connect 29 0 6 1;
#X connect 30 0 31 0;
#X connect 31 0 32 0;
#X connect 32 0 33 0;
#X connect 33 0 34 0;
#X connect 34 0 35 0;
#X connect 35 0 36 0;
#X connect 36 0 37 0;
#X connect 37 0 38 0;
#X connect 38 0 39 0;
#X connect 39 0 40 0;
#X connect 40 0 41 0;
#X connect 41 0 6 0;
