#N canvas 872 507 565 476 10;
#X obj 95 63 t b;
#X obj 179 95 del 5;
#X obj 152 18 inlet;
#X obj 152 39 route 0;
#X msg 31 58 stop;
#X obj 72 184 pack 0 50;
#X obj 141 69 t b;
#X obj 9 185 pack 0 5;
#X obj 204 156 % 100000;
#X obj 204 136 i;
#X obj 194 315 pack 0 0;
#X obj 229 367 line~;
#X obj 106 376 *~;
#X obj 62 396 +~;
#X text 13 327 signal bus;
#X obj 106 351 line~;
#X obj 194 339 swap;
#X obj 229 421 tabread4~ sample1;
#X obj 368 303 makefilename sample%d;
#X msg 369 332 set \$1;
#X obj 310 136 f;
#X obj 8 118 f;
#X obj 203 205 t b f;
#X obj 204 180 / -1200;
#X obj 217 253 pow;
#X obj 203 229 2;
#X text 196 18 velo \, pit \, onset \, rise \, decay \, sample-number
;
#X obj 213 59 unpack 0 0 0 0 0 0;
#X obj 396 139 f;
#X obj 51 353 inlet~;
#X obj 62 426 outlet~;
#X obj 269 288 + 441000;
#X obj 326 110 * 44.1;
#X obj 141 184 pack 0 5;
#X obj 16 11 r plu-samp-alloff;
#X obj 194 289 * 441000;
#X obj 8 161 expr $f1*$f1*$f1*$f1;
#X obj 8 140 * 0.009;
#X connect 0 0 5 0;
#X connect 1 0 20 0;
#X connect 1 0 28 0;
#X connect 1 0 9 0;
#X connect 1 0 21 0;
#X connect 2 0 3 0;
#X connect 3 0 4 0;
#X connect 3 0 0 0;
#X connect 3 1 27 0;
#X connect 4 0 1 0;
#X connect 5 0 15 0;
#X connect 6 0 1 0;
#X connect 6 0 33 0;
#X connect 7 0 15 0;
#X connect 8 0 23 0;
#X connect 9 0 8 0;
#X connect 10 0 16 0;
#X connect 11 0 17 0;
#X connect 12 0 13 1;
#X connect 13 0 30 0;
#X connect 15 0 12 0;
#X connect 16 0 11 0;
#X connect 16 1 11 1;
#X connect 17 0 12 1;
#X connect 18 0 19 0;
#X connect 19 0 17 0;
#X connect 20 0 11 0;
#X connect 20 0 31 0;
#X connect 21 0 37 0;
#X connect 22 0 25 0;
#X connect 22 1 24 1;
#X connect 23 0 22 0;
#X connect 24 0 35 0;
#X connect 25 0 24 0;
#X connect 27 0 6 0;
#X connect 27 0 21 1;
#X connect 27 1 9 1;
#X connect 27 2 32 0;
#X connect 27 3 7 1;
#X connect 27 4 5 1;
#X connect 27 5 28 1;
#X connect 28 0 18 0;
#X connect 29 0 13 0;
#X connect 31 0 10 1;
#X connect 32 0 20 1;
#X connect 33 0 15 0;
#X connect 34 0 0 0;
#X connect 34 0 4 0;
#X connect 35 0 10 0;
#X connect 36 0 7 0;
#X connect 37 0 36 0;
