#N canvas 522 271 508 581 10;
#X obj 135 377 *~;
#X obj 78 154 exp;
#X floatatom 79 173 6 0 0 0 - - -;
#X obj 79 259 /;
#X obj 133 246 * 0.001;
#X obj 135 403 +~;
#X obj 79 417 cos~;
#X obj 79 437 *~;
#X obj 79 457 +~;
#X obj 223 316 wrap~;
#X obj 281 379 *~;
#X obj 281 412 +~;
#X obj 222 439 cos~;
#X obj 222 466 *~;
#X obj 223 289 +~ 0.5;
#X obj 79 377 -~ 0.5;
#X obj 79 397 *~ 0.5;
#X obj 222 378 -~ 0.5;
#X obj 222 411 *~ 0.5;
#X obj 79 189 - 1;
#X obj 79 210 * -1;
#X text 130 164 speed;
#X text 129 178 change;
#X obj 79 316 phasor~;
#X text 353 162 delay;
#X obj 133 223 max 1;
#X obj 345 305 max 0.025;
#X obj 79 488 *~;
#X obj 78 134 * 0.01;
#X text 271 52 window (msec);
#X obj 51 23 inlet~;
#X obj 78 537 outlet~;
#X obj 272 71 r hwind;
#X obj 79 513 rampdown~;
#X obj 152 514 r hrampdowns;
#X obj 297 338 line~;
#X obj 345 386 line~;
#X obj 133 199 f;
#X obj 345 226 t l b;
#X obj 345 252 unpack;
#X obj 400 252 0;
#X obj 345 327 pack;
#X obj 135 429 vd~ psdel;
#X obj 281 441 vd~ psdel;
#X obj 83 69 r hfre\$1;
#X text 350 180 (hundredths);
#X obj 344 200 r hdel\$1;
#X obj 343 278 * 10;
#X obj 113 487 amp-quarticlin~ hamp\$1;
#X obj 86 92 line;
#X obj 78 114 * 0.05776;
#X connect 0 0 5 0;
#X connect 1 0 2 0;
#X connect 2 0 19 0;
#X connect 3 0 23 0;
#X connect 4 0 3 1;
#X connect 5 0 42 0;
#X connect 6 0 7 0;
#X connect 7 0 8 0;
#X connect 8 0 27 0;
#X connect 9 0 10 0;
#X connect 9 0 17 0;
#X connect 10 0 11 0;
#X connect 11 0 43 0;
#X connect 12 0 13 0;
#X connect 13 0 8 1;
#X connect 14 0 9 0;
#X connect 15 0 16 0;
#X connect 16 0 6 0;
#X connect 17 0 18 0;
#X connect 18 0 12 0;
#X connect 19 0 20 0;
#X connect 20 0 3 0;
#X connect 23 0 0 0;
#X connect 23 0 15 0;
#X connect 23 0 14 0;
#X connect 25 0 4 0;
#X connect 26 0 41 0;
#X connect 27 0 33 0;
#X connect 28 0 1 0;
#X connect 32 0 37 0;
#X connect 32 0 35 0;
#X connect 33 0 31 0;
#X connect 34 0 33 1;
#X connect 35 0 0 1;
#X connect 35 0 10 1;
#X connect 36 0 5 1;
#X connect 36 0 11 1;
#X connect 37 0 25 0;
#X connect 38 0 39 0;
#X connect 38 1 40 0;
#X connect 39 0 47 0;
#X connect 39 1 41 1;
#X connect 40 0 41 1;
#X connect 41 0 36 0;
#X connect 42 0 7 1;
#X connect 43 0 13 1;
#X connect 44 0 49 0;
#X connect 46 0 38 0;
#X connect 47 0 26 0;
#X connect 48 0 27 1;
#X connect 49 0 50 0;
#X connect 50 0 28 0;
