#N canvas 0 22 542 669 10;
#X obj 80 102 metro;
#X obj 287 262 t b f;
#X obj 278 289 -;
#X obj 300 457 +;
#X obj 80 203 f;
#X obj 144 202 random;
#X obj 83 229 t f b;
#X obj 83 275 +;
#X obj 83 305 moses;
#X obj 112 326 expr 2*$f2-$f1;
#X obj 83 356 moses;
#X obj 83 379 expr -$f1;
#X obj 85 407 moses;
#X obj 130 409 moses;
#X obj 161 440 expr int($f2/2);
#X obj 89 467 f;
#X obj 143 250 t f b;
#X obj 185 248 random 2;
#X obj 116 276 expr $f1*(2*$f2-1);
#X obj 169 98 expr 60000/$f1;
#X obj 145 225 + 1;
#X obj 300 484 outlet;
#X obj 79 67 inlet;
#X obj 169 73 inlet;
#X obj 431 85 inlet;
#X obj 304 80 inlet;
#X obj 359 80 inlet;
#X connect 0 0 4 0;
#X connect 1 0 2 0;
#X connect 1 1 2 1;
#X connect 2 0 8 1;
#X connect 2 0 13 1;
#X connect 2 0 9 1;
#X connect 3 0 21 0;
#X connect 4 0 6 0;
#X connect 5 0 20 0;
#X connect 6 0 7 0;
#X connect 6 1 5 0;
#X connect 7 0 8 0;
#X connect 8 0 10 0;
#X connect 8 1 9 0;
#X connect 9 0 10 0;
#X connect 10 0 11 0;
#X connect 10 1 12 0;
#X connect 11 0 12 0;
#X connect 12 0 14 0;
#X connect 12 1 13 0;
#X connect 13 0 15 0;
#X connect 13 1 14 0;
#X connect 14 0 15 0;
#X connect 15 0 4 1;
#X connect 15 0 3 0;
#X connect 16 0 18 0;
#X connect 16 1 17 0;
#X connect 17 0 18 1;
#X connect 18 0 7 1;
#X connect 19 0 0 1;
#X connect 20 0 16 0;
#X connect 22 0 0 0;
#X connect 23 0 19 0;
#X connect 24 0 5 1;
#X connect 25 0 1 0;
#X connect 25 0 3 1;
#X connect 26 0 2 0;
