#N canvas 0 22 462 312 10;
#X obj 96 86 inlet~;
#X obj 166 85 inlet~;
#X obj 249 24 loadbang;
#X obj 250 65 expr $f1*2*3.14159;
#X obj 247 90 cos;
#X obj 95 150 -~;
#X obj 95 127 *~ 0;
#X obj 128 129 *~ 0;
#X obj 95 179 outlet~;
#X obj 276 90 sin;
#X obj 248 44 f \$1;
#X connect 0 0 6 0;
#X connect 1 0 7 0;
#X connect 2 0 10 0;
#X connect 3 0 4 0;
#X connect 3 0 9 0;
#X connect 4 0 6 1;
#X connect 5 0 8 0;
#X connect 6 0 5 0;
#X connect 7 0 5 1;
#X connect 9 0 7 1;
#X connect 10 0 3 0;
