#N canvas 583 120 450 481 10;
#X obj 63 172 table \$0-tab;
#X obj 83 61 sel \$1;
#X obj 83 83 tabplay~ \$0-tab;
#X obj 82 108 throw~ sf-fx-sampler-out;
#X obj 79 235 loadbang;
#X obj 108 280 symbol \$0-tab;
#X obj 79 257 t b b;
#X obj 65 283 f \$1;
#X obj 97 312 pack 0 s;
#X msg 97 334 read -resize choir/choir\$1.wav \$2;
#X obj 97 356 soundfiler;
#X obj 192 34 r reset;
#X msg 192 56 stop;
#X obj 83 39 r sf-fx-file;
#X connect 1 0 2 0;
#X connect 2 0 3 0;
#X connect 4 0 6 0;
#X connect 5 0 8 1;
#X connect 6 0 7 0;
#X connect 6 1 5 0;
#X connect 7 0 8 0;
#X connect 8 0 9 0;
#X connect 9 0 10 0;
#X connect 11 0 12 0;
#X connect 12 0 2 0;
#X connect 13 0 1 0;
