#N canvas 633 110 305 112 10;
#X floatatom 217 8 5 0 100 0 #1-dist #1-dist-set #1-dist;
#N canvas 268 80 603 318 ctls 1;
#X obj 210 49 r reset;
#X obj 210 90 del 20;
#X obj 210 113 symbol \$1;
#X obj 210 69 t b;
#X obj 35 53 mutectl \$1-rounds 0;
#X obj 416 101 sel 0;
#X obj 463 102 t b f;
#X obj 417 175 metro 10;
#X obj 463 123 1;
#X obj 417 199 f;
#X obj 477 190 +;
#X obj 416 61 r \$1-rounds;
#X obj 415 297 s \$1-angle;
#X obj 417 250 int;
#X obj 417 124 0;
#X obj 417 273 pack 0 10;
#X obj 32 95 genctl \$1-dist 20;
#X obj 34 223 genctl \$1-dry 50;
#X obj 32 116 genctl \$1-angle;
#X obj 32 138 genctl \$1-radius 100;
#X obj 32 159 genctl \$1-spread 100;
#X obj 34 197 genctl \$1-rounds;
#X obj 34 246 genctl \$1-wet;
#X obj 416 81 line;
#X obj 417 149 change;
#X obj 476 211 mod 4000;
#X obj 417 226 / 40;
#X msg 210 137 \; \$1-spread 100 \; \$1-dist 20 \; \$1-angle 0 \; \$1-radius
100 \; \$1-rounds 0 \; \$1-dry 50 \; \$1-wet 0 \; \$1-rev 0 \;;
#X obj 35 269 genctl \$1-rev;
#X connect 0 0 3 0;
#X connect 1 0 2 0;
#X connect 2 0 27 0;
#X connect 3 0 1 0;
#X connect 5 0 14 0;
#X connect 5 1 6 0;
#X connect 6 0 8 0;
#X connect 6 1 10 1;
#X connect 7 0 9 0;
#X connect 8 0 24 0;
#X connect 9 0 10 0;
#X connect 9 0 26 0;
#X connect 10 0 25 0;
#X connect 11 0 23 0;
#X connect 13 0 15 0;
#X connect 14 0 24 0;
#X connect 15 0 12 0;
#X connect 23 0 5 0;
#X connect 24 0 7 0;
#X connect 25 0 9 1;
#X connect 26 0 13 0;
#X restore 64 80 pd ctls;
#X floatatom 217 25 5 0 0 0 #1-angle #1-angle-set #1-angle;
#X floatatom 217 42 5 0 150 0 #1-radius #1-radius-set #1-radius;
#X floatatom 217 59 5 0 100 0 #1-spread #1-spread-set #1-spread;
#X floatatom 83 29 5 0 100 0 #1-dry #1-dry-set #1-dry;
#X floatatom 83 46 5 0 100 0 #1-wet #1-wet-set #1-wet;
#X floatatom 83 9 5 0 0 0 #1-rounds #1-rounds-set #1-rounds;
#X obj 125 10 bng 13 250 50 0 \$1-rounds-mute empty empty -47 7 0 10
-262144 -1 -1;
#X obj 278 74 bng 13 250 50 0 \$1-sample-output empty empty -110 7
0 12 -262144 -1 -1;
#X text 181 75 sample-output;
#X floatatom 83 62 5 0 100 0 #1-rev #1-rev-set #1-rev;
