#N canvas 0 30 986 612 10;
#X obj 37 114 inlet~;
#X obj 158 102 inlet~;
#X obj 207 103 inlet~;
#X obj 155 209 *~;
#X obj 181 211 *~;
#X obj 155 232 -~;
#X obj 221 211 *~;
#X obj 248 211 *~;
#X obj 221 232 +~;
#X obj 358 426 *~ -1;
#X obj 446 423 *~ -1;
#X obj 125 477 *~;
#X obj 110 546 +~;
#X obj 22 490 *~;
#X obj 141 149 *~;
#X obj 190 148 *~;
#X obj 219 477 *~;
#X obj 22 53 -~ 1;
#X obj 48 157 *~;
#X obj 313 477 *~;
#X obj 111 585 throw~ dac1;
#X obj 48 183 throw~ rev-send;
#X obj 65 21 amp-linlin~ \$1-dist;
#X obj 848 414 amp-linlin~ \$1-radius;
#N canvas 419 208 450 300 cos-and-sin 0;
#X obj 46 238 line~;
#X obj 87 83 unpack;
#X obj 46 263 outlet~;
#X obj 87 58 t l b;
#X obj 135 83 20;
#X obj 219 113 expr cos($f1*(2*3.14159*0.01));
#X obj 219 140 expr sin($f1*(2*3.14159*0.01));
#X obj 103 237 line~;
#X obj 103 262 outlet~;
#X obj 87 35 r \$1-angle;
#X obj 220 160 expr cos(2*$f1*(2*3.14159*0.01));
#X obj 220 187 expr sin(2*$f1*(2*3.14159*0.01));
#X obj 156 236 line~;
#X obj 156 261 outlet~;
#X obj 213 235 line~;
#X obj 213 260 outlet~;
#X connect 0 0 2 0;
#X connect 1 0 5 0;
#X connect 1 0 6 0;
#X connect 1 0 10 0;
#X connect 1 0 11 0;
#X connect 1 1 0 1;
#X connect 1 1 7 1;
#X connect 1 1 14 1;
#X connect 1 1 12 1;
#X connect 3 0 1 0;
#X connect 3 1 4 0;
#X connect 4 0 0 1;
#X connect 4 0 7 1;
#X connect 4 0 12 1;
#X connect 4 0 14 1;
#X connect 5 0 0 0;
#X connect 6 0 7 0;
#X connect 7 0 8 0;
#X connect 9 0 3 0;
#X connect 10 0 12 0;
#X connect 11 0 14 0;
#X connect 12 0 13 0;
#X connect 14 0 15 0;
#X restore 382 152 pd cos-and-sin;
#X obj 227 12 r \$1-sample-output;
#X obj 227 47 tabwrite~ sample1;
#X obj 411 477 *~;
#X obj 505 477 *~;
#X obj 599 477 *~;
#X obj 250 387 rotate~ 0.1666;
#X obj 424 388 rotate~ 0.3333;
#X obj 531 422 *~ -1;
#X obj 268 109 inlet~;
#X obj 317 110 inlet~;
#X obj 251 156 *~;
#X obj 300 155 *~;
#X obj 434 209 *~;
#X obj 460 211 *~;
#X obj 434 232 -~;
#X obj 500 211 *~;
#X obj 527 211 *~;
#X obj 500 232 +~;
#X obj 535 260 rotate~ 0.1666;
#X obj 639 261 rotate~ 0.3333;
#X obj 777 273 amp-linlin~ 2nd-order;
#X obj 776 295 *~;
#X obj 707 477 *~;
#X obj 771 478 *~;
#X obj 684 292 *~ -1;
#X obj 834 478 *~;
#X obj 203 546 +~;
#X obj 297 546 +~;
#X obj 396 546 +~;
#X obj 489 546 +~;
#X obj 583 546 +~;
#X obj 205 588 throw~ dac2;
#X obj 296 586 throw~ dac4;
#X obj 397 585 throw~ dac6;
#X obj 490 588 throw~ dac5;
#X obj 582 587 throw~ dac3;
#X connect 0 0 13 1;
#X connect 0 0 18 0;
#X connect 0 0 26 0;
#X connect 1 0 14 1;
#X connect 2 0 15 1;
#X connect 3 0 5 0;
#X connect 4 0 5 1;
#X connect 5 0 9 0;
#X connect 5 0 11 0;
#X connect 5 0 30 0;
#X connect 5 0 31 0;
#X connect 6 0 8 0;
#X connect 7 0 8 1;
#X connect 8 0 30 1;
#X connect 8 0 31 1;
#X connect 9 0 27 0;
#X connect 10 0 28 0;
#X connect 11 0 12 1;
#X connect 12 0 20 0;
#X connect 13 0 12 0;
#X connect 13 0 51 0;
#X connect 13 0 52 0;
#X connect 13 0 53 0;
#X connect 13 0 54 0;
#X connect 13 0 55 0;
#X connect 14 0 7 0;
#X connect 14 0 3 0;
#X connect 15 0 4 0;
#X connect 15 0 6 0;
#X connect 16 0 51 1;
#X connect 17 0 13 0;
#X connect 17 0 14 0;
#X connect 17 0 15 0;
#X connect 17 0 35 0;
#X connect 17 0 36 0;
#X connect 18 0 21 0;
#X connect 19 0 52 1;
#X connect 22 0 17 0;
#X connect 22 0 18 1;
#X connect 23 0 11 1;
#X connect 23 0 16 1;
#X connect 23 0 19 1;
#X connect 23 0 27 1;
#X connect 23 0 28 1;
#X connect 23 0 29 1;
#X connect 23 0 46 1;
#X connect 24 0 3 1;
#X connect 24 0 6 1;
#X connect 24 1 7 1;
#X connect 24 1 4 1;
#X connect 24 2 37 1;
#X connect 24 2 40 1;
#X connect 24 3 38 1;
#X connect 24 3 41 1;
#X connect 25 0 26 0;
#X connect 27 0 53 1;
#X connect 28 0 54 1;
#X connect 29 0 55 1;
#X connect 30 0 10 0;
#X connect 30 0 16 0;
#X connect 31 0 19 0;
#X connect 31 0 32 0;
#X connect 32 0 29 0;
#X connect 33 0 35 1;
#X connect 34 0 36 1;
#X connect 35 0 37 0;
#X connect 35 0 41 0;
#X connect 36 0 38 0;
#X connect 36 0 40 0;
#X connect 37 0 39 0;
#X connect 38 0 39 1;
#X connect 39 0 43 0;
#X connect 39 0 44 0;
#X connect 39 0 47 0;
#X connect 40 0 42 0;
#X connect 41 0 42 1;
#X connect 42 0 43 1;
#X connect 42 0 44 1;
#X connect 43 0 49 0;
#X connect 44 0 48 0;
#X connect 45 0 46 0;
#X connect 46 0 47 1;
#X connect 46 0 48 1;
#X connect 46 0 50 1;
#X connect 47 0 12 1;
#X connect 47 0 53 1;
#X connect 48 0 51 1;
#X connect 48 0 54 1;
#X connect 49 0 50 0;
#X connect 50 0 52 1;
#X connect 50 0 55 1;
#X connect 51 0 56 0;
#X connect 52 0 57 0;
#X connect 53 0 58 0;
#X connect 54 0 59 0;
#X connect 55 0 60 0;
