#N canvas 77 345 763 383 10;
#X obj 233 95 loadbang;
#X obj 244 116 r fred-loadbangs;
#X obj 138 176 *~ 1;
#X obj 138 154 line~;
#X obj 138 133 t l b;
#X obj 180 133 20;
#X obj 138 223 cos~;
#X obj 173 224 cos~;
#X obj 173 203 -~ 0.25;
#X obj 598 64 inlet~;
#X obj 55 276 inlet~;
#X obj 38 332 outlet~;
#X obj 38 308 +~;
#X obj 240 258 inlet~;
#X obj 195 329 outlet~;
#X obj 195 305 +~;
#X obj 296 257 inlet~;
#X obj 251 328 outlet~;
#X obj 251 304 +~;
#X obj 495 284 inlet~;
#X obj 476 334 outlet~;
#X obj 476 310 +~;
#X obj 37 78 *~;
#X obj 476 107 *~;
#X obj 93 248 *~;
#X obj 128 248 *~;
#X obj 138 111 r \$1-spread;
#X obj 233 141 f \$2;
#X obj 233 164 expr 0.25*($f1-2.5)*0.01;
#X obj 475 15 amp-quarticlin~ \$1-wet 20 17;
#X obj 36 51 amp-quarticlin~ \$1-dry;
#X obj 350 258 inlet~;
#X obj 305 329 outlet~;
#X obj 305 305 +~;
#X obj 406 257 inlet~;
#X obj 361 328 outlet~;
#X obj 361 304 +~;
#X obj 246 184 *~;
#X obj 246 206 *~ 2;
#X obj 247 228 -~ 1;
#X obj 273 184 *~;
#X obj 280 229 *~ 2;
#X obj 163 251 *~;
#X obj 198 251 *~;
#X obj 571 285 inlet~;
#X obj 552 335 outlet~;
#X obj 552 311 +~;
#X obj 552 108 *~;
#X obj 552 36 amp-quarticlin~ \$1-rev;
#X connect 0 0 27 0;
#X connect 1 0 27 0;
#X connect 2 0 8 0;
#X connect 2 0 6 0;
#X connect 3 0 2 0;
#X connect 4 0 3 0;
#X connect 4 1 5 0;
#X connect 5 0 3 1;
#X connect 6 0 24 1;
#X connect 6 0 37 0;
#X connect 6 0 37 1;
#X connect 6 0 40 0;
#X connect 7 0 25 1;
#X connect 7 0 40 1;
#X connect 8 0 7 0;
#X connect 9 0 22 1;
#X connect 9 0 23 1;
#X connect 9 0 47 1;
#X connect 10 0 12 1;
#X connect 12 0 11 0;
#X connect 13 0 15 1;
#X connect 15 0 14 0;
#X connect 16 0 18 1;
#X connect 18 0 17 0;
#X connect 19 0 21 1;
#X connect 21 0 20 0;
#X connect 22 0 12 0;
#X connect 22 0 24 0;
#X connect 22 0 25 0;
#X connect 22 0 42 0;
#X connect 22 0 43 0;
#X connect 23 0 21 0;
#X connect 24 0 15 0;
#X connect 25 0 18 0;
#X connect 26 0 4 0;
#X connect 27 0 28 0;
#X connect 28 0 2 1;
#X connect 29 0 23 0;
#X connect 30 0 22 0;
#X connect 31 0 33 1;
#X connect 33 0 32 0;
#X connect 34 0 36 1;
#X connect 36 0 35 0;
#X connect 37 0 38 0;
#X connect 38 0 39 0;
#X connect 39 0 42 1;
#X connect 40 0 41 0;
#X connect 41 0 43 1;
#X connect 42 0 33 0;
#X connect 43 0 36 0;
#X connect 44 0 46 1;
#X connect 46 0 45 0;
#X connect 47 0 46 0;
#X connect 48 0 47 0;
