#N canvas 285 323 727 423 10;
#X obj 92 231 cos~;
#X obj 215 156 *~;
#X obj 193 356 *~;
#X obj 92 253 +~ 1;
#X obj 90 68 inlet~;
#X text 94 46 phase;
#X obj 166 54 inlet~;
#X obj 332 60 inlet~;
#X obj 193 382 outlet~;
#X obj 91 185 *~;
#X obj 91 209 clip~ -0.5 0.5;
#X obj 108 162 +~ 1;
#X obj 231 58 inlet~;
#X text 235 36 cf;
#X text 176 33 bw;
#X obj 435 64 inlet;
#X msg 432 188 set \$1;
#X obj 486 116 loadbang;
#X msg 486 139 0;
#X obj 231 135 samphold~;
#X obj 110 136 samphold~;
#X msg 594 75 reset;
#X obj 594 53 inlet;
#X text 312 39 frame number;
#X obj 215 229 tabreadwrap4~;
#X obj 216 178 *~ 2;
#X obj 521 56 inlet;
#X text 408 43 table number;
#X text 510 39 block size;
#X text 96 27 play;
#X text 603 35 hit;
#X obj 11 300 samphold~;
#X obj 10 262 sig~ 1;
#X obj 577 191 f \$1;
#X obj 575 215 sel 0 1;
#X msg 448 244 set 1;
#X obj 76 327 *~;
#X msg 495 245 set 0 \, reset -1e+20;
#X obj 432 164 makefilename tab-samp%d;
#X connect 0 0 3 0;
#X connect 1 0 25 0;
#X connect 2 0 8 0;
#X connect 3 0 36 1;
#X connect 4 0 1 0;
#X connect 4 0 9 0;
#X connect 4 0 19 1;
#X connect 4 0 20 1;
#X connect 4 0 31 1;
#X connect 6 0 20 0;
#X connect 7 0 24 1;
#X connect 9 0 10 0;
#X connect 10 0 0 0;
#X connect 11 0 9 1;
#X connect 12 0 19 0;
#X connect 15 0 38 0;
#X connect 16 0 24 0;
#X connect 17 0 18 0;
#X connect 18 0 38 0;
#X connect 19 0 1 1;
#X connect 20 0 11 0;
#X connect 21 0 20 0;
#X connect 21 0 19 0;
#X connect 22 0 21 0;
#X connect 22 0 33 0;
#X connect 24 0 2 1;
#X connect 25 0 24 0;
#X connect 26 0 24 2;
#X connect 31 0 36 0;
#X connect 32 0 31 0;
#X connect 33 0 34 0;
#X connect 34 0 35 0;
#X connect 34 1 37 0;
#X connect 35 0 31 0;
#X connect 36 0 2 0;
#X connect 37 0 31 0;
#X connect 38 0 16 0;
