#N canvas 66 11 452 449 10;
#X obj 109 324 output~;
#X obj 130 107 / 100;
#X floatatom 130 86 4 0 100 0 - - -;
#X obj 206 108 / 100;
#X floatatom 206 87 4 0 100 0 - - -;
#X obj 19 95 phasor~;
#X floatatom 19 74 5 0 0 0 - - -;
#X text 11 51 frequency;
#X text 126 50 SLOPES (percent);
#X obj 108 137 *~;
#X obj 19 129 *~ -1;
#X obj 19 154 +~ 1;
#X obj 184 156 *~;
#X obj 108 189 min~;
#X text 136 67 up;
#X text 209 68 down;
#X obj 109 214 *~ 10;
#X floatatom 292 158 5 0 0 0 - - -;
#X obj 294 212 line~;
#X obj 294 192 pack;
#X floatatom 341 190 4 0 100 0 - - -;
#X obj 181 323 output~;
#X msg 293 122 100;
#X msg 350 117 1000;
#X obj 109 276 band-split~;
#X connect 1 0 9 1;
#X connect 2 0 1 0;
#X connect 3 0 12 1;
#X connect 4 0 3 0;
#X connect 5 0 9 0;
#X connect 5 0 10 0;
#X connect 6 0 5 0;
#X connect 9 0 13 0;
#X connect 10 0 11 0;
#X connect 11 0 12 0;
#X connect 12 0 13 1;
#X connect 13 0 16 0;
#X connect 16 0 24 0;
#X connect 17 0 19 0;
#X connect 18 0 24 1;
#X connect 19 0 18 0;
#X connect 20 0 19 1;
#X connect 22 0 17 0;
#X connect 23 0 17 0;
#X connect 24 0 0 0;
#X connect 24 0 0 1;
#X connect 24 1 21 0;
#X connect 24 1 21 1;
