#N canvas 175 133 450 300 10;
#X obj 58 103 r data-beatnow;
#X obj 41 153 *;
#X obj 77 132 r pix-per-beat;
#X obj 42 127 f;
#X obj 42 75 t b p p;
#X obj 42 229 set \$1 x;
#X obj 43 36 inlet;
#X obj 114 170 r pix-margin;
#X obj 41 175 +;
#X obj 29 256 outlet;
#X obj 43 201 max 10;
#X connect 0 0 3 1;
#X connect 1 0 8 0;
#X connect 2 0 1 1;
#X connect 3 0 1 0;
#X connect 4 0 3 0;
#X connect 4 1 5 1;
#X connect 6 0 4 0;
#X connect 7 0 8 1;
#X connect 8 0 10 0;
#X connect 10 0 5 0;
#X connect 10 0 9 0;
