#N canvas 210 51 547 699 10;
#X obj 80 55 inlet;
#X text 137 53 pointer to trace;
#X obj 192 102 getsize mark-curve vec;
#X obj 79 82 t b p p;
#X obj 179 276 element mark-curve vec;
#X obj 63 189 f;
#X obj 94 189 + 1;
#X obj 191 169 r curve-metro;
#X obj 83 227 moses;
#X msg 151 224 0;
#X msg 45 116 1;
#X obj 43 141 tgl 15 0 empty empty empty 17 7 0 10 -262144 -1 -1 1
1;
#X msg 83 117 0;
#X obj 182 299 get float y;
#X obj 100 421 pack 0 s;
#X obj 375 279 get mark-curve var1;
#X msg 100 442 \$2 \$1;
#X obj 145 486 list;
#X obj 145 509 t l l;
#X obj 300 482 t l l;
#X obj 318 559 symbol \$0-grabbed;
#X obj 247 557 pack s s;
#X msg 209 452 symbol \$1-grab;
#X obj 273 527 t s b;
#X msg 247 584 \; \$1 \$2;
#X obj 396 433 r \$0-grabbed;
#X floatatom 411 460 5 0 0 0 - - -;
#X obj 131 580 r \$0-grabbed;
#X obj 9 297 element mark-curve vec;
#X obj 9 276 + 1;
#X obj 9 320 get float y;
#X obj 79 248 t f f;
#X obj 86 383 -;
#X obj 191 122 - 1;
#X msg 95 543 \$2;
#X obj 95 580 +;
#X obj 94 609 s;
#X msg 157 542 symbol \$1;
#X obj 100 463 route -;
#X obj 55 163 metro 50;
#X connect 0 0 3 0;
#X connect 2 0 33 0;
#X connect 3 0 10 0;
#X connect 3 1 2 0;
#X connect 3 1 4 1;
#X connect 3 1 12 0;
#X connect 3 1 15 0;
#X connect 3 1 28 1;
#X connect 4 0 13 0;
#X connect 5 0 6 0;
#X connect 5 0 8 0;
#X connect 6 0 5 1;
#X connect 7 0 39 1;
#X connect 8 0 31 0;
#X connect 8 1 9 0;
#X connect 9 0 11 0;
#X connect 10 0 11 0;
#X connect 11 0 39 0;
#X connect 12 0 5 1;
#X connect 13 0 32 1;
#X connect 14 0 16 0;
#X connect 15 0 14 1;
#X connect 16 0 38 0;
#X connect 17 0 18 0;
#X connect 18 0 34 0;
#X connect 18 1 22 0;
#X connect 18 1 37 0;
#X connect 20 0 21 1;
#X connect 21 0 24 0;
#X connect 22 0 23 0;
#X connect 23 0 21 0;
#X connect 23 1 20 0;
#X connect 25 0 26 0;
#X connect 27 0 35 1;
#X connect 28 0 30 0;
#X connect 29 0 28 0;
#X connect 30 0 32 0;
#X connect 31 0 29 0;
#X connect 31 1 4 0;
#X connect 32 0 14 0;
#X connect 33 0 8 1;
#X connect 34 0 35 0;
#X connect 35 0 36 0;
#X connect 37 0 36 1;
#X connect 38 1 17 0;
#X connect 39 0 5 0;
