#N canvas 242 170 420 456 12;
#X obj 195 214 r \$2-tc;
#X obj 159 121 r \$2-spect;
#X obj 131 60 r \$1-trigger;
#X text 68 14 freq;
#X obj 68 35 inlet;
#X obj 68 58 * 0.01;
#X obj 68 81 mtof;
#X obj 113 117 f;
#X obj 113 140 * 0;
#X text 256 118 spect;
#X obj 113 213 pack 0 0;
#X obj 113 236 line~;
#X obj 50 400 outlet~;
#X obj 8 233 inlet~;
#X obj 50 377 +~;
#X obj 71 352 *~;
#X text 273 212 time const;
#X obj 113 190 * 1;
#X obj 19 111 > 10;
#X obj 113 167 tabread4 fft-table;
#X obj 71 327 osc~;
#X connect 0 0 10 1;
#X connect 1 0 8 1;
#X connect 2 0 7 0;
#X connect 4 0 5 0;
#X connect 5 0 6 0;
#X connect 6 0 7 1;
#X connect 6 0 18 0;
#X connect 6 0 20 0;
#X connect 7 0 8 0;
#X connect 8 0 19 0;
#X connect 10 0 11 0;
#X connect 11 0 15 1;
#X connect 13 0 14 0;
#X connect 14 0 12 0;
#X connect 15 0 14 1;
#X connect 17 0 10 0;
#X connect 18 0 17 1;
#X connect 19 0 17 0;
#X connect 20 0 15 0;
