#N canvas 154 99 1086 431 10;
#X obj 12 16 r t-a;
#X obj 12 189 s \$1-a;
#X obj 12 166 spigot;
#X obj 61 166 spigot;
#X obj 108 166 spigot;
#X obj 161 166 spigot;
#X obj 61 16 r t-f;
#X obj 61 189 s \$1-f;
#X obj 108 16 r t-f0;
#X obj 108 189 s \$1-f0;
#X obj 161 16 r t-cf;
#X obj 161 189 s \$1-cf;
#X obj 214 166 spigot;
#X obj 267 166 spigot;
#X obj 320 166 spigot;
#X obj 373 166 spigot;
#X obj 426 166 spigot;
#X obj 479 166 spigot;
#X obj 533 166 spigot;
#X obj 586 166 spigot;
#X obj 639 166 spigot;
#X obj 692 166 spigot;
#X obj 214 16 r t-bw;
#X obj 267 16 r t-s;
#X obj 320 16 r t-p;
#X obj 373 16 r t-t;
#X obj 426 16 r t-ff;
#X obj 479 16 r t-fd;
#X obj 533 16 r t-ft;
#X obj 586 16 r t-n;
#X obj 639 16 r t-nf;
#X obj 745 166 spigot;
#X obj 692 16 r t-nc;
#X obj 745 16 r t-pc;
#X obj 214 189 s \$1-bw;
#X obj 267 189 s \$1-s;
#X obj 320 189 s \$1-p;
#X obj 373 189 s \$1-t;
#X obj 426 189 s \$1-ff;
#X obj 479 189 s \$1-fd;
#X obj 533 189 s \$1-ft;
#X obj 586 189 s \$1-n;
#X obj 639 189 s \$1-nf;
#X obj 692 189 s \$1-nc;
#X obj 745 189 s \$1-pc;
#X obj 808 208 f;
#X obj 10 361 spigot;
#X obj 10 211 r t-attack;
#X obj 10 384 s \$1-attack;
#X obj 773 52 r tuttirange;
#X obj 773 80 expr \$2 == $f1 || \$2 > $f1 && \$2 <= $f2;
#X connect 0 0 2 0;
#X connect 2 0 1 0;
#X connect 3 0 7 0;
#X connect 4 0 9 0;
#X connect 5 0 11 0;
#X connect 6 0 3 0;
#X connect 8 0 4 0;
#X connect 10 0 5 0;
#X connect 12 0 34 0;
#X connect 13 0 35 0;
#X connect 14 0 36 0;
#X connect 15 0 37 0;
#X connect 16 0 38 0;
#X connect 17 0 39 0;
#X connect 18 0 40 0;
#X connect 19 0 41 0;
#X connect 20 0 42 0;
#X connect 21 0 43 0;
#X connect 22 0 12 0;
#X connect 23 0 13 0;
#X connect 24 0 14 0;
#X connect 25 0 15 0;
#X connect 26 0 16 0;
#X connect 27 0 17 0;
#X connect 28 0 18 0;
#X connect 29 0 19 0;
#X connect 30 0 20 0;
#X connect 31 0 44 0;
#X connect 32 0 21 0;
#X connect 33 0 31 0;
#X connect 45 0 46 1;
#X connect 46 0 48 0;
#X connect 47 0 46 0;
#X connect 49 0 50 0;
#X connect 50 0 2 1;
#X connect 50 0 45 0;
#X connect 50 0 3 1;
#X connect 50 0 4 1;
#X connect 50 0 5 1;
#X connect 50 0 12 1;
#X connect 50 0 13 1;
#X connect 50 0 14 1;
#X connect 50 0 15 1;
#X connect 50 0 16 1;
#X connect 50 0 18 1;
#X connect 50 0 19 1;
#X connect 50 0 20 1;
#X connect 50 0 21 1;
#X connect 50 0 31 1;
