#N canvas 136 33 709 709 10;
#X obj 36 256 phasor~;
#X obj 105 233 +~ 0.5;
#X obj 105 255 wrap~;
#X obj 34 74 r \$1;
#X obj 34 141 - 12;
#X obj 34 164 mtof;
#X obj 34 186 pack 0 0;
#X text 34 56 pitch;
#X obj 34 210 line~;
#X text 165 57 vib freq;
#X text 272 74 vib depth;
#X obj 270 138 / 512;
#X obj 166 189 +~;
#X obj 125 189 *~;
#X obj 198 189 sig~ 1;
#X obj 163 257 /~;
#X obj 166 114 / 80;
#X obj 166 138 osc2~ vib1.snd;
#X obj 320 486 / 127;
#X obj 320 508 pack 0 30;
#X text 320 420 noise;
#X text 118 614 noise send;
#X text 52 623 sum bus;
#X obj 51 575 +~;
#X obj 69 552 -~;
#X obj 116 572 +~;
#X obj 134 550 *~;
#X obj 320 532 line~;
#X obj 116 595 outlet~;
#X obj 115 507 inlet~;
#X obj 50 493 inlet~;
#X obj 51 597 outlet~;
#X text 183 10 WAVE PACKET BASED REPLACEMENT FOR PAF;
#X obj 270 92 r \$2;
#X obj 166 74 r \$3;
#X obj 166 164 *~ 0;
#X obj 270 113 line;
#X obj 166 94 line;
#X obj 320 462 line;
#X obj 35 119 unpack;
#X obj 34 97 t l b;
#X obj 85 119 0;
#N canvas 873 435 758 684 formant2 0;
#X obj 83 489 *~;
#X obj 83 531 cos~;
#X obj 269 292 *~;
#X text 371 132 bandwidth;
#X obj 370 196 mtof;
#X text 345 248 divide by fundamental;
#X obj 83 552 +~ 1;
#X obj 43 425 -~ 0.5;
#X obj 43 603 +~;
#X obj 42 489 *~;
#X obj 42 510 cos~;
#X obj 148 458 samphold~;
#X obj 77 458 samphold~;
#X obj 42 531 *~;
#X obj 83 510 clip~ -0.5 0.5;
#X obj 299 506 *~;
#X obj 299 548 cos~;
#X obj 299 569 +~ 1;
#X obj 245 426 -~ 0.5;
#X obj 246 506 *~;
#X obj 246 527 cos~;
#X obj 364 475 samphold~;
#X obj 293 475 samphold~;
#X obj 246 548 *~;
#X obj 299 527 clip~ -0.5 0.5;
#X obj 345 297 max~ 1;
#X obj 570 273 line~;
#X msg 517 426 reset;
#X obj 370 217 * 1.6;
#X text 45 319 phase;
#X obj 44 345 inlet~;
#X obj 108 337 inlet~;
#X text 99 311 second phase;
#X obj 542 642 outlet~;
#X obj 269 221 inlet~;
#X text 275 194 1/f;
#X obj 345 271 *~ 0;
#X text 640 29 amplitude;
#X obj 370 175 line;
#X obj 517 403 sel 0;
#X obj 542 619 *~;
#X obj 370 153 r \$10;
#X obj 602 220 mtof;
#X obj 570 219 0;
#X obj 570 195 sel 0;
#X text 671 85 cf;
#X obj 570 250 pack 0 0;
#X obj 648 155 snapshot~;
#X obj 569 155 unpack;
#X obj 666 197 != 0;
#X obj 620 155 0;
#X obj 648 220 *;
#X obj 638 110 t l b b;
#X obj 638 86 r \$9;
#X obj 560 54 amp-quarticlin~ \$8 20 0.5;
#X connect 0 0 14 0;
#X connect 1 0 6 0;
#X connect 2 0 12 0;
#X connect 2 0 22 0;
#X connect 4 0 28 0;
#X connect 6 0 13 1;
#X connect 7 0 0 0;
#X connect 7 0 9 0;
#X connect 8 0 40 0;
#X connect 9 0 10 0;
#X connect 10 0 13 0;
#X connect 11 0 0 1;
#X connect 12 0 9 1;
#X connect 13 0 8 0;
#X connect 14 0 1 0;
#X connect 15 0 24 0;
#X connect 16 0 17 0;
#X connect 17 0 23 1;
#X connect 18 0 15 0;
#X connect 18 0 19 0;
#X connect 19 0 20 0;
#X connect 20 0 23 0;
#X connect 21 0 15 1;
#X connect 22 0 19 1;
#X connect 23 0 8 1;
#X connect 24 0 16 0;
#X connect 25 0 11 0;
#X connect 25 0 21 0;
#X connect 26 0 2 1;
#X connect 27 0 21 0;
#X connect 27 0 22 0;
#X connect 27 0 11 0;
#X connect 27 0 12 0;
#X connect 28 0 36 1;
#X connect 30 0 7 0;
#X connect 30 0 12 1;
#X connect 30 0 11 1;
#X connect 31 0 18 0;
#X connect 31 0 22 1;
#X connect 31 0 21 1;
#X connect 34 0 2 0;
#X connect 34 0 36 0;
#X connect 36 0 25 0;
#X connect 38 0 4 0;
#X connect 39 0 27 0;
#X connect 40 0 33 0;
#X connect 41 0 38 0;
#X connect 42 0 46 0;
#X connect 43 0 46 0;
#X connect 44 0 43 0;
#X connect 44 1 42 0;
#X connect 46 0 26 0;
#X connect 47 0 49 0;
#X connect 47 0 39 0;
#X connect 48 0 44 0;
#X connect 48 1 51 0;
#X connect 49 0 51 1;
#X connect 50 0 51 0;
#X connect 51 0 46 1;
#X connect 52 0 48 0;
#X connect 52 1 50 0;
#X connect 52 2 47 0;
#X connect 53 0 52 0;
#X connect 54 0 40 1;
#X connect 54 0 47 0;
#X restore 121 375 pd formant2;
#X obj 211 462 +~;
#X obj 320 438 r \$4;
#N canvas 568 106 770 696 formant1 0;
#X obj 83 489 *~;
#X obj 83 531 cos~;
#X obj 269 292 *~;
#X text 371 132 bandwidth;
#X obj 370 196 mtof;
#X text 345 248 divide by fundamental;
#X obj 83 552 +~ 1;
#X obj 43 425 -~ 0.5;
#X obj 43 603 +~;
#X obj 42 489 *~;
#X obj 42 510 cos~;
#X obj 148 458 samphold~;
#X obj 77 458 samphold~;
#X obj 42 531 *~;
#X obj 83 510 clip~ -0.5 0.5;
#X obj 299 506 *~;
#X obj 299 548 cos~;
#X obj 299 569 +~ 1;
#X obj 245 426 -~ 0.5;
#X obj 246 506 *~;
#X obj 246 527 cos~;
#X obj 364 475 samphold~;
#X obj 293 475 samphold~;
#X obj 246 548 *~;
#X obj 299 527 clip~ -0.5 0.5;
#X obj 345 297 max~ 1;
#X obj 602 220 mtof;
#X obj 570 219 0;
#X obj 570 273 line~;
#X obj 570 195 sel 0;
#X text 671 85 cf;
#X obj 570 250 pack 0 0;
#X obj 648 155 snapshot~;
#X msg 517 426 reset;
#X obj 370 217 * 1.6;
#X obj 638 86 r \$6;
#X obj 370 153 r \$7;
#X text 45 319 phase;
#X obj 44 345 inlet~;
#X obj 108 337 inlet~;
#X text 99 311 second phase;
#X obj 542 642 outlet~;
#X obj 269 221 inlet~;
#X text 275 194 1/f;
#X obj 345 271 *~ 0;
#X text 640 29 amplitude;
#X obj 370 175 line;
#X obj 569 155 unpack;
#X obj 664 197 != 0;
#X obj 620 155 0;
#X obj 648 220 *;
#X obj 638 110 t l b b;
#X obj 517 403 sel 0;
#X obj 542 619 *~;
#X obj 560 55 amp-quarticlin~ \$5 20 0.5;
#X connect 0 0 14 0;
#X connect 1 0 6 0;
#X connect 2 0 12 0;
#X connect 2 0 22 0;
#X connect 4 0 34 0;
#X connect 6 0 13 1;
#X connect 7 0 0 0;
#X connect 7 0 9 0;
#X connect 8 0 53 0;
#X connect 9 0 10 0;
#X connect 10 0 13 0;
#X connect 11 0 0 1;
#X connect 12 0 9 1;
#X connect 13 0 8 0;
#X connect 14 0 1 0;
#X connect 15 0 24 0;
#X connect 16 0 17 0;
#X connect 17 0 23 1;
#X connect 18 0 15 0;
#X connect 18 0 19 0;
#X connect 19 0 20 0;
#X connect 20 0 23 0;
#X connect 21 0 15 1;
#X connect 22 0 19 1;
#X connect 23 0 8 1;
#X connect 24 0 16 0;
#X connect 25 0 11 0;
#X connect 25 0 21 0;
#X connect 26 0 31 0;
#X connect 27 0 31 0;
#X connect 28 0 2 1;
#X connect 29 0 27 0;
#X connect 29 1 26 0;
#X connect 31 0 28 0;
#X connect 32 0 48 0;
#X connect 32 0 52 0;
#X connect 33 0 21 0;
#X connect 33 0 22 0;
#X connect 33 0 11 0;
#X connect 33 0 12 0;
#X connect 34 0 44 1;
#X connect 35 0 51 0;
#X connect 36 0 46 0;
#X connect 38 0 7 0;
#X connect 38 0 12 1;
#X connect 38 0 11 1;
#X connect 39 0 18 0;
#X connect 39 0 22 1;
#X connect 39 0 21 1;
#X connect 42 0 2 0;
#X connect 42 0 44 0;
#X connect 44 0 25 0;
#X connect 46 0 4 0;
#X connect 47 0 29 0;
#X connect 47 1 50 0;
#X connect 48 0 50 1;
#X connect 49 0 50 0;
#X connect 50 0 31 1;
#X connect 51 0 47 0;
#X connect 51 1 49 0;
#X connect 51 2 32 0;
#X connect 52 0 33 0;
#X connect 53 0 41 0;
#X connect 54 0 32 0;
#X connect 54 0 53 1;
#X restore 34 375 pd formant1;
#N canvas 841 430 758 684 formant3 0;
#X obj 83 489 *~;
#X obj 83 531 cos~;
#X obj 269 292 *~;
#X text 371 132 bandwidth;
#X obj 370 196 mtof;
#X text 345 248 divide by fundamental;
#X obj 83 552 +~ 1;
#X obj 43 425 -~ 0.5;
#X obj 43 603 +~;
#X obj 42 489 *~;
#X obj 42 510 cos~;
#X obj 148 458 samphold~;
#X obj 77 458 samphold~;
#X obj 42 531 *~;
#X obj 83 510 clip~ -0.5 0.5;
#X obj 299 506 *~;
#X obj 299 548 cos~;
#X obj 299 569 +~ 1;
#X obj 245 426 -~ 0.5;
#X obj 246 506 *~;
#X obj 246 527 cos~;
#X obj 364 475 samphold~;
#X obj 293 475 samphold~;
#X obj 246 548 *~;
#X obj 299 527 clip~ -0.5 0.5;
#X obj 345 297 max~ 1;
#X obj 570 273 line~;
#X msg 517 426 reset;
#X obj 370 217 * 1.6;
#X text 45 319 phase;
#X obj 44 345 inlet~;
#X obj 108 337 inlet~;
#X text 99 311 second phase;
#X obj 542 642 outlet~;
#X obj 269 221 inlet~;
#X text 275 194 1/f;
#X obj 345 271 *~ 0;
#X text 640 29 amplitude;
#X obj 370 175 line;
#X obj 517 403 sel 0;
#X obj 542 619 *~;
#X obj 370 153 r \$13;
#X obj 602 220 mtof;
#X obj 570 219 0;
#X obj 570 195 sel 0;
#X text 681 85 cf;
#X obj 570 250 pack 0 0;
#X obj 648 155 snapshot~;
#X obj 569 155 unpack;
#X obj 665 196 != 0;
#X obj 620 155 0;
#X obj 648 220 *;
#X obj 638 110 t l b b;
#X obj 638 86 r \$12;
#X obj 560 55 amp-quarticlin~ \$11 20 0.5;
#X connect 0 0 14 0;
#X connect 1 0 6 0;
#X connect 2 0 12 0;
#X connect 2 0 22 0;
#X connect 4 0 28 0;
#X connect 6 0 13 1;
#X connect 7 0 0 0;
#X connect 7 0 9 0;
#X connect 8 0 40 0;
#X connect 9 0 10 0;
#X connect 10 0 13 0;
#X connect 11 0 0 1;
#X connect 12 0 9 1;
#X connect 13 0 8 0;
#X connect 14 0 1 0;
#X connect 15 0 24 0;
#X connect 16 0 17 0;
#X connect 17 0 23 1;
#X connect 18 0 15 0;
#X connect 18 0 19 0;
#X connect 19 0 20 0;
#X connect 20 0 23 0;
#X connect 21 0 15 1;
#X connect 22 0 19 1;
#X connect 23 0 8 1;
#X connect 24 0 16 0;
#X connect 25 0 11 0;
#X connect 25 0 21 0;
#X connect 26 0 2 1;
#X connect 27 0 21 0;
#X connect 27 0 22 0;
#X connect 27 0 11 0;
#X connect 27 0 12 0;
#X connect 28 0 36 1;
#X connect 30 0 7 0;
#X connect 30 0 12 1;
#X connect 30 0 11 1;
#X connect 31 0 18 0;
#X connect 31 0 22 1;
#X connect 31 0 21 1;
#X connect 34 0 2 0;
#X connect 34 0 36 0;
#X connect 36 0 25 0;
#X connect 38 0 4 0;
#X connect 39 0 27 0;
#X connect 40 0 33 0;
#X connect 41 0 38 0;
#X connect 42 0 46 0;
#X connect 43 0 46 0;
#X connect 44 0 43 0;
#X connect 44 1 42 0;
#X connect 46 0 26 0;
#X connect 47 0 49 0;
#X connect 47 0 39 0;
#X connect 48 0 44 0;
#X connect 48 1 51 0;
#X connect 49 0 51 1;
#X connect 50 0 51 0;
#X connect 51 0 46 1;
#X connect 52 0 48 0;
#X connect 52 1 50 0;
#X connect 52 2 47 0;
#X connect 53 0 52 0;
#X connect 54 0 40 1;
#X connect 54 0 47 0;
#X restore 208 374 pd formant3;
#X obj 437 353 env~ 8192;
#X floatatom 440 387 5 0 0 0 - - -;
#X obj 330 147 r phase-bash-tutti;
#X connect 0 0 1 0;
#X connect 0 0 42 0;
#X connect 0 0 45 0;
#X connect 0 0 46 0;
#X connect 1 0 2 0;
#X connect 2 0 42 1;
#X connect 2 0 45 1;
#X connect 2 0 46 1;
#X connect 3 0 40 0;
#X connect 4 0 5 0;
#X connect 5 0 6 0;
#X connect 6 0 8 0;
#X connect 8 0 13 0;
#X connect 11 0 35 1;
#X connect 12 0 13 1;
#X connect 13 0 15 1;
#X connect 13 0 0 0;
#X connect 14 0 15 0;
#X connect 14 0 12 1;
#X connect 15 0 42 2;
#X connect 15 0 45 2;
#X connect 15 0 46 2;
#X connect 16 0 17 0;
#X connect 17 0 35 0;
#X connect 18 0 19 0;
#X connect 19 0 27 0;
#X connect 23 0 31 0;
#X connect 24 0 23 1;
#X connect 25 0 28 0;
#X connect 26 0 24 1;
#X connect 26 0 25 1;
#X connect 27 0 26 1;
#X connect 29 0 25 0;
#X connect 30 0 23 0;
#X connect 33 0 36 0;
#X connect 34 0 37 0;
#X connect 35 0 12 0;
#X connect 36 0 11 0;
#X connect 37 0 16 0;
#X connect 38 0 18 0;
#X connect 39 0 4 0;
#X connect 39 1 6 1;
#X connect 40 0 39 0;
#X connect 40 1 41 0;
#X connect 41 0 6 1;
#X connect 42 0 43 1;
#X connect 43 0 24 0;
#X connect 43 0 26 0;
#X connect 44 0 38 0;
#X connect 45 0 43 0;
#X connect 46 0 43 1;
#X connect 47 0 48 0;
#X connect 49 0 0 1;
