#N canvas 287 477 680 479 10;
#X obj 314 14 r mark-all\$1;
#X obj 446 212 + 12;
#X obj 485 212 + 24;
#X obj 314 74 list append \$1;
#X obj 447 175 unpack;
#X obj 448 238 pack;
#X obj 495 237 pack;
#X msg 448 275 \; cf\$2bbase \$1;
#X msg 448 318 \; cf\$2cbase \$1;
#X obj 520 50 r mark-alloff\$1;
#X obj 519 98 float \$1;
#X obj 520 71 b;
#X msg 519 120 \; cf\$1mark 0 \; cf\$1bmark 0 \; cf\$1cmark 0;
#X msg 314 159 \; cf\$8mark 1 \; cf\$8base \$1 \; cf\$8range \$2 \;
cf\$8tempo \$3 \; cf\$8seq \$4 \; cf\$8line \$5 \; cf\$8order \$6 \;
cf\$8ost \$7 \; cf\$8bmark 1 \; cf\$8brange \$2 \; cf\$8btempo \$3
\; cf\$8bseq \$4 \; cf\$8bline \$5 \; cf\$8border \$6 \; cf\$8bost
\$7 \; cf\$8cmark 1 \; cf\$8crange \$2 \; cf\$8ctempo \$3 \; cf\$8cseq
\$4 \; cf\$8cline \$5 \; cf\$8corder \$6 \; cf\$8cost \$7;
#X msg 447 154 \$1 \$8;
#X obj 101 79 unpack;
#X obj 145 110 * 0.9;
#X obj 191 111 * 0.8;
#X obj 102 137 pack 0 0 0 0 \$1;
#X msg 101 167 \; pitch\$5 \$1 \; amp\$5 \$2 \; bw\$5 30 \; amp\$5b
\$3 \; bw\$5b 30 \; amp\$5c \$4 \; bw\$5c 30;
#X obj 102 52 r pafpitchamp\$1;
#X obj 111 293 r pafoff\$1;
#X obj 111 314 f;
#X obj 111 335 pack 0 \$1;
#X msg 111 360 \; amp\$2 0 \$1 \; amp\$2b 0 \$1 \; amp\$2c 0 \$1;
#X obj 314 46 t l b;
#X connect 0 0 25 0;
#X connect 1 0 5 0;
#X connect 2 0 6 0;
#X connect 3 0 14 0;
#X connect 3 0 13 0;
#X connect 4 0 1 0;
#X connect 4 0 2 0;
#X connect 4 1 5 1;
#X connect 4 1 6 1;
#X connect 5 0 7 0;
#X connect 6 0 8 0;
#X connect 9 0 11 0;
#X connect 10 0 12 0;
#X connect 11 0 10 0;
#X connect 14 0 4 0;
#X connect 15 0 18 0;
#X connect 15 1 16 0;
#X connect 15 1 17 0;
#X connect 15 1 18 1;
#X connect 16 0 18 2;
#X connect 17 0 18 3;
#X connect 18 0 19 0;
#X connect 20 0 15 0;
#X connect 21 0 22 0;
#X connect 22 0 23 0;
#X connect 23 0 24 0;
#X connect 25 0 3 0;
#X connect 25 1 11 0;
