#N canvas 238 88 504 537 12;
#X obj 156 191 until;
#X msg 156 212 next;
#X obj 276 179 r section-patchname;
#X obj 226 179 symbol;
#X msg 226 201 traverse \$1;
#X obj 156 251 pointer t_tmarker;
#X obj 171 319 moses;
#X obj 123 76 inlet;
#X obj 122 104 t b b b f;
#X obj 168 372 f;
#X obj 169 344 t b f;
#X obj 80 436 f;
#X obj 114 436 f;
#X text 169 73 X value;
#X obj 127 361 0;
#X obj 69 467 outlet;
#X obj 125 468 outlet;
#X text 67 488 event;
#X text 125 488 event's X value;
#X obj 172 289 get t_tmarker x label;
#X obj 204 107 + 1;
#X obj 170 165 1000;
#X connect 0 0 1 0;
#X connect 1 0 5 0;
#X connect 2 0 3 1;
#X connect 3 0 4 0;
#X connect 4 0 5 0;
#X connect 5 0 19 0;
#X connect 5 2 0 1;
#X connect 6 0 10 0;
#X connect 7 0 8 0;
#X connect 8 0 11 0;
#X connect 8 0 12 0;
#X connect 8 1 21 0;
#X connect 8 2 3 0;
#X connect 8 2 14 0;
#X connect 8 3 20 0;
#X connect 9 0 11 1;
#X connect 10 0 9 0;
#X connect 10 1 12 1;
#X connect 11 0 15 0;
#X connect 12 0 16 0;
#X connect 14 0 11 1;
#X connect 14 0 12 1;
#X connect 19 0 6 0;
#X connect 19 1 9 1;
#X connect 20 0 6 1;
#X connect 21 0 0 0;
