#N canvas 194 181 410 469 10;
#X obj 145 221 line~;
#X obj 138 168 unpack;
#X obj 138 120 r \$1;
#X text 22 48 \$1 is the name of the receive symbol.;
#X obj 138 143 t l b;
#X obj 114 194 * 0.01;
#X obj 264 153 f \$2;
#X obj 264 177 sel 0;
#X obj 186 168 f;
#X obj 264 129 loadbang;
#X obj 264 199 20;
#X text 21 67 If no time value is given \, \$2 (default 20) is used.
;
#X text 20 10 cross-fade between two signals \, using approximately
equal power.;
#X obj 145 282 *~;
#X obj 219 310 *~ 2;
#X obj 215 241 inlet~;
#X obj 274 241 inlet~;
#X obj 219 339 -~;
#X obj 146 375 *~;
#X obj 117 376 -~;
#X obj 219 373 *~;
#X obj 117 410 +~;
#X obj 117 433 outlet~;
#X connect 0 0 13 0;
#X connect 0 0 13 1;
#X connect 0 0 14 0;
#X connect 1 0 5 0;
#X connect 1 1 0 1;
#X connect 2 0 4 0;
#X connect 4 0 1 0;
#X connect 4 1 8 0;
#X connect 5 0 0 0;
#X connect 6 0 7 0;
#X connect 7 0 10 0;
#X connect 7 1 8 1;
#X connect 8 0 0 1;
#X connect 9 0 6 0;
#X connect 10 0 8 1;
#X connect 13 0 17 1;
#X connect 13 0 18 0;
#X connect 14 0 17 0;
#X connect 15 0 18 1;
#X connect 15 0 19 0;
#X connect 16 0 20 1;
#X connect 17 0 20 0;
#X connect 18 0 19 1;
#X connect 19 0 21 0;
#X connect 20 0 21 1;
#X connect 21 0 22 0;
