#N canvas 503 107 628 599 10;
#X obj 327 368 pack 0 11;
#X obj 31 426 line~;
#X obj 14 448 *~;
#X obj 15 397 osc~;
#X obj 15 469 rampdown~;
#X obj 397 368 r jack-amptc;
#X obj 162 285 r jack-gliss;
#X obj 79 327 pack 0 0;
#X obj 15 373 line~;
#X obj 372 230 * 0;
#X obj 372 254 tabread4 fft-table;
#X obj 407 229 r jack-spectout;
#X obj 327 184 f;
#X obj 327 209 moses 1;
#X obj 327 232 b;
#X obj 327 253 0;
#X obj 432 276 r jack-depth;
#X obj 334 396 r jack-clear;
#X msg 324 444 0;
#X obj 324 418 b;
#X obj 432 299 / 100;
#X obj 328 344 expr $f1*$f1;
#X obj 277 99 b;
#X obj 372 280 sqrt;
#X obj 396 180 sqrt;
#X obj 530 250 r jack-thresh;
#X obj 530 273 dbtorms;
#X obj 328 323 expr $f3*$f1*($f2>$f4)+(1-$f3)*$f2;
#X obj 529 294 sqrt;
#X obj 76 378 print track;
#X obj 77 357 spigot;
#X obj 129 358 tgl 15 0 empty empty empty 17 7 0 10 -262144 -1 -1 0
1;
#X obj 81 41 route \$2;
#X obj 81 21 r jack-bank-\$1;
#X obj 15 490 throw~ jack-sum-\$1;
#X obj 277 77 r jack-clock-\$1;
#X text 89 65 peak-age \, freq \, amp;
#X obj 81 90 route 0 1;
#X obj 85 117 unpack;
#X obj 8 74 b;
#X obj 8 96 0;
#X obj 138 118 t f b;
#X obj 8 117 t f f;
#X text 281 118 amp control without updating freqs;
#X text 323 101 send this to continue "fft";
#X obj 266 25 spigot;
#X obj 318 26 tgl 15 0 empty empty empty 17 7 0 10 -262144 -1 -1 0
1;
#X obj 267 48 print in;
#X obj 181 118 unpack 0 0 0;
#X obj 14 284 expr $f1*$f2+$f3;
#X obj 132 284 f;
#X obj 207 307 b;
#X obj 207 329 0;
#X obj 140 222 t f b;
#X obj 14 233 t b f b;
#X obj 73 221 t b f b;
#X obj 182 223 t f b;
#X obj 14 163 r jack-mpy\$1;
#X obj 73 177 r jack-shift\$1;
#X obj 14 210 * 0.01;
#X msg 445 472 0;
#X obj 445 407 r jack-fade\$1;
#X obj 498 450 == 0;
#X obj 445 450 spigot;
#X obj 497 427 r jack-snapfn;
#X obj 14 186 line;
#X obj 72 200 line;
#X connect 0 0 1 0;
#X connect 1 0 2 1;
#X connect 2 0 4 0;
#X connect 3 0 2 0;
#X connect 4 0 34 0;
#X connect 5 0 0 1;
#X connect 6 0 50 1;
#X connect 7 0 30 0;
#X connect 7 0 8 0;
#X connect 8 0 3 0;
#X connect 9 0 10 0;
#X connect 10 0 23 0;
#X connect 11 0 9 1;
#X connect 12 0 13 0;
#X connect 13 0 14 0;
#X connect 13 1 9 0;
#X connect 14 0 15 0;
#X connect 15 0 27 0;
#X connect 16 0 20 0;
#X connect 17 0 19 0;
#X connect 18 0 1 0;
#X connect 18 0 27 1;
#X connect 19 0 4 1;
#X connect 19 0 18 0;
#X connect 20 0 27 2;
#X connect 21 0 0 0;
#X connect 22 0 12 0;
#X connect 23 0 27 0;
#X connect 24 0 27 1;
#X connect 25 0 26 0;
#X connect 26 0 28 0;
#X connect 27 0 21 0;
#X connect 28 0 27 3;
#X connect 30 0 29 0;
#X connect 31 0 30 1;
#X connect 32 0 37 0;
#X connect 32 0 45 0;
#X connect 33 0 32 0;
#X connect 35 0 22 0;
#X connect 37 0 39 0;
#X connect 37 1 38 0;
#X connect 37 2 48 0;
#X connect 38 0 12 0;
#X connect 38 0 53 0;
#X connect 38 1 41 0;
#X connect 39 0 40 0;
#X connect 40 0 42 0;
#X connect 41 0 24 0;
#X connect 41 1 19 0;
#X connect 42 0 12 0;
#X connect 42 1 24 0;
#X connect 45 0 47 0;
#X connect 46 0 45 1;
#X connect 48 1 12 0;
#X connect 48 1 56 0;
#X connect 48 2 24 0;
#X connect 49 0 7 0;
#X connect 50 0 7 1;
#X connect 51 0 52 0;
#X connect 52 0 7 1;
#X connect 53 0 49 0;
#X connect 53 1 51 0;
#X connect 54 0 49 0;
#X connect 54 1 49 1;
#X connect 54 2 50 0;
#X connect 55 0 49 0;
#X connect 55 1 49 2;
#X connect 55 2 50 0;
#X connect 56 0 49 0;
#X connect 56 1 50 0;
#X connect 57 0 65 0;
#X connect 58 0 66 0;
#X connect 59 0 54 0;
#X connect 60 0 27 1;
#X connect 61 0 63 0;
#X connect 62 0 63 1;
#X connect 63 0 60 0;
#X connect 64 0 62 0;
#X connect 65 0 59 0;
#X connect 66 0 55 0;
