#N canvas 2 58 1009 634 16;
#X floatatom 109 57 6 0 0 0 - - -, f 6;
#X obj 108 90 phasor~;
#X obj 93 189 *~ 440;
#X obj 93 218 +~ 440;
#X obj 93 247 osc~;
#X obj 92 293 output~;
#X obj 127 139 samphold~;
#X floatatom 227 61 5 0 0 0 - - -, f 5;
#X obj 226 94 phasor~;
#N canvas 0 50 450 250 (subpatch) 0;
#X array array1 220500 float 2;
#X coords 0 1 220500 -1 800 140 1 0 0;
#X restore 49 402 graph;
#X obj 226 231 tabwrite~ array1;
#X obj 223 200 bng 15 250 50 0 empty empty empty 17 7 0 10 -262144
-1 -1;
#X obj 561 334 output~;
#X obj 755 268 *~;
#X obj 846 244 *~;
#X obj 850 202 line~;
#X obj 499 31 tgl 15 0 empty empty empty 17 7 0 10 -262144 -1 -1 1
1;
#X msg 848 162 1 \, 0 500;
#X msg 754 178 -0.25;
#X obj 722 211 osc~ 2000;
#X obj 764 147 b;
#X obj 798 5 tgl 15 0 empty empty empty 17 7 0 10 -262144 -1 -1 1 1
;
#X obj 501 62 metro 1000;
#X obj 796 32 metro 618;
#X obj 501 273 *~;
#X obj 592 249 *~;
#X obj 596 207 line~;
#X msg 594 167 1 \, 0 500;
#X msg 500 183 -0.25;
#X obj 517 140 b;
#X obj 468 216 osc~ 1000;
#X obj 705 94 tgl 15 0 empty empty empty 17 7 0 10 -262144 -1 -1 0
1;
#X obj 742 119 spigot;
#X msg 497 98 1;
#X msg 699 52 0;
#X obj 787 62 t b b;
#X connect 0 0 1 0;
#X connect 1 0 6 0;
#X connect 2 0 3 0;
#X connect 3 0 4 0;
#X connect 4 0 5 0;
#X connect 4 0 5 1;
#X connect 6 0 2 0;
#X connect 7 0 8 0;
#X connect 8 0 6 1;
#X connect 11 0 10 0;
#X connect 13 0 12 0;
#X connect 13 0 12 1;
#X connect 14 0 13 1;
#X connect 15 0 14 0;
#X connect 15 0 14 1;
#X connect 16 0 22 0;
#X connect 17 0 15 0;
#X connect 18 0 19 1;
#X connect 19 0 13 0;
#X connect 20 0 17 0;
#X connect 20 0 18 0;
#X connect 21 0 23 0;
#X connect 22 0 33 0;
#X connect 22 0 20 0;
#X connect 23 0 35 0;
#X connect 24 0 12 0;
#X connect 24 0 12 1;
#X connect 25 0 24 1;
#X connect 26 0 25 0;
#X connect 26 0 25 1;
#X connect 27 0 26 0;
#X connect 28 0 30 1;
#X connect 29 0 27 0;
#X connect 29 0 28 0;
#X connect 30 0 24 0;
#X connect 31 0 10 0;
#X connect 31 0 32 1;
#X connect 32 0 20 0;
#X connect 33 0 31 0;
#X connect 34 0 31 0;
#X connect 35 0 34 0;
#X connect 35 1 32 0;
