#N canvas 495 58 783 924 12;
#X text 101 24 slide a parameter up and down;
#X obj 356 19 genctl \$1-updown-on;
#X obj 356 41 genctl \$1-updown-oneshot;
#X obj 356 107 genctl \$1-updown-low;
#X obj 356 129 genctl \$1-updown-high;
#X obj 356 151 genctl \$1-updown-ramp 100;
#X obj 356 63 genctl \$1-updown-time 100;
#X floatatom 105 157 5 0 1000 1 time #1-updown-time-set #1-updown-time
;
#X obj 105 123 tgl 15 0 \$1-updown-on \$1-updown-on-set on 17 7 0 12
-262144 -1 -1 0 1;
#X obj 105 140 tgl 15 0 \$1-updown-oneshot \$1-updown-oneshot-set oneshot
17 7 0 12 -262144 -1 -1 0 1;
#X floatatom 105 175 5 0 100 1 rand #1-updown-rand-set #1-updown-rand
;
#X obj 356 85 genctl \$1-updown-rand;
#X floatatom 105 193 5 0 1000 1 low #1-updown-low-set #1-updown-low
;
#X floatatom 105 211 5 0 1000 1 high #1-updown-high-set #1-updown-high
;
#X floatatom 105 229 5 0 100 1 ramp #1-updown-ramp-set #1-updown-ramp
;
#X msg 385 319 0;
#X obj 385 344 s auto-register-\$1;
#X msg 415 319 1 markov;
#X obj 251 260 sel 0 1;
#X obj 204 623 pack;
#X obj 251 185 r \$1-updown-on;
#X obj 251 210 f;
#X obj 251 236 != 0;
#X obj 215 312 del;
#X msg 220 286 stop;
#X obj 320 504 r \$1-updown-time;
#X obj 285 407 f;
#X obj 343 376 r \$1-updown-rand;
#X obj 215 408 f;
#X obj 321 347 1;
#X obj 215 434 sel 0 1;
#X obj 285 503 *;
#X obj 285 432 t f b;
#X obj 437 431 random 10000;
#X obj 437 454 / 10000;
#X obj 286 479 expr 1-$f1+$f1*$f2*$f2*$f2*4;
#X obj 320 527 line;
#X obj 343 400 line;
#X obj 284 593 *;
#X obj 320 617 line;
#X obj 319 594 r \$1-updown-ramp;
#X obj 321 641 * 0.01;
#X obj 245 409 == 0;
#X obj 145 498 line;
#X obj 144 475 r \$1-updown-high;
#X obj 145 527 f;
#X obj 91 478 line;
#X obj 91 507 f;
#X obj 90 455 r \$1-updown-low;
#X obj 203 683 r \$1-updown-oneshot;
#X obj 202 706 f;
#X obj 148 704 spigot;
#X msg 148 730 0;
#X obj 149 754 s \$1-updown-on;
#X obj 320 550 * 10;
#X obj 254 354 t b b;
#X obj 275 314 t b b;
#X obj 343 422 / 100;
#X obj 120 292 r \$1-set;
#X obj 61 382 f;
#X obj 61 406 s \$1;
#X obj 61 296 change;
#X obj 61 319 sel 0;
#X obj 119 320 list;
#X obj 118 350 unpack s 0;
#X floatatom 74 667 5 0 0 0 - - -;
#X obj 204 646 s auto-param-\$1;
#X obj 426 642 r \$1-updown;
#X obj 427 851 s \$1-updown-on;
#X obj 447 822 s \$1-updown-time;
#X obj 463 798 s \$1-updown-rand;
#X obj 490 775 s \$1-updown-low;
#X obj 530 745 s \$1-updown-high;
#X obj 557 722 s \$1-updown-ramp;
#X obj 426 669 unpack 0 0 0 0 0 0 0;
#X obj 584 697 s \$1-updown-oneshot;
#X connect 15 0 16 0;
#X connect 17 0 16 0;
#X connect 18 0 15 0;
#X connect 18 0 24 0;
#X connect 18 1 17 0;
#X connect 18 1 56 0;
#X connect 19 0 66 0;
#X connect 20 0 21 0;
#X connect 21 0 22 0;
#X connect 22 0 18 0;
#X connect 22 0 61 0;
#X connect 23 0 55 0;
#X connect 24 0 23 0;
#X connect 25 0 36 0;
#X connect 26 0 32 0;
#X connect 27 0 37 0;
#X connect 28 0 30 0;
#X connect 28 0 42 0;
#X connect 29 0 28 1;
#X connect 30 0 47 0;
#X connect 30 0 51 0;
#X connect 30 1 45 0;
#X connect 31 0 23 0;
#X connect 31 0 38 0;
#X connect 32 0 35 0;
#X connect 32 1 33 0;
#X connect 33 0 34 0;
#X connect 34 0 35 1;
#X connect 35 0 31 0;
#X connect 36 0 54 0;
#X connect 37 0 57 0;
#X connect 38 0 19 1;
#X connect 39 0 41 0;
#X connect 40 0 39 0;
#X connect 41 0 38 1;
#X connect 42 0 28 1;
#X connect 43 0 45 1;
#X connect 44 0 43 0;
#X connect 45 0 19 0;
#X connect 46 0 47 1;
#X connect 47 0 19 0;
#X connect 48 0 46 0;
#X connect 49 0 50 0;
#X connect 50 0 51 1;
#X connect 51 0 52 0;
#X connect 52 0 53 0;
#X connect 54 0 31 1;
#X connect 55 0 28 0;
#X connect 55 1 26 0;
#X connect 56 0 55 0;
#X connect 56 1 29 0;
#X connect 57 0 26 1;
#X connect 58 0 63 0;
#X connect 59 0 60 0;
#X connect 61 0 62 0;
#X connect 62 0 59 0;
#X connect 63 0 64 0;
#X connect 64 1 59 1;
#X connect 67 0 74 0;
#X connect 74 0 68 0;
#X connect 74 1 69 0;
#X connect 74 2 70 0;
#X connect 74 3 71 0;
#X connect 74 4 72 0;
#X connect 74 5 73 0;
#X connect 74 6 75 0;
#X coords 0 -1 1 1 80 150 1 100 100;
