#N canvas 524 114 450 300 12;
#X obj 70 148 text;
#X msg 70 10 clear;
#X msg 78 35 add a b c;
#X msg 87 62 print;
#X msg 97 91 open;
#X msg 103 118 close;
#X connect 1 0 0 0;
#X connect 2 0 0 0;
#X connect 3 0 0 0;
#X connect 4 0 0 0;
#X connect 5 0 0 0;
