#N canvas 0 22 450 300 10;
#X obj 44 126 line~;
#X obj 44 148 *~;
#X floatatom 44 20 5 0 50 0 - fader_#1 -, f 5;
#X obj 44 39 / 50;
#X obj 44 61 expr $f1*$f1;
#X floatatom 44 83 5 0 0 0 - - -, f 5;
#X obj 44 181 outlet~;
#X obj 44 102 pack 0 50;
#X connect 0 0 1 0;
#X connect 0 0 1 1;
#X connect 1 0 6 0;
#X connect 2 0 3 0;
#X connect 3 0 4 0;
#X connect 4 0 5 0;
#X connect 5 0 7 0;
#X connect 7 0 0 0;
