#N canvas 95 23 1015 696 10;
#X obj -61 192 output~;
#X obj 240 85 pousse_osc 3;
#X obj 240 178 pousse_phasor 6;
#X obj 23 375 record2;
#N canvas 25 23 741 731 MIDIcontrols 1;
#X floatatom 30 49 5 0 50 0 - - -, f 5;
#X obj 30 68 s fader_1;
#X floatatom 31 113 5 0 50 0 - - -, f 5;
#X obj 31 132 s fader_2;
#X floatatom 31 178 5 0 50 0 - - -, f 5;
#X floatatom 32 242 5 0 50 0 - - -, f 5;
#X obj 31 197 s fader_3;
#X obj 32 261 s fader_4;
#X floatatom 122 48 5 0 50 0 - - -, f 5;
#X floatatom 123 112 5 0 50 0 - - -, f 5;
#X floatatom 123 177 5 0 50 0 - - -, f 5;
#X floatatom 124 241 5 0 50 0 - - -, f 5;
#X obj 122 67 s fader_5;
#X obj 123 131 s fader_6;
#X obj 123 196 s fader_7;
#X obj 124 260 s fader_8;
#X obj 30 28 ctlin 81 1;
#X obj 30 91 ctlin 82 1;
#X obj 31 156 ctlin 83 1;
#X obj 31 221 ctlin 84 1;
#X obj 122 27 ctlin 85 1;
#X obj 122 90 ctlin 86 1;
#X obj 123 155 ctlin 87 1;
#X obj 123 220 ctlin 88 1;
#X floatatom 36 444 5 0 50 0 - - -, f 5;
#X floatatom 37 604 5 0 50 0 - - -, f 5;
#X obj 37 673 s plus_1;
#X floatatom 35 359 5 1 50 0 - - -, f 5;
#X obj 35 378 s Q_1;
#X floatatom 363 50 5 0 0 0 - - -, f 5;
#X obj 363 29 ctlin 81 1;
#X obj 363 69 s panner_1;
#X obj 36 543 s times_1;
#X obj 35 338 ctlin 1 1;
#X obj 36 423 ctlin 9 1;
#X obj 37 583 ctlin 17 1;
#X floatatom 109 360 5 1 50 0 - - -, f 5;
#X floatatom 181 359 5 1 50 0 - - -, f 5;
#X floatatom 255 360 5 1 50 0 - - -, f 5;
#X floatatom 332 360 5 1 50 0 - - -, f 5;
#X floatatom 406 361 5 1 50 0 - - -, f 5;
#X floatatom 478 360 5 1 50 0 - - -, f 5;
#X floatatom 552 361 5 1 50 0 - - -, f 5;
#X obj 109 339 ctlin 2 1;
#X obj 181 338 ctlin 3 1;
#X obj 255 339 ctlin 4 1;
#X obj 332 339 ctlin 5 1;
#X obj 406 340 ctlin 6 1;
#X obj 478 339 ctlin 7 1;
#X obj 552 340 ctlin 8 1;
#X obj 109 379 s Q_2;
#X obj 181 378 s Q_3;
#X obj 255 379 s Q_4;
#X obj 332 379 s Q_5;
#X obj 406 380 s Q_6;
#X obj 478 379 s Q_7;
#X obj 552 380 s Q_8;
#X text 32 309 NOISE;
#X text 180 311 OSC;
#X text 408 316 PHASOR;
#X floatatom 111 444 5 0 50 0 - - -, f 5;
#X floatatom 181 444 5 0 50 0 - - -, f 5;
#X floatatom 256 444 5 0 50 0 - - -, f 5;
#X floatatom 329 445 5 0 50 0 - - -, f 5;
#X floatatom 404 445 5 0 50 0 - - -, f 5;
#X floatatom 474 445 5 0 50 0 - - -, f 5;
#X floatatom 549 445 5 0 50 0 - - -, f 5;
#X obj 111 423 ctlin 10 1;
#X obj 181 423 ctlin 11 1;
#X obj 256 423 ctlin 12 1;
#X obj 329 424 ctlin 13 1;
#X obj 404 424 ctlin 14 1;
#X obj 474 424 ctlin 15 1;
#X obj 549 424 ctlin 16 1;
#X obj 111 543 s times_2;
#X obj 181 543 s times_3;
#X obj 256 543 s times_4;
#X obj 329 544 s times_5;
#X obj 404 544 s times_6;
#X obj 474 544 s times_7;
#X obj 549 544 s times_8;
#X floatatom 113 604 5 0 50 0 - - -, f 5;
#X floatatom 185 604 5 0 50 0 - - -, f 5;
#X floatatom 261 604 5 0 50 0 - - -, f 5;
#X floatatom 332 604 5 0 50 0 - - -, f 5;
#X floatatom 408 604 5 0 50 0 - - -, f 5;
#X floatatom 480 604 5 0 50 0 - - -, f 5;
#X floatatom 556 604 5 0 50 0 - - -, f 5;
#X obj 113 583 ctlin 18 1;
#X obj 185 583 ctlin 19 1;
#X obj 261 583 ctlin 20 1;
#X obj 332 583 ctlin 21 1;
#X obj 408 583 ctlin 22 1;
#X obj 480 583 ctlin 23 1;
#X obj 556 583 ctlin 24 1;
#X obj 113 673 s plus_2;
#X obj 185 673 s plus_3;
#X obj 261 673 s plus_4;
#X obj 332 673 s plus_5;
#X obj 408 673 s plus_6;
#X obj 480 673 s plus_7;
#X obj 556 673 s plus_8;
#X floatatom 36 511 5 0 0 0 - - -, f 5;
#X obj 36 466 - 63;
#X obj 36 488 * 2;
#X floatatom 116 515 5 0 0 0 - - -, f 5;
#X obj 116 470 - 63;
#X obj 116 492 * 2;
#X floatatom 189 517 5 0 0 0 - - -, f 5;
#X obj 189 472 - 63;
#X obj 189 494 * 2;
#X floatatom 277 518 5 0 0 0 - - -, f 5;
#X obj 277 473 - 63;
#X obj 277 495 * 2;
#X floatatom 350 520 5 0 0 0 - - -, f 5;
#X obj 350 475 - 63;
#X obj 350 497 * 2;
#X floatatom 422 518 5 0 0 0 - - -, f 5;
#X obj 422 473 - 63;
#X obj 422 495 * 2;
#X floatatom 510 519 5 0 0 0 - - -, f 5;
#X obj 510 474 - 63;
#X obj 510 496 * 2;
#X floatatom 583 521 5 0 0 0 - - -, f 5;
#X obj 583 476 - 63;
#X obj 583 498 * 2;
#X obj 19 638 * 2;
#X obj 121 641 * 2;
#X obj 191 638 * 2;
#X obj 293 641 * 2;
#X obj 340 638 * 2;
#X obj 442 641 * 2;
#X obj 512 638 * 2;
#X obj 614 641 * 2;
#X connect 0 0 1 0;
#X connect 2 0 3 0;
#X connect 4 0 6 0;
#X connect 5 0 7 0;
#X connect 8 0 12 0;
#X connect 9 0 13 0;
#X connect 10 0 14 0;
#X connect 11 0 15 0;
#X connect 16 0 0 0;
#X connect 17 0 2 0;
#X connect 18 0 4 0;
#X connect 19 0 5 0;
#X connect 20 0 8 0;
#X connect 21 0 9 0;
#X connect 22 0 10 0;
#X connect 23 0 11 0;
#X connect 24 0 103 0;
#X connect 25 0 126 0;
#X connect 27 0 28 0;
#X connect 29 0 31 0;
#X connect 30 0 29 0;
#X connect 33 0 27 0;
#X connect 34 0 24 0;
#X connect 35 0 25 0;
#X connect 36 0 50 0;
#X connect 37 0 51 0;
#X connect 38 0 52 0;
#X connect 39 0 53 0;
#X connect 40 0 54 0;
#X connect 41 0 55 0;
#X connect 42 0 56 0;
#X connect 43 0 36 0;
#X connect 44 0 37 0;
#X connect 45 0 38 0;
#X connect 46 0 39 0;
#X connect 47 0 40 0;
#X connect 48 0 41 0;
#X connect 49 0 42 0;
#X connect 60 0 106 0;
#X connect 61 0 109 0;
#X connect 62 0 112 0;
#X connect 63 0 115 0;
#X connect 64 0 118 0;
#X connect 65 0 121 0;
#X connect 66 0 124 0;
#X connect 67 0 60 0;
#X connect 68 0 61 0;
#X connect 69 0 62 0;
#X connect 70 0 63 0;
#X connect 71 0 64 0;
#X connect 72 0 65 0;
#X connect 73 0 66 0;
#X connect 81 0 127 0;
#X connect 82 0 128 0;
#X connect 83 0 129 0;
#X connect 84 0 130 0;
#X connect 85 0 131 0;
#X connect 86 0 132 0;
#X connect 87 0 133 0;
#X connect 88 0 81 0;
#X connect 89 0 82 0;
#X connect 90 0 83 0;
#X connect 91 0 84 0;
#X connect 92 0 85 0;
#X connect 93 0 86 0;
#X connect 94 0 87 0;
#X connect 102 0 32 0;
#X connect 103 0 104 0;
#X connect 104 0 102 0;
#X connect 105 0 74 0;
#X connect 106 0 107 0;
#X connect 107 0 105 0;
#X connect 108 0 75 0;
#X connect 109 0 110 0;
#X connect 110 0 108 0;
#X connect 111 0 76 0;
#X connect 112 0 113 0;
#X connect 113 0 111 0;
#X connect 114 0 77 0;
#X connect 115 0 116 0;
#X connect 116 0 114 0;
#X connect 117 0 78 0;
#X connect 118 0 119 0;
#X connect 119 0 117 0;
#X connect 120 0 79 0;
#X connect 121 0 122 0;
#X connect 122 0 120 0;
#X connect 123 0 80 0;
#X connect 124 0 125 0;
#X connect 125 0 123 0;
#X connect 126 0 26 0;
#X connect 127 0 95 0;
#X connect 128 0 96 0;
#X connect 129 0 97 0;
#X connect 130 0 98 0;
#X connect 131 0 99 0;
#X connect 132 0 100 0;
#X connect 133 0 101 0;
#X restore 380 31 pd MIDIcontrols;
#X floatatom 584 429 5 0 0 0 - - -, f 5;
#X floatatom 681 429 5 0 0 0 - - -, f 5;
#X obj 584 285 vsl 15 128 0 500 0 0 empty empty empty 0 -9 0 10 -33289
-4034 -1 787 1;
#X obj 681 285 vsl 15 128 0 500 0 0 empty empty empty 0 -9 0 10 -33289
-4034 -1 635 1;
#X floatatom 380 217 5 0 0 0 - - -, f 5;
#X floatatom 477 217 5 0 0 0 - - -, f 5;
#X obj 380 73 vsl 15 128 0 500 0 0 empty empty empty 0 -9 0 10 -33289
-4034 -1 787 1;
#X obj 477 73 vsl 15 128 0 500 0 0 empty empty empty 0 -9 0 10 -33289
-4034 -1 635 1;
#X floatatom 584 217 5 0 0 0 - - -, f 5;
#X floatatom 681 217 5 0 0 0 - - -, f 5;
#X obj 584 73 vsl 15 128 0 500 0 0 empty empty empty 0 -9 0 10 -33289
-4034 -1 787 1;
#X obj 681 73 vsl 15 128 0 500 0 0 empty empty empty 0 -9 0 10 -33289
-4034 -1 635 1;
#X floatatom 791 218 5 0 0 0 - - -, f 5;
#X floatatom 888 218 5 0 0 0 - - -, f 5;
#X obj 791 74 vsl 15 128 0 500 0 0 empty empty empty 0 -9 0 10 -33289
-4034 -1 787 1;
#X obj 888 74 vsl 15 128 0 500 0 0 empty empty empty 0 -9 0 10 -33289
-4034 -1 635 1;
#X floatatom 380 429 5 0 0 0 - - -, f 5;
#X floatatom 477 429 5 0 0 0 - - -, f 5;
#X obj 380 285 vsl 15 128 0 500 0 0 empty empty empty 0 -9 0 10 -33289
-4034 -1 787 1;
#X obj 477 285 vsl 15 128 0 500 0 0 empty empty empty 0 -9 0 10 -33289
-4034 -1 635 1;
#X obj 380 237 s sweepf1-set_1;
#X obj 477 237 s sweepf2-set_1;
#X obj 584 237 s sweepf1-set_2;
#X obj 681 237 s sweepf2-set_2;
#X obj 791 238 s sweepf1-set_3;
#X obj 888 238 s sweepf2-set_3;
#X obj 380 449 s sweepf1-set_4;
#X obj 477 449 s sweepf2-set_4;
#X obj 584 449 s sweepf1-set_5;
#X obj 681 449 s sweepf2-set_5;
#X floatatom 792 429 5 0 0 0 - - -, f 5;
#X floatatom 889 429 5 0 0 0 - - -, f 5;
#X obj 792 285 vsl 15 128 0 500 0 0 empty empty empty 0 -9 0 10 -33289
-4034 -1 787 1;
#X obj 889 285 vsl 15 128 0 500 0 0 empty empty empty 0 -9 0 10 -33289
-4034 -1 635 1;
#X obj 792 449 s sweepf1-set_6;
#X obj 889 449 s sweepf2-set_6;
#X floatatom 581 629 5 0 0 0 - - -, f 5;
#X floatatom 678 629 5 0 0 0 - - -, f 5;
#X obj 581 485 vsl 15 128 0 500 0 0 empty empty empty 0 -9 0 10 -33289
-4034 -1 787 1;
#X obj 678 485 vsl 15 128 0 500 0 0 empty empty empty 0 -9 0 10 -33289
-4034 -1 635 1;
#X floatatom 377 629 5 0 0 0 - - -, f 5;
#X floatatom 474 629 5 0 0 0 - - -, f 5;
#X obj 377 485 vsl 15 128 0 500 0 0 empty empty empty 0 -9 0 10 -33289
-4034 -1 787 1;
#X obj 474 485 vsl 15 128 0 500 0 0 empty empty empty 0 -9 0 10 -33289
-4034 -1 635 1;
#X obj 377 649 s sweepf1-set_7;
#X obj 474 649 s sweepf2-set_7;
#X obj 581 649 s sweepf1-set_8;
#X obj 678 649 s sweepf2-set_8;
#X obj 410 61 loadbang;
#X msg 410 83 31;
#X obj 506 55 loadbang;
#X msg 506 77 25;
#X obj 240 109 pousse_osc 4;
#X obj 240 134 pousse_osc 5;
#X obj 240 202 pousse_phasor 7;
#X obj 240 225 pousse_phasor 8;
#X obj 608 53 loadbang;
#X msg 608 75 31;
#X obj 818 49 loadbang;
#X msg 818 71 31;
#X obj 410 284 loadbang;
#X msg 410 306 31;
#X obj 608 276 loadbang;
#X msg 608 298 31;
#X obj 818 272 loadbang;
#X msg 818 294 31;
#X obj 708 51 loadbang;
#X msg 708 73 25;
#X obj 917 51 loadbang;
#X msg 917 73 25;
#X obj 507 287 loadbang;
#X msg 507 309 25;
#X obj 709 283 loadbang;
#X msg 709 305 25;
#X obj 918 283 loadbang;
#X msg 918 305 25;
#X obj 505 482 loadbang;
#X msg 505 504 25;
#X obj 707 478 loadbang;
#X msg 707 500 25;
#X obj 409 488 loadbang;
#X msg 409 510 31;
#X obj 607 480 loadbang;
#X msg 607 502 31;
#X obj 108 518 sqrt;
#X obj 227 577 rfft~;
#X text 144 521 apply to control values of plus/times;
#X obj -19 42 pousse_noise 1 59;
#X obj 113 44 pousse_noise 2 60;
#X connect 1 0 0 0;
#X connect 1 0 3 0;
#X connect 1 1 0 1;
#X connect 1 1 3 1;
#X connect 2 0 0 0;
#X connect 2 0 3 0;
#X connect 2 1 0 1;
#X connect 2 1 3 1;
#X connect 5 0 33 0;
#X connect 6 0 34 0;
#X connect 7 0 5 0;
#X connect 8 0 6 0;
#X connect 9 0 25 0;
#X connect 10 0 26 0;
#X connect 11 0 9 0;
#X connect 12 0 10 0;
#X connect 13 0 27 0;
#X connect 14 0 28 0;
#X connect 15 0 13 0;
#X connect 16 0 14 0;
#X connect 17 0 29 0;
#X connect 18 0 30 0;
#X connect 19 0 17 0;
#X connect 20 0 18 0;
#X connect 21 0 31 0;
#X connect 22 0 32 0;
#X connect 23 0 21 0;
#X connect 24 0 22 0;
#X connect 35 0 39 0;
#X connect 36 0 40 0;
#X connect 37 0 35 0;
#X connect 38 0 36 0;
#X connect 41 0 51 0;
#X connect 42 0 52 0;
#X connect 43 0 41 0;
#X connect 44 0 42 0;
#X connect 45 0 49 0;
#X connect 46 0 50 0;
#X connect 47 0 45 0;
#X connect 48 0 46 0;
#X connect 53 0 54 0;
#X connect 54 0 11 0;
#X connect 55 0 56 0;
#X connect 56 0 12 0;
#X connect 57 0 0 0;
#X connect 57 0 3 0;
#X connect 57 1 0 1;
#X connect 57 1 3 1;
#X connect 58 0 0 0;
#X connect 58 0 3 0;
#X connect 58 1 0 1;
#X connect 58 1 3 1;
#X connect 59 0 0 0;
#X connect 59 0 3 0;
#X connect 59 1 0 1;
#X connect 59 1 3 1;
#X connect 60 0 0 0;
#X connect 60 0 3 0;
#X connect 60 1 0 1;
#X connect 60 1 3 1;
#X connect 61 0 62 0;
#X connect 62 0 15 0;
#X connect 63 0 64 0;
#X connect 64 0 19 0;
#X connect 65 0 66 0;
#X connect 66 0 23 0;
#X connect 67 0 68 0;
#X connect 68 0 7 0;
#X connect 69 0 70 0;
#X connect 70 0 37 0;
#X connect 71 0 72 0;
#X connect 72 0 16 0;
#X connect 73 0 74 0;
#X connect 74 0 20 0;
#X connect 75 0 76 0;
#X connect 76 0 24 0;
#X connect 77 0 78 0;
#X connect 78 0 8 0;
#X connect 79 0 80 0;
#X connect 80 0 38 0;
#X connect 81 0 82 0;
#X connect 82 0 48 0;
#X connect 83 0 84 0;
#X connect 84 0 44 0;
#X connect 85 0 86 0;
#X connect 86 0 47 0;
#X connect 87 0 88 0;
#X connect 88 0 43 0;
#X connect 92 0 0 0;
#X connect 92 0 3 0;
#X connect 92 1 0 1;
#X connect 92 1 3 1;
#X connect 93 0 0 0;
#X connect 93 0 3 0;
#X connect 93 1 0 1;
#X connect 93 1 3 1;
