#N canvas 59 322 1204 707 12;
#X obj 53 158 twophase;
#N canvas 0 50 450 250 (subpatch) 0;
#X array fred_\$1 44100 float 2;
#X coords 0 1 44100 -1 1000 140 1 0 0;
#X restore 504 443 graph;
#X obj 517 302 tgl 15 0 empty empty empty 17 7 0 10 -262144 -1 -1 1
1;
#X obj 93 190 -~ 0.5;
#X obj 93 215 max~ 0;
#X obj 93 240 *~ 2;
#X obj 53 272 -~;
#X obj 56 89 phasor~;
#X obj 247 219 metro 200;
#X obj 247 244 snapshot~;
#X floatatom 247 269 7 0 0 0 - - -, f 7;
#X obj 288 194 tgl 15 0 empty empty empty 17 7 0 10 -262144 -1 -1 0
1;
#X obj 54 116 expr~ 1/(1/(0.00001+$f2) + $v1*(1/(0.00001+$f3)-1/(0.00001+$f2)))
;
#X obj 56 63 / 10;
#X obj 202 93 / 10;
#X obj 339 92 / 10;
#X obj 437 197 -~ 0.5;
#X obj 437 222 *~ 1e+20;
#X obj 415 307 +~;
#X obj 437 247 clip~ -0.3 0.3;
#X obj 55 37 f;
#X obj 202 66 f;
#X obj 340 67 f;
#X obj 917 42 loadbang;
#X obj 439 102 phasor~;
#X obj 437 129 expr~ 1/(1/(0.00001+$f2) + $v1*(1/(0.00001+$f3)-1/(0.00001+$f2)))
;
#X obj 439 76 / 10;
#X obj 585 106 / 10;
#X obj 722 105 / 10;
#X obj 438 50 f;
#X obj 585 79 f;
#X obj 723 80 f;
#X obj 829 221 setctl sweepf1;
#X obj 828 244 setctl beginf1;
#X obj 828 268 setctl endf1;
#X obj 826 301 setctl sweepf2;
#X obj 827 324 setctl beginf2;
#X obj 825 348 setctl endf2;
#X floatatom 657 215 5 0 1000 0 sweepf1 sweepf1-set_#1 sweepf1_#1,
f 5;
#X floatatom 657 235 5 0 1000 0 beginf1 beginf1-set beginf1_#1, f
5;
#X floatatom 657 255 5 0 1000 0 endf1 endf1-set endf1_#1, f 5;
#X floatatom 775 218 5 0 1000 0 sweepf2 sweepf2-set_#1 sweepf2_#1,
f 5;
#X floatatom 775 238 5 0 1000 0 beginf2 beginf2-set beginf2_#1, f
5;
#X floatatom 775 258 5 0 1000 0 endf2 endf2-set endf2_#1, f 5;
#X obj 436 171 twophase;
#X obj 415 355 *~;
#X floatatom 452 354 5 0 500 0 - times_#1 -, f 5;
#X floatatom 453 380 5 0 500 0 - plus_#1 -, f 5;
#X obj 416 381 +~;
#X obj 416 407 mtof~;
#X obj 516 324 metro 1002;
#X msg 916 67 \; pd dsp 1 \; init bang \; sweepf1 31 \; beginf1 97
\; endf1 800 \; sweepf2 25 \; beginf2 120 \; endf2 600;
#X obj 247 459 osc~;
#X obj 340 557 vcf~ 10;
#X obj 516 355 tabwrite~ fred_\$1;
#X obj 340 634 panner~;
#X obj 382 680 outlet~;
#X obj 312 680 outlet~;
#X obj 340 598 *~;
#X obj 413 578 fader \$1;
#X floatatom 399 529 5 0 0 0 - Q_#1 -, f 5;
#X obj 247 484 *~ 0.04;
#X obj 55 12 r sweepf1_\$1;
#X obj 438 25 r sweepf2_\$1;
#X floatatom 12 60 5 0 0 0 - - -, f 5;
#X obj 202 41 r beginf1;
#X obj 340 42 r endf1;
#X obj 585 54 r beginf2;
#X obj 723 55 r endf2;
#X connect 0 0 3 0;
#X connect 0 0 6 0;
#X connect 2 0 50 0;
#X connect 3 0 4 0;
#X connect 4 0 5 0;
#X connect 5 0 6 1;
#X connect 6 0 18 0;
#X connect 7 0 12 0;
#X connect 8 0 9 0;
#X connect 9 0 10 0;
#X connect 11 0 8 0;
#X connect 12 0 0 0;
#X connect 13 0 7 0;
#X connect 14 0 12 1;
#X connect 15 0 12 2;
#X connect 16 0 17 0;
#X connect 17 0 19 0;
#X connect 18 0 45 0;
#X connect 18 0 54 0;
#X connect 19 0 18 1;
#X connect 20 0 13 0;
#X connect 21 0 14 0;
#X connect 22 0 15 0;
#X connect 23 0 51 0;
#X connect 24 0 25 0;
#X connect 25 0 44 0;
#X connect 26 0 24 0;
#X connect 27 0 25 1;
#X connect 28 0 25 2;
#X connect 29 0 26 0;
#X connect 30 0 27 0;
#X connect 31 0 28 0;
#X connect 44 0 16 0;
#X connect 45 0 48 0;
#X connect 46 0 45 1;
#X connect 47 0 48 1;
#X connect 48 0 49 0;
#X connect 49 0 52 0;
#X connect 49 0 53 1;
#X connect 50 0 54 0;
#X connect 52 0 61 0;
#X connect 53 0 58 0;
#X connect 55 0 57 0;
#X connect 55 1 56 0;
#X connect 58 0 55 0;
#X connect 59 0 58 1;
#X connect 60 0 53 2;
#X connect 61 0 53 0;
#X connect 62 0 20 0;
#X connect 62 0 64 0;
#X connect 63 0 29 0;
#X connect 65 0 21 0;
#X connect 66 0 22 0;
#X connect 67 0 30 0;
#X connect 68 0 31 0;
