#N canvas 207 23 1047 717 12;
#X obj 53 158 twophase;
#N canvas 0 50 450 250 (subpatch) 0;
#X array fred_\$1 44100 float 2;
#X coords 0 1 44100 -1 1000 140 1 0 0;
#X restore 504 443 graph;
#X obj 510 275 tgl 15 0 empty empty empty 17 7 0 10 -262144 -1 -1 1
1;
#X obj 93 190 -~ 0.5;
#X obj 93 215 max~ 0;
#X obj 93 240 *~ 2;
#X obj 53 272 -~;
#X obj 56 89 phasor~;
#X obj 247 219 metro 200;
#X obj 247 244 snapshot~;
#X floatatom 247 269 7 0 0 0 - - -, f 7;
#X obj 288 194 tgl 15 0 empty empty empty 17 7 0 10 -262144 -1 -1 0
1;
#X obj 54 116 expr~ 1/(1/(0.00001+$f2) + $v1*(1/(0.00001+$f3)-1/(0.00001+$f2)))
;
#X obj 56 63 / 10;
#X obj 202 93 / 10;
#X obj 339 92 / 10;
#X obj 437 197 -~ 0.5;
#X obj 437 222 *~ 1e+20;
#X obj 415 307 +~;
#X obj 437 247 clip~ -0.3 0.3;
#X obj 55 37 f;
#X obj 202 66 f;
#X obj 340 67 f;
#X obj 917 42 loadbang;
#X obj 439 102 phasor~;
#X obj 437 129 expr~ 1/(1/(0.00001+$f2) + $v1*(1/(0.00001+$f3)-1/(0.00001+$f2)))
;
#X obj 439 76 / 10;
#X obj 585 106 / 10;
#X obj 722 105 / 10;
#X obj 438 50 f;
#X obj 585 79 f;
#X obj 723 80 f;
#X floatatom 657 215 5 0 1000 0 sweepf1 sweepf1-set_#1 sweepf1_#1,
f 5;
#X floatatom 657 235 5 0 1000 0 beginf1 beginf1-set beginf1_#1, f
5;
#X floatatom 657 255 5 0 1000 0 endf1 endf1-set endf1_#1, f 5;
#X floatatom 775 218 5 0 1000 0 sweepf2 sweepf2-set_#1 sweepf2_#1,
f 5;
#X floatatom 775 238 5 0 1000 0 beginf2 beginf2-set beginf2_#1, f
5;
#X floatatom 775 258 5 0 1000 0 endf2 endf2-set endf2_#1, f 5;
#X obj 436 171 twophase;
#X obj 415 355 *~;
#X floatatom 452 354 5 0 0 0 - times_#1 -, f 5;
#X floatatom 453 380 5 0 0 0 - plus_#1 -, f 5;
#X obj 416 381 +~;
#X obj 416 407 mtof~;
#X obj 318 428 noise~;
#X obj 509 297 metro 1002;
#X obj 340 504 vcf~ 10;
#X floatatom 400 471 5 0 0 0 - Q_#1 -, f 5;
#X obj 411 662 outlet~;
#X obj 340 662 outlet~;
#X text 502 355 times;
#X text 501 380 plus;
#X obj 340 627 panner~;
#X obj 509 328 tabwrite~ fred_\$1;
#X obj 413 578 fader \$1;
#X obj 55 12 r sweepf1_\$1;
#X obj 438 25 r sweepf2_\$1;
#X msg 916 67 \; pd dsp 1 \; init bang \; sweepf1 31 \; beginf1 97
\; endf1 800 \; sweepf2 25 \; beginf2 120 \; endf2 600;
#X floatatom 13 77 5 0 0 0 - - -, f 5;
#X obj 829 221 setctl sweepf1;
#X obj 829 244 setctl beginf1;
#X obj 829 268 setctl endf1;
#X obj 826 301 setctl sweepf2;
#X obj 826 324 setctl beginf2;
#X obj 826 348 setctl endf2;
#X obj 202 41 r beginf1;
#X obj 340 42 r endf1;
#X obj 585 54 r beginf2;
#X obj 723 55 r endf2;
#X obj 470 607 env~;
#X floatatom 470 632 5 0 0 0 - - -, f 5;
#X obj 26 414 unpack;
#X obj 26 377 pack;
#X obj 26 350 notein;
#X floatatom 27 583 5 0 0 0 - - -, f 5;
#X floatatom 173 566 5 0 0 0 - - -, f 5;
#X floatatom 131 374 5 0 0 0 - - -, f 5;
#X floatatom 74 388 5 0 0 0 - - -, f 5;
#X floatatom 178 622 5 0 0 0 - - -, f 5;
#X floatatom 229 623 5 0 0 0 - - -, f 5;
#X obj 27 519 expr $f1 \; if ($f1 == \$1 \, $f1 * 1 \, -0) \;;
#X obj 26 447 - \$2;
#X obj 177 588 moses 1;
#X obj 295 647 env~;
#X floatatom 295 672 5 0 0 0 - - -, f 5;
#X obj 340 599 *~;
#X obj 131 398 / 10;
#X obj 235 423 line;
#X obj 232 393 pack;
#X obj 286 334 bng 15 250 50 0 empty empty empty 17 7 0 10 -262144
-1 -1;
#X msg 277 375 50;
#X floatatom 29 478 5 0 0 0 - - -, f 5;
#X connect 0 0 3 0;
#X connect 0 0 6 0;
#X connect 2 0 45 0;
#X connect 3 0 4 0;
#X connect 4 0 5 0;
#X connect 5 0 6 1;
#X connect 6 0 18 0;
#X connect 7 0 12 0;
#X connect 8 0 9 0;
#X connect 9 0 10 0;
#X connect 11 0 8 0;
#X connect 12 0 0 0;
#X connect 13 0 7 0;
#X connect 14 0 12 1;
#X connect 15 0 12 2;
#X connect 16 0 17 0;
#X connect 17 0 19 0;
#X connect 18 0 39 0;
#X connect 18 0 53 0;
#X connect 19 0 18 1;
#X connect 20 0 13 0;
#X connect 21 0 14 0;
#X connect 22 0 15 0;
#X connect 23 0 57 0;
#X connect 24 0 25 0;
#X connect 25 0 38 0;
#X connect 26 0 24 0;
#X connect 27 0 25 1;
#X connect 28 0 25 2;
#X connect 29 0 26 0;
#X connect 30 0 27 0;
#X connect 31 0 28 0;
#X connect 38 0 16 0;
#X connect 39 0 42 0;
#X connect 40 0 39 1;
#X connect 41 0 42 1;
#X connect 42 0 43 0;
#X connect 43 0 46 1;
#X connect 44 0 46 0;
#X connect 45 0 53 0;
#X connect 46 0 85 0;
#X connect 47 0 46 2;
#X connect 52 0 49 0;
#X connect 52 1 48 0;
#X connect 54 0 85 1;
#X connect 55 0 20 0;
#X connect 55 0 58 0;
#X connect 56 0 29 0;
#X connect 65 0 21 0;
#X connect 66 0 22 0;
#X connect 67 0 30 0;
#X connect 68 0 31 0;
#X connect 69 0 70 0;
#X connect 71 0 81 0;
#X connect 72 0 71 0;
#X connect 73 0 72 0;
#X connect 73 0 77 0;
#X connect 73 1 72 1;
#X connect 73 1 76 0;
#X connect 75 0 82 0;
#X connect 76 0 86 0;
#X connect 78 0 85 1;
#X connect 80 0 74 0;
#X connect 80 1 75 0;
#X connect 81 0 91 0;
#X connect 82 0 78 0;
#X connect 82 1 79 0;
#X connect 83 0 84 0;
#X connect 85 0 52 0;
#X connect 85 0 83 0;
#X connect 86 0 88 0;
#X connect 86 0 89 0;
#X connect 86 0 85 1;
#X connect 88 0 87 0;
#X connect 89 0 90 0;
#X connect 90 0 88 1;
#X connect 91 0 80 0;
