#N canvas 51 97 819 543 12;
#X obj 323 22 inlet~;
#X obj 93 131 loop~;
#X obj 182 12 r init;
#X obj 182 38 b;
#X obj 182 62 samplerate~;
#X msg 93 91 1;
#X obj 180 92 /~;
#X obj 93 156 biquad~ 0 0 1 -1 0;
#X obj 92 224 *~;
#X obj 89 186 wrap~;
#X obj 89 272 *~ 0.5;
#X obj 89 297 phasor~;
#X msg 167 279 0;
#X obj 100 326 outlet~;
#X obj 313 55 max~ 0.2;
#X connect 0 0 14 0;
#X connect 1 0 7 0;
#X connect 2 0 3 0;
#X connect 3 0 4 0;
#X connect 3 0 5 0;
#X connect 3 0 1 0;
#X connect 3 0 12 0;
#X connect 4 0 6 0;
#X connect 4 0 8 1;
#X connect 5 0 1 0;
#X connect 6 0 1 1;
#X connect 7 0 9 0;
#X connect 8 0 10 0;
#X connect 9 0 8 0;
#X connect 10 0 11 0;
#X connect 11 0 13 0;
#X connect 12 0 11 1;
#X connect 14 0 6 1;
