#N canvas 33 121 561 476 10;
#X obj 199 133 pack \$1 \$2 \$3;
#X obj 199 155 unpack 0 0 0;
#X obj 199 207 t f f f;
#X obj 199 229 *;
#X obj 199 251 +;
#X obj 199 273 sqrt;
#X obj 250 333 pack 0 0 0;
#X obj 250 355 unpack 0 0 0;
#X obj 189 381 outlet r;
#X obj 199 88 inlet x;
#X obj 250 88 inlet y;
#X obj 301 88 inlet z;
#X obj 255 208 t f f f;
#X obj 255 230 *;
#X obj 293 245 pack;
#X msg 293 267 \$2 \$1;
#X obj 293 289 atan2;
#X obj 268 383 outlet phi;
#X obj 337 383 outlet z;
#X connect 0 0 1 0;
#X connect 1 0 2 0;
#X connect 1 1 12 0;
#X connect 1 2 6 2;
#X connect 2 0 3 0;
#X connect 2 1 3 1;
#X connect 2 2 14 0;
#X connect 3 0 4 0;
#X connect 4 0 5 0;
#X connect 5 0 6 0;
#X connect 6 0 7 0;
#X connect 7 0 8 0;
#X connect 7 1 17 0;
#X connect 7 2 18 0;
#X connect 9 0 0 0;
#X connect 10 0 0 1;
#X connect 11 0 0 2;
#X connect 12 0 13 0;
#X connect 12 1 13 1;
#X connect 12 2 14 1;
#X connect 13 0 4 1;
#X connect 14 0 15 0;
#X connect 15 0 16 0;
#X connect 16 0 6 1;
