#N canvas 0 22 450 300 10;
#X obj 157 56 inlet deg;
#X obj 157 133 f;
#X obj 157 155 * 0.0174533;
#X obj 157 177 outlet rad;
#X obj 227 55 loadbang;
#X msg 227 77 1;
#X obj 227 99 atan;
#X obj 227 121 / 45;
#X connect 0 0 1 0;
#X connect 1 0 2 0;
#X connect 2 0 3 0;
#X connect 4 0 5 0;
#X connect 5 0 6 0;
#X connect 6 0 7 0;
#X connect 7 0 2 1;
