#N canvas 414 100 830 627 10;
#X obj 175 28 inlet;
#X floatatom 175 121 5 0 0 0 - - -, f 5;
#X floatatom 271 122 5 0 0 0 - - -, f 5;
#X obj 175 167 outlet;
#X obj 175 144 t b;
#X obj 175 95 random \$1;
#X obj 271 95 random \$1;
#X obj 175 67 metro;
#X obj 271 66 metro;
#X obj 234 166 outlet;
#X obj 234 146 / \$2;
#X connect 0 0 7 0;
#X connect 0 0 8 0;
#X connect 1 0 4 0;
#X connect 1 0 8 1;
#X connect 1 0 10 0;
#X connect 2 0 7 1;
#X connect 4 0 3 0;
#X connect 5 0 1 0;
#X connect 6 0 2 0;
#X connect 7 0 5 0;
#X connect 8 0 6 0;
#X connect 10 0 9 0;
