#N canvas 448 543 1195 564 12;
#X obj 67 260 noise~;
#X obj 67 466 dac~;
#X obj 221 244 v bo;
#X obj 257 244 v b;
#X obj 286 244 v bb;
#X obj 349 245 v a;
#X obj 377 245 v aa;
#X obj 299 16 bng 15 250 50 0 empty empty empty 17 7 0 10 -262144 -1
-1;
#X obj 67 440 hip~ 5;
#X msg 641 52 1;
#X msg 676 74 -2;
#X msg 705 98 1;
#X obj 754 16 bng 15 250 50 0 empty empty empty 17 7 0 10 -262144 -1
-1;
#X obj 67 343 fexpr~ (($x1 * bo)+(b * $x1[-1])+(bb * $x1[-2])) - ((a
* $y1[-1]) + (aa * $y1[-2]));
#X text 479 334 y(n) = (x[n]b0 + x[n-1]*b1 + x[n]*b2) - (x[n-1]*a1
+ x[n-2] *a2);
#X obj 410 140 s a;
#X obj 438 140 s aa;
#X obj 221 204 r bo;
#X obj 257 204 r b;
#X obj 286 204 r bb;
#X obj 286 140 s bb;
#X obj 257 140 s b;
#X obj 222 140 s bo;
#X obj 349 206 r a;
#X obj 377 206 r aa;
#X obj 763 143 s a;
#X obj 791 143 s aa;
#X obj 705 143 s bb;
#X obj 676 143 s b;
#X obj 641 143 s bo;
#X obj 67 286 *~ 0.5;
#X text 330 14 pre-filter;
#X text 781 15 RLB weighting curve;
#X msg 410 53 -1.69066;
#X msg 438 78 0.732481;
#X msg 222 53 1.53512;
#X msg 257 78 -2.6917;
#X msg 286 106 1.19839;
#X msg 763 57 -1.99005;
#X msg 791 84 0.990072;
#X connect 0 0 30 0;
#X connect 7 0 35 0;
#X connect 7 0 36 0;
#X connect 7 0 37 0;
#X connect 7 0 33 0;
#X connect 7 0 34 0;
#X connect 8 0 1 0;
#X connect 9 0 29 0;
#X connect 10 0 28 0;
#X connect 11 0 27 0;
#X connect 12 0 9 0;
#X connect 12 0 10 0;
#X connect 12 0 11 0;
#X connect 12 0 38 0;
#X connect 12 0 39 0;
#X connect 13 0 8 0;
#X connect 17 0 2 0;
#X connect 18 0 3 0;
#X connect 19 0 4 0;
#X connect 23 0 5 0;
#X connect 24 0 6 0;
#X connect 30 0 13 0;
#X connect 33 0 15 0;
#X connect 34 0 16 0;
#X connect 35 0 22 0;
#X connect 36 0 21 0;
#X connect 37 0 20 0;
#X connect 38 0 25 0;
#X connect 39 0 26 0;
