#N canvas 831 336 830 526 10;
#X obj 129 165 loadbang;
#X obj 129 217 f \$1;
#X floatatom 102 125 5 0 0 0 - - -, f 5;
#X obj 179 333 control, f 13;
#X obj 75 339 inlet;
#X obj 157 103 bng 15 250 50 0 empty empty empty 17 7 0 10 -262144
-1 -1;
#X msg 192 51 1;
#X obj 177 103 bng 15 250 50 0 empty empty empty 17 7 0 10 -262144
-1 -1;
#X obj 197 103 bng 15 250 50 0 empty empty empty 17 7 0 10 -262144
-1 -1;
#X msg 238 50 -1;
#X msg 286 51 0;
#X floatatom 247 102 5 0 0 0 - - -, f 5;
#X obj 365 28 t f b;
#X obj 365 50 pack 0 20;
#X msg 394 97 0;
#X obj 179 416 line~;
#X floatatom 136 125 5 0 0 0 - - -, f 5;
#X floatatom 194 125 5 0 0 0 - - -, f 5;
#X obj 196 217 f \$2;
#X obj 242 217 f \$2;
#X floatatom 228 125 5 0 0 0 - - -, f 5;
#X floatatom 262 125 5 0 0 0 - - -, f 5;
#X obj 288 216 f \$2;
#X obj 334 216 f \$2;
#X obj 360 237 inlet;
#X obj 298 237 inlet;
#X obj 254 237 inlet;
#X obj 200 237 inlet;
#X text 200 284 attack;
#X text 245 301 decay;
#X text 284 284 sustain;
#X text 333 303 release;
#X obj 344 393 loadbang;
#X obj 344 415 metro 200;
#X obj 344 437 snapshot~;
#X msg 344 459 set \$1;
#X obj 179 438 outlet~;
#X text 193 506 gadsr - arguments: level \, attack time \, decay time
\, sustain percentage \, release time;
#X obj 132 256 inlet;
#X connect 0 0 1 0;
#X connect 0 0 18 0;
#X connect 0 0 19 0;
#X connect 0 0 22 0;
#X connect 0 0 23 0;
#X connect 1 0 2 0;
#X connect 2 0 3 1;
#X connect 3 0 15 0;
#X connect 4 0 3 0;
#X connect 5 0 6 0;
#X connect 6 0 3 0;
#X connect 7 0 9 0;
#X connect 8 0 10 0;
#X connect 9 0 3 0;
#X connect 10 0 3 0;
#X connect 11 0 12 0;
#X connect 12 0 13 0;
#X connect 12 1 14 0;
#X connect 13 0 15 0;
#X connect 14 0 3 0;
#X connect 15 0 34 0;
#X connect 15 0 36 0;
#X connect 16 0 3 2;
#X connect 17 0 3 3;
#X connect 18 0 16 0;
#X connect 19 0 17 0;
#X connect 20 0 3 4;
#X connect 21 0 3 5;
#X connect 22 0 20 0;
#X connect 23 0 21 0;
#X connect 24 0 21 0;
#X connect 25 0 20 0;
#X connect 26 0 17 0;
#X connect 27 0 16 0;
#X connect 32 0 33 0;
#X connect 33 0 34 0;
#X connect 34 0 35 0;
#X connect 35 0 11 0;
#X connect 38 0 2 0;
#X coords 0 -1 1 1 200 40 1 100 100;
