#N canvas 122 132 723 896 12;
#X obj 106 232 ctlout 3;
#X msg 132 193 80;
#X obj 81 77 metro 500;
#X msg 52 194 0;
#X msg 84 194 100;
#X obj 51 162 sel 1;
#X obj 50 141 tgl 15 0 empty empty empty 17 7 0 10 -262144 -1 -1 0
1;
#X obj 81 40 tgl 15 0 empty empty empty 17 7 0 10 -262144 -1 -1 0 1
;
#X text 173 55 Sends an on off control to the Sync Enable oscillators
button.;
#X msg 313 209 0;
#X msg 346 209 32;
#X msg 379 212 64;
#X msg 414 209 96;
#X obj 337 114 random 3;
#X obj 337 138 + 1;
#X obj 336 165 route 1 2 3 4;
#X obj 363 326 ctlout;
#X msg 386 284 74;
#X floatatom 134 30 5 0 0 0 - - -;
#X text 445 163 randomly assigns the octave of Oscialltor 1;
#X text 193 412 In conjunction \, these modules enable control effects
on the Moog Matriarch. metro 15 - trippy rave;
#X obj 206 -102 ctlin;
#X floatatom 206 -50 5 0 0 0 - - -;
#X floatatom 222 -77 5 0 0 0 - - -;
#X obj 206 -26 / 127;
#X obj 206 -1 * 750;
#N canvas 0 25 450 300 osc2 0;
#X msg 313 209 0;
#X msg 346 209 32;
#X msg 379 212 64;
#X msg 414 209 96;
#X obj 337 114 random 3;
#X obj 337 138 + 1;
#X obj 336 165 route 1 2 3 4;
#X obj 363 326 ctlout;
#X obj 314 67 inlet;
#X msg 386 284 75;
#X connect 0 0 7 0;
#X connect 0 0 9 0;
#X connect 1 0 7 0;
#X connect 2 0 7 0;
#X connect 3 0 7 0;
#X connect 4 0 5 0;
#X connect 5 0 6 0;
#X connect 6 0 0 0;
#X connect 6 1 1 0;
#X connect 6 2 2 0;
#X connect 6 3 3 0;
#X connect 8 0 4 0;
#X connect 9 0 7 1;
#X restore 244 117 pd osc2;
#N canvas 0 25 450 300 osc3 0;
#X msg 313 209 0;
#X msg 346 209 32;
#X msg 379 212 64;
#X msg 414 209 96;
#X obj 337 114 random 3;
#X obj 337 138 + 1;
#X obj 336 165 route 1 2 3 4;
#X obj 363 326 ctlout;
#X obj 314 67 inlet;
#X msg 386 284 76;
#X connect 0 0 7 0;
#X connect 0 0 9 0;
#X connect 1 0 7 0;
#X connect 2 0 7 0;
#X connect 3 0 7 0;
#X connect 4 0 5 0;
#X connect 5 0 6 0;
#X connect 6 0 0 0;
#X connect 6 1 1 0;
#X connect 6 2 2 0;
#X connect 6 3 3 0;
#X connect 8 0 4 0;
#X connect 9 0 7 1;
#X restore 245 144 pd osc3;
#X text 441 117 other instantiations for other octaves;
#X floatatom 402 -20 5 0 0 0 - - -;
#X floatatom 418 -47 5 0 0 0 - - -;
#X obj 402 -72 notein;
#X obj 187 569 midiin;
#X obj 398 9 bng 15 250 50 0 empty empty empty 17 7 0 10 -262144 -1
-1;
#X text 350 586 send and get messsage to te Moog Matriarch. 2022;
#X connect 1 0 0 1;
#X connect 2 0 6 0;
#X connect 2 0 13 0;
#X connect 2 0 26 0;
#X connect 2 0 27 0;
#X connect 3 0 0 0;
#X connect 4 0 0 0;
#X connect 5 0 3 0;
#X connect 5 1 4 0;
#X connect 6 0 5 0;
#X connect 7 0 2 0;
#X connect 9 0 16 0;
#X connect 9 0 17 0;
#X connect 10 0 16 0;
#X connect 11 0 16 0;
#X connect 12 0 16 0;
#X connect 13 0 14 0;
#X connect 14 0 15 0;
#X connect 15 0 9 0;
#X connect 15 1 10 0;
#X connect 15 2 11 0;
#X connect 15 3 12 0;
#X connect 17 0 16 1;
#X connect 18 0 2 1;
#X connect 21 0 22 0;
#X connect 21 1 23 0;
#X connect 22 0 24 0;
#X connect 24 0 25 0;
#X connect 25 0 18 0;
#X connect 29 0 33 0;
#X connect 31 0 29 0;
#X connect 31 1 30 0;
#X connect 33 0 6 0;
#X connect 33 0 26 0;
#X connect 33 0 27 0;
#X connect 33 0 13 0;
