#N canvas 109 22 706 616 10;
#X obj 352 74 fiddle~ 2048;
#X obj 353 105 unpack;
#X obj 346 209 osc~;
#X obj 353 129 moses 1;
#X obj 312 209 *~;
#X obj 380 157 mtof;
#X obj 125 23 inlet~;
#X obj 317 492 outlet~;
#X obj 317 235 hip~ 3;
#X obj 380 180 *;
#X obj 430 165 / 100;
#X obj 151 335 *~;
#X obj 282 322 *~;
#X obj 196 105 inlet;
#X floatatom 198 131 5 0 100 0 - - -, f 5;
#X floatatom 159 191 5 0 0 0 - - -, f 5;
#X obj 218 158 - 100;
#X floatatom 219 237 5 0 0 0 - - -, f 5;
#X obj 162 161 / 100;
#X obj 220 212 / 100;
#X obj 220 192 * -1;
#X obj 172 257 pack 0 20;
#X obj 245 258 pack 0 20;
#X obj 171 279 line~;
#X obj 242 285 line~;
#X obj 481 122 double_random 5000 33;
#X obj 497 89 tgl 15 0 empty empty empty 17 7 0 10 -262144 -1 -1 1
1;
#X connect 0 2 1 0;
#X connect 1 0 3 0;
#X connect 2 0 4 1;
#X connect 3 1 5 0;
#X connect 4 0 8 0;
#X connect 5 0 9 0;
#X connect 6 0 0 0;
#X connect 6 0 4 0;
#X connect 6 0 11 0;
#X connect 8 0 12 0;
#X connect 9 0 2 0;
#X connect 10 0 9 1;
#X connect 11 0 7 0;
#X connect 12 0 7 0;
#X connect 13 0 14 0;
#X connect 14 0 16 0;
#X connect 14 0 18 0;
#X connect 15 0 22 0;
#X connect 16 0 20 0;
#X connect 17 0 21 0;
#X connect 18 0 15 0;
#X connect 19 0 17 0;
#X connect 20 0 19 0;
#X connect 21 0 23 0;
#X connect 22 0 24 0;
#X connect 23 0 11 1;
#X connect 24 0 12 1;
#X connect 25 1 10 0;
#X connect 26 0 25 0;
