#N canvas 559 386 758 545 12;
#X obj 261 80 t b b;
#X obj 332 42 openpanel;
#X obj 293 107 symbol;
#X msg 261 150 1;
#X msg 305 150 open \$1;
#X obj 261 42 bng 15 250 50 0 empty empty empty 17 7 0 10 -262144 -1
-1;
#X obj 332 22 bng 15 250 50 0 empty empty empty 17 7 0 10 -262144 -1
-1;
#X obj 305 258 dac~, f 5;
#X obj 305 193 readsf~ 2;
#X obj 365 260 bng 15 250 50 0 empty empty empty 17 7 0 10 -262144
-1 -1;
#X text 402 21 1 Open an external dialogue box;
#X text 351 105 2 Store file name;
#X text 39 79 3 Send name via open message \, then plays file via "1".
;
#X text 388 259 Blinks when file is finished.;
#X connect 0 0 3 0;
#X connect 0 1 2 0;
#X connect 1 0 2 1;
#X connect 2 0 4 0;
#X connect 3 0 8 0;
#X connect 4 0 8 0;
#X connect 5 0 0 0;
#X connect 6 0 1 0;
#X connect 8 0 7 0;
#X connect 8 1 7 1;
#X connect 8 2 9 0;
