#N canvas 349 22 821 856 10;
#X obj 297 314 / 100;
#X floatatom 297 294 5 0 0 0 - - -, f 5;
#X floatatom 273 218 5 0 0 0 - - -, f 5;
#X floatatom 302 237 5 0 0 0 - - -, f 5;
#X floatatom 152 232 5 0 0 0 - - -, f 5;
#X obj 152 251 * 100;
#X obj 240 369 +~;
#X obj 138 315 / 100;
#X floatatom 141 293 5 0 0 0 - - -, f 5;
#X obj 258 51 env~;
#X floatatom 258 103 5 0 0 0 - - -, f 5;
#X obj 258 78 moses 35;
#X floatatom 303 103 5 0 0 0 - - -, f 5;
#X floatatom 333 44 5 0 0 0 - - -, f 5;
#X msg 323 129 1 100;
#X obj 318 395 +~;
#X obj 417 406 env~;
#X floatatom 417 458 5 0 0 0 - - -, f 5;
#X obj 417 433 moses 35;
#X floatatom 462 458 5 0 0 0 - - -, f 5;
#X floatatom 492 399 5 0 0 0 - - -, f 5;
#X obj 424 506 line;
#X msg 470 483 1 100;
#X obj 136 121 *~;
#X obj 318 449 *~;
#X msg 420 484 0.2 250;
#X obj 60 34 inlet~;
#X obj 245 254 vcf~ 400 4;
#X obj 261 160 line~;
#X obj 63 688 outlet~;
#X obj 36 569 *~;
#X obj 280 598 *~;
#X obj 89 252 lop~ 400;
#X msg 261 129 0.12 250;
#X obj 136 183 soft-clip~;
#X obj 322 715 env~;
#X floatatom 320 743 5 0 0 0 - - -, f 5;
#X obj 120 411 inlet;
#X obj 175 119 inlet;
#X floatatom 122 437 5 0 100 0 - - -, f 5;
#X floatatom 83 497 5 0 0 0 - - -, f 5;
#X obj 142 464 - 100;
#X floatatom 143 548 5 0 0 0 - - -, f 5;
#X obj 86 467 / 100;
#X obj 144 523 / 100;
#X obj 144 498 * -1;
#X obj 11 725 env~;
#X floatatom 9 753 5 0 0 0 - - -, f 5;
#X obj 405 257 hip~ 1000;
#X obj 457 312 / 100;
#X floatatom 457 292 5 0 0 0 - - -, f 5;
#X obj 89 313 *~ 0.7;
#X obj 245 315 *~ 0.48;
#X obj 405 313 *~ 0.45;
#X obj 177 403 loadbang;
#X msg 176 427 0;
#X obj 136 153 *~ 100;
#X obj 100 575 pack 0 20;
#X obj 102 603 line~;
#X obj 195 565 pack 0 20;
#X obj 197 593 line~;
#X obj 331 21 inlet;
#X connect 0 0 52 1;
#X connect 1 0 0 0;
#X connect 2 0 27 1;
#X connect 3 0 27 2;
#X connect 4 0 5 0;
#X connect 5 0 32 1;
#X connect 6 0 15 0;
#X connect 7 0 51 1;
#X connect 8 0 7 0;
#X connect 9 0 11 0;
#X connect 10 0 33 0;
#X connect 11 0 10 0;
#X connect 11 1 12 0;
#X connect 12 0 14 0;
#X connect 13 0 11 1;
#X connect 14 0 28 0;
#X connect 15 0 16 0;
#X connect 15 0 24 0;
#X connect 16 0 18 0;
#X connect 17 0 25 0;
#X connect 18 0 17 0;
#X connect 18 1 19 0;
#X connect 19 0 22 0;
#X connect 20 0 18 1;
#X connect 21 0 24 1;
#X connect 22 0 21 0;
#X connect 23 0 56 0;
#X connect 24 0 31 0;
#X connect 25 0 21 0;
#X connect 26 0 9 0;
#X connect 26 0 23 0;
#X connect 26 0 30 0;
#X connect 27 0 52 0;
#X connect 28 0 23 1;
#X connect 30 0 46 0;
#X connect 30 0 29 0;
#X connect 31 0 35 0;
#X connect 31 0 29 0;
#X connect 32 0 51 0;
#X connect 33 0 28 0;
#X connect 34 0 27 0;
#X connect 34 0 32 0;
#X connect 34 0 48 0;
#X connect 35 0 36 0;
#X connect 37 0 39 0;
#X connect 38 0 56 1;
#X connect 39 0 41 0;
#X connect 39 0 43 0;
#X connect 40 0 59 0;
#X connect 41 0 45 0;
#X connect 42 0 57 0;
#X connect 43 0 40 0;
#X connect 44 0 42 0;
#X connect 45 0 44 0;
#X connect 46 0 47 0;
#X connect 48 0 53 0;
#X connect 49 0 53 1;
#X connect 50 0 49 0;
#X connect 51 0 6 0;
#X connect 52 0 6 1;
#X connect 53 0 15 1;
#X connect 54 0 55 0;
#X connect 55 0 39 0;
#X connect 56 0 34 0;
#X connect 57 0 58 0;
#X connect 58 0 30 1;
#X connect 59 0 60 0;
#X connect 60 0 31 1;
#X connect 61 0 13 0;
