#N canvas 400 80 864 716 10;
#X obj 226 435 *~;
#X obj 341 443 *~;
#X obj 198 336 inlet~;
#X obj 212 524 outlet~;
#X obj 333 521 outlet~;
#X obj 351 343 cos~;
#X obj 295 345 cos~;
#X msg 433 191 0;
#X obj 295 281 phasor~ 0.2;
#X obj 351 318 -~ 0.25;
#X obj 433 85 select 0 1;
#X msg 473 189 0.25;
#X obj 295 257 / 50;
#X obj 96 67 tgl 15 0 empty empty empty 17 7 0 10 -262144 -1 -1 1 1
;
#X floatatom 207 117 5 0 0 0 - - -, f 5;
#X obj 227 93 double_random 5000 1;
#X floatatom 344 117 5 0 0 0 - - -, f 5;
#X obj 207 141 pack 0 0;
#X obj 72 93 double_random 5000 12.5;
#X obj 206 163 line;
#X obj 96 42 loadbang;
#X obj 293 386 *~ 0.5;
#X obj 359 389 *~ 0.5;
#X obj 443 289 line;
#X floatatom 448 328 5 0 0 0 - - -, f 5;
#X obj 574 47 tgl 15 0 empty empty empty 17 7 0 10 -262144 -1 -1 1
1;
#X msg 270 42 0;
#X msg 305 43 1;
#X obj 540 223 pack 0 0;
#X obj 539 252 line;
#X obj 433 237 pack 0 0;
#X msg 575 189 0;
#X obj 646 205 pack 0 0;
#X obj 645 234 line;
#X msg 651 174 0;
#X obj 142 446 *~;
#X msg 678 175 0.5;
#X msg 543 191 0.5;
#X msg 579 119 10;
#X msg 623 118 3000;
#X obj 601 79 select 1 0;
#X connect 0 0 3 0;
#X connect 1 0 4 0;
#X connect 2 0 0 0;
#X connect 2 0 1 0;
#X connect 2 0 35 0;
#X connect 5 0 22 0;
#X connect 6 0 21 0;
#X connect 7 0 17 0;
#X connect 7 0 30 0;
#X connect 8 0 6 0;
#X connect 8 0 9 0;
#X connect 9 0 5 0;
#X connect 10 0 7 0;
#X connect 10 0 26 0;
#X connect 10 0 37 0;
#X connect 10 0 34 0;
#X connect 10 1 11 0;
#X connect 10 1 27 0;
#X connect 10 1 31 0;
#X connect 10 1 36 0;
#X connect 11 0 30 0;
#X connect 12 0 8 0;
#X connect 13 0 15 0;
#X connect 13 0 18 0;
#X connect 14 0 17 0;
#X connect 15 1 16 0;
#X connect 16 0 17 1;
#X connect 17 0 19 0;
#X connect 18 1 14 0;
#X connect 19 0 12 0;
#X connect 20 0 13 0;
#X connect 20 0 25 0;
#X connect 21 0 0 1;
#X connect 22 0 1 1;
#X connect 23 0 9 1;
#X connect 23 0 24 0;
#X connect 25 0 10 0;
#X connect 25 0 40 0;
#X connect 26 0 13 0;
#X connect 27 0 13 0;
#X connect 28 0 29 0;
#X connect 29 0 35 1;
#X connect 30 0 23 0;
#X connect 31 0 28 0;
#X connect 32 0 33 0;
#X connect 33 0 21 1;
#X connect 33 0 22 1;
#X connect 34 0 32 0;
#X connect 35 0 3 0;
#X connect 35 0 4 0;
#X connect 36 0 32 0;
#X connect 37 0 28 0;
#X connect 38 0 30 1;
#X connect 38 0 28 1;
#X connect 38 0 32 1;
#X connect 39 0 30 1;
#X connect 39 0 28 1;
#X connect 39 0 32 1;
#X connect 40 0 38 0;
#X connect 40 1 39 0;
