#N canvas 11 332 450 300 10;
#X obj 148 28 inlet r;
#X obj 148 66 pack \$1 \$2 \$3;
#X obj 148 88 unpack 0 0 0;
#X obj 148 159 t f f;
#X obj 148 192 * 1;
#X obj 93 251 outlet x;
#X obj 178 192 * 0;
#X obj 198 123 t f f;
#X obj 198 145 cos;
#X obj 227 145 sin;
#X obj 152 251 outlet y;
#X obj 214 252 outlet z;
#X obj 198 28 inlet phi;
#X obj 260 28 inlet z;
#X connect 0 0 1 0;
#X connect 1 0 2 0;
#X connect 2 0 3 0;
#X connect 2 1 7 0;
#X connect 2 2 11 0;
#X connect 3 0 4 0;
#X connect 3 1 6 0;
#X connect 4 0 5 0;
#X connect 6 0 10 0;
#X connect 7 0 8 0;
#X connect 7 1 9 0;
#X connect 8 0 4 1;
#X connect 9 0 6 1;
#X connect 12 0 1 1;
#X connect 13 0 1 2;
