#N canvas 0 22 450 300 10;
#X obj 167 188 line~;
#X obj 167 210 *~;
#X floatatom 167 82 5 0 0 0 - - -, f 5;
#X obj 167 101 / 50;
#X obj 167 123 expr $f1*$f1;
#X floatatom 167 145 5 0 0 0 - - -, f 5;
#X obj 167 164 pack 0 5000;
#X obj 167 60 inlet;
#X obj 167 235 outlet~;
#X connect 0 0 1 0;
#X connect 0 0 1 1;
#X connect 1 0 8 0;
#X connect 2 0 3 0;
#X connect 3 0 4 0;
#X connect 4 0 5 0;
#X connect 5 0 6 0;
#X connect 6 0 0 0;
#X connect 7 0 2 0;
