#N canvas 53 33 1153 671 10;
#X floatatom 171 73 5 0 0 0 - - -;
#X obj 171 99 sin;
#X floatatom 171 124 5 0 0 0 - - -;
#X msg 171 227 1;
#X obj 171 250 /;
#X floatatom 171 272 5 0 0 0 - - -;
#X msg 159 344 1;
#X obj 183 369 /;
#X floatatom 183 391 5 0 0 0 - - -;
#X text 234 391 sin 0;
#X text 216 272 csc 0;
#X text 124 126 sin 0;
#X obj 171 188 t b f;
#X obj 171 306 t b f;
#X obj 255 158 cos;
#X floatatom 255 179 5 0 0 0 - - -;
#X text 292 94 attempt to generate cosine from sine. Mathe seems to
be incorrect!;
#X connect 0 0 1 0;
#X connect 0 0 14 0;
#X connect 1 0 2 0;
#X connect 2 0 12 0;
#X connect 3 0 4 0;
#X connect 4 0 5 0;
#X connect 5 0 13 0;
#X connect 6 0 7 0;
#X connect 7 0 8 0;
#X connect 12 0 3 0;
#X connect 12 1 4 1;
#X connect 13 0 6 0;
#X connect 13 1 7 1;
#X connect 14 0 15 0;
