#N canvas 451 23 496 473 10;
#X obj 91 110 cart2pol;
#X floatatom 91 163 5 0 0 0 - - -, f 5;
#X floatatom 131 163 5 0 0 0 - - -, f 5;
#X obj 250 146 deg2rad;
#X floatatom 90 21 5 0 0 1 x - -, f 5;
#X floatatom 224 23 5 0 0 0 - - -, f 5;
#X obj 131 199 +;
#X obj 170 198 +;
#X floatatom 136 231 5 0 0 0 - - -, f 5;
#X floatatom 179 229 5 0 0 0 - - -, f 5;
#X obj 149 268 pol2cart;
#X floatatom 151 313 5 0 0 0 - - -, f 5;
#X floatatom 192 313 5 0 0 0 - - -, f 5;
#X floatatom 128 38 5 0 0 1 y - -, f 5;
#X obj 128 56 t b f;
#X obj 320 81 t b f;
#X obj 151 356 outlet;
#X obj 192 356 outlet;
#X obj 89 -6 inlet x;
#X obj 140 -6 inlet y;
#X obj 221 -1 inlet d;
#X floatatom 230 193 5 0 0 0 - - -, f 5;
#X msg 195 146 0;
#X connect 0 0 1 0;
#X connect 0 1 2 0;
#X connect 1 0 6 0;
#X connect 2 0 7 0;
#X connect 3 0 21 0;
#X connect 3 0 7 1;
#X connect 4 0 0 0;
#X connect 5 0 3 0;
#X connect 6 0 8 0;
#X connect 7 0 9 0;
#X connect 8 0 10 0;
#X connect 9 0 10 1;
#X connect 10 0 11 0;
#X connect 10 1 12 0;
#X connect 11 0 16 0;
#X connect 12 0 17 0;
#X connect 13 0 14 0;
#X connect 14 0 0 0;
#X connect 14 1 0 1;
#X connect 18 0 4 0;
#X connect 19 0 13 0;
#X connect 20 0 5 0;
#X connect 22 0 7 1;
#X connect 22 0 6 1;
