#N canvas 68 52 931 664 16;
#X declare -path lib;
#X declare -path . -path lib -path ../../lib -path ../lib -path tab
-path four-table;
#N canvas 119 52 645 296 markov 0;
#X text 524 44 PAF notes;
#X obj 21 40 markov cf1;
#X obj 21 66 markov cf1b;
#X obj 525 59 markov pn;
#X obj 21 91 markov cf1c;
#X obj 141 40 markov cf2;
#X obj 141 66 markov cf2b;
#X obj 141 91 markov cf2c;
#X obj 265 40 markov cf3;
#X obj 265 66 markov cf3b;
#X obj 265 91 markov cf3c;
#X obj 389 40 markov cf4;
#X obj 389 66 markov cf4b;
#X obj 389 91 markov cf4c;
#X obj 18 126 markov cf5;
#X obj 18 150 markov cf5b;
#X obj 18 174 markov cf5c;
#X obj 138 126 markov cf6;
#X obj 138 150 markov cf6b;
#X obj 138 174 markov cf6c;
#X obj 262 126 markov cf7;
#X obj 262 150 markov cf7b;
#X obj 262 174 markov cf7c;
#X obj 386 126 markov cf8;
#X obj 386 150 markov cf8b;
#X obj 386 174 markov cf8c;
#X obj 20 216 markov cf9;
#X obj 20 236 markov cf9b;
#X obj 20 256 markov cf9c;
#X obj 140 216 markov cf10;
#X obj 140 236 markov cf10b;
#X obj 140 256 markov cf10c;
#X obj 279 216 markov cf11;
#X obj 279 236 markov cf11b;
#X obj 279 256 markov cf11c;
#X obj 415 216 markov cf12;
#X obj 415 236 markov cf12b;
#X obj 415 256 markov cf12c;
#X obj 541 136 markov pitch1;
#X restore 97 144 pd markov;
#N canvas 130 144 812 426 do-markov 0;
#X obj 49 32 load-smerdyakov walk0;
#X obj 49 51 load-smerdyakov walk1;
#X obj 49 70 load-smerdyakov walk2;
#X obj 49 89 load-smerdyakov walk3;
#X obj 49 108 load-smerdyakov walk4;
#X obj 49 127 load-smerdyakov walk5;
#X obj 49 146 load-smerdyakov walk6;
#X obj 49 165 load-smerdyakov walk7;
#X obj 49 184 load-smerdyakov walk8;
#X obj 49 203 load-smerdyakov walk9;
#X obj 274 32 load-smerdyakov walk10;
#X obj 274 51 load-smerdyakov walk11;
#X obj 274 70 load-smerdyakov walk12;
#X obj 274 89 load-smerdyakov walk13;
#X obj 274 108 load-smerdyakov walk14;
#X obj 274 127 load-smerdyakov walk15;
#X obj 274 146 load-smerdyakov walk16;
#X obj 274 165 load-smerdyakov walk17;
#X obj 274 184 load-smerdyakov walk18;
#X obj 274 203 load-smerdyakov walk19;
#X obj 507 33 load-smerdyakov walk20;
#X obj 507 52 load-smerdyakov walk21;
#X obj 507 71 load-smerdyakov walk22;
#X restore 98 175 pd do-markov;
#N canvas 27 155 992 529 pafs 0;
#X text 36 155 amp;
#X text 24 129 noise;
#X text 24 58 pitch;
#X text 42 180 cf;
#X text 39 202 bw;
#X text 30 85 vamp;
#X text 25 107 vfreq;
#X text 36 225 amp;
#X text 40 249 cf;
#X text 41 271 bw;
#X text 36 295 amp;
#X text 40 319 cf;
#X text 41 341 bw;
#X text 29 33 mute;
#X text 32 368 CLEAR;
#X floatatom 948 412 3 -100 127 0 fnoise fnoise-set fnoise, f 3;
#X obj 943 461 bng 15 250 50 0 paf-test empty empty 0 -6 0 8 -262144
-1 -1;
#X text 887 458 test;
#X obj 88 396 bng 15 250 50 0 paf1-spit empty empty 0 -6 0 8 -262144
-1 -1;
#X text 20 392 spit;
#X obj 944 437 bng 15 250 50 0 paf-clear-all empty empty 0 -6 0 8 -262144
-1 -1;
#X text 851 437 CLEAR ALL;
#X obj 146 396 bng 15 250 50 0 paf2-spit empty empty 0 -6 0 8 -262144
-1 -1;
#X floatatom 80 157 3 0 100 0 - amp1-set amp1, f 3;
#X floatatom 80 131 3 0 100 0 - noise1-set noise1, f 3;
#X floatatom 80 60 5 -48 12700 0 - pitch1-set pitch1, f 5;
#X floatatom 80 180 3 0 127 0 - cf1-set cf1, f 3;
#X floatatom 80 203 3 0 127 0 - bw1-set bw1, f 3;
#X floatatom 80 85 3 0 100 0 - vamp1-set vamp1, f 3;
#X floatatom 80 108 3 0 127 0 - vfreq1-set vfreq1, f 3;
#X floatatom 80 227 3 0 100 0 - amp1b-set amp1b, f 3;
#X floatatom 80 250 3 0 127 0 - cf1b-set cf1b, f 3;
#X floatatom 80 273 3 0 127 0 - bw1b-set bw1b, f 3;
#X floatatom 80 297 3 0 100 0 - amp1c-set amp1c, f 3;
#X floatatom 80 320 3 0 127 0 - cf1c-set cf1c, f 3;
#X floatatom 80 343 3 0 127 0 - bw1c-set bw1c, f 3;
#X obj 79 35 bng 15 250 50 0 paf-mute1 empty empty 0 -6 0 8 -262144
-1 -1;
#X obj 89 368 bng 15 250 50 0 paf-clear1 empty empty 0 -6 0 8 -262144
-1 -1;
#X floatatom 137 157 3 0 100 0 - amp2-set amp2, f 3;
#X floatatom 137 131 3 0 100 0 - noise2-set noise2, f 3;
#X floatatom 137 60 5 -48 12700 0 - pitch2-set pitch2, f 5;
#X floatatom 137 180 3 0 127 0 - cf2-set cf2, f 3;
#X floatatom 137 203 3 0 127 0 - bw2-set bw2, f 3;
#X floatatom 137 85 3 0 100 0 - vamp2-set vamp2, f 3;
#X floatatom 137 108 3 0 127 0 - vfreq2-set vfreq2, f 3;
#X floatatom 137 227 3 0 100 0 - amp2b-set amp2b, f 3;
#X floatatom 137 250 3 0 127 0 - cf2b-set cf2b, f 3;
#X floatatom 137 273 3 0 127 0 - bw2b-set bw2b, f 3;
#X floatatom 137 297 3 0 100 0 - amp2c-set amp2c, f 3;
#X floatatom 137 320 3 0 127 0 - cf2c-set cf2c, f 3;
#X floatatom 137 343 3 0 127 0 - bw2c-set bw2c, f 3;
#X obj 136 35 bng 15 250 50 0 paf-mute2 empty empty 0 -6 0 8 -262144
-1 -1;
#X obj 146 368 bng 15 250 50 0 paf-clear2 empty empty 0 -6 0 8 -262144
-1 -1;
#X floatatom 308 157 3 0 100 0 - amp5-set amp5, f 3;
#X floatatom 308 131 3 0 100 0 - noise5-set noise5, f 3;
#X floatatom 308 60 5 -48 12700 0 - pitch5-set pitch5, f 5;
#X floatatom 308 180 3 0 127 0 - cf5-set cf5, f 3;
#X floatatom 308 203 3 0 127 0 - bw5-set bw5, f 3;
#X floatatom 308 85 3 0 100 0 - vamp5-set vamp5, f 3;
#X floatatom 308 108 3 0 127 0 - vfreq5-set vfreq5, f 3;
#X floatatom 308 227 3 0 100 0 - amp5b-set amp5b, f 3;
#X floatatom 308 250 3 0 127 0 - cf5b-set cf5b, f 3;
#X floatatom 308 273 3 0 127 0 - bw5b-set bw5b, f 3;
#X floatatom 308 297 3 0 100 0 - amp5c-set amp5c, f 3;
#X floatatom 308 320 3 0 127 0 - cf5c-set cf5c, f 3;
#X floatatom 308 343 3 0 127 0 - bw5c-set bw5c, f 3;
#X obj 307 35 bng 15 250 50 0 paf-mute5 empty empty 0 -6 0 8 -262144
-1 -1;
#X obj 317 368 bng 15 250 50 0 paf-clear5 empty empty 0 -6 0 8 -262144
-1 -1;
#X floatatom 365 157 3 0 100 0 - amp6-set amp6, f 3;
#X floatatom 365 131 3 0 100 0 - noise6-set noise6, f 3;
#X floatatom 365 60 5 -48 12700 0 - pitch6-set pitch6, f 5;
#X floatatom 365 180 3 0 127 0 - cf6-set cf6, f 3;
#X floatatom 365 203 3 0 127 0 - bw6-set bw6, f 3;
#X floatatom 365 85 3 0 100 0 - vamp6-set vamp6, f 3;
#X floatatom 365 108 3 0 127 0 - vfreq6-set vfreq6, f 3;
#X floatatom 365 227 3 0 100 0 - amp6b-set amp6b, f 3;
#X floatatom 365 250 3 0 127 0 - cf6b-set cf6b, f 3;
#X floatatom 365 273 3 0 127 0 - bw6b-set bw6b, f 3;
#X floatatom 365 297 3 0 100 0 - amp6c-set amp6c, f 3;
#X floatatom 365 320 3 0 127 0 - cf6c-set cf6c, f 3;
#X floatatom 365 343 3 0 127 0 - bw6c-set bw6c, f 3;
#X obj 364 35 bng 15 250 50 0 paf-mute6 empty empty 0 -6 0 8 -262144
-1 -1;
#X obj 374 368 bng 15 250 50 0 paf-clear6 empty empty 0 -6 0 8 -262144
-1 -1;
#X floatatom 536 157 3 0 100 0 - amp9-set amp9, f 3;
#X floatatom 536 131 3 0 100 0 - noise9-set noise9, f 3;
#X floatatom 536 60 5 -48 12700 0 - pitch9-set pitch9, f 5;
#X floatatom 536 180 3 0 127 0 - cf9-set cf9, f 3;
#X floatatom 536 203 3 0 127 0 - bw9-set bw9, f 3;
#X floatatom 536 85 3 0 100 0 - vamp9-set vamp9, f 3;
#X floatatom 536 108 3 0 127 0 - vfreq9-set vfreq9, f 3;
#X floatatom 536 227 3 0 100 0 - amp9b-set amp9b, f 3;
#X floatatom 536 250 3 0 127 0 - cf9b-set cf9b, f 3;
#X floatatom 536 273 3 0 127 0 - bw9b-set bw9b, f 3;
#X floatatom 536 297 3 0 100 0 - amp9c-set amp9c, f 3;
#X floatatom 536 320 3 0 127 0 - cf9c-set cf9c, f 3;
#X floatatom 536 343 3 0 127 0 - bw9c-set bw9c, f 3;
#X obj 535 35 bng 15 250 50 0 paf-mute9 empty empty 0 -6 0 8 -262144
-1 -1;
#X obj 545 368 bng 15 250 50 0 paf-clear9 empty empty 0 -6 0 8 -262144
-1 -1;
#X floatatom 593 157 3 0 100 0 - amp10-set amp10, f 3;
#X floatatom 593 131 3 0 100 0 - noise10-set noise10, f 3;
#X floatatom 593 60 5 -48 12700 0 - pitch10-set pitch10, f 5;
#X floatatom 593 180 3 0 127 0 - cf10-set cf10, f 3;
#X floatatom 593 203 3 0 127 0 - bw10-set bw10, f 3;
#X floatatom 593 85 3 0 100 0 - vamp10-set vamp10, f 3;
#X floatatom 593 108 3 0 127 0 - vfreq10-set vfreq10, f 3;
#X floatatom 593 227 3 0 100 0 - amp10b-set amp10b, f 3;
#X floatatom 593 250 3 0 127 0 - cf10b-set cf10b, f 3;
#X floatatom 593 273 3 0 127 0 - bw10b-set bw10b, f 3;
#X floatatom 593 297 3 0 100 0 - amp10c-set amp10c, f 3;
#X floatatom 593 320 3 0 127 0 - cf10c-set cf10c, f 3;
#X floatatom 593 343 3 0 127 0 - bw10c-set bw10c, f 3;
#X obj 592 35 bng 15 250 50 0 paf-mute10 empty empty 0 -6 0 8 -262144
-1 -1;
#X obj 602 368 bng 15 250 50 0 paf-clear10 empty empty 0 -6 0 8 -262144
-1 -1;
#X floatatom 764 157 3 0 100 0 - amp13-set amp13, f 3;
#X floatatom 764 131 3 0 100 0 - noise13-set noise13, f 3;
#X floatatom 764 60 5 -48 12700 0 - pitch13-set pitch13, f 5;
#X floatatom 764 180 3 0 127 0 - cf13-set cf13, f 3;
#X floatatom 764 203 3 0 127 0 - bw13-set bw13, f 3;
#X floatatom 764 85 3 0 100 0 - vamp13-set vamp13, f 3;
#X floatatom 764 108 3 0 127 0 - vfreq13-set vfreq13, f 3;
#X floatatom 764 227 3 0 100 0 - amp13b-set amp13b, f 3;
#X floatatom 764 250 3 0 127 0 - cf13b-set cf13b, f 3;
#X floatatom 764 273 3 0 127 0 - bw13b-set bw13b, f 3;
#X floatatom 764 297 3 0 100 0 - amp13c-set amp13c, f 3;
#X floatatom 764 320 3 0 127 0 - cf13c-set cf13c, f 3;
#X floatatom 764 343 3 0 127 0 - bw13c-set bw13c, f 3;
#X obj 763 35 bng 15 250 50 0 paf-mute13 empty empty 0 -6 0 8 -262144
-1 -1;
#X obj 773 368 bng 15 250 50 0 paf-clear13 empty empty 0 -6 0 8 -262144
-1 -1;
#X floatatom 821 157 3 0 100 0 - amp14-set amp14, f 3;
#X floatatom 821 131 3 0 100 0 - noise14-set noise14, f 3;
#X floatatom 821 60 5 -48 12700 0 - pitch14-set pitch14, f 5;
#X floatatom 821 180 3 0 127 0 - cf14-set cf14, f 3;
#X floatatom 821 203 3 0 127 0 - bw14-set bw14, f 3;
#X floatatom 821 85 3 0 100 0 - vamp14-set vamp14, f 3;
#X floatatom 821 108 3 0 127 0 - vfreq14-set vfreq14, f 3;
#X floatatom 821 227 3 0 100 0 - amp14b-set amp14b, f 3;
#X floatatom 821 250 3 0 127 0 - cf14b-set cf14b, f 3;
#X floatatom 821 273 3 0 127 0 - bw14b-set bw14b, f 3;
#X floatatom 821 297 3 0 100 0 - amp14c-set amp14c, f 3;
#X floatatom 821 320 3 0 127 0 - cf14c-set cf14c, f 3;
#X floatatom 821 343 3 0 127 0 - bw14c-set bw14c, f 3;
#X obj 820 35 bng 15 250 50 0 paf-mute14 empty empty 0 -6 0 8 -262144
-1 -1;
#X obj 830 368 bng 15 250 50 0 paf-clear14 empty empty 0 -6 0 8 -262144
-1 -1;
#X text 80 11 1;
#X text 139 11 2;
#X text 310 11 5;
#X text 369 11 6;
#X text 537 11 9;
#X text 590 11 10;
#X text 762 11 13;
#X text 820 11 14;
#X floatatom 194 157 3 0 100 0 - amp3-set amp3, f 3;
#X floatatom 194 131 3 0 100 0 - noise3-set noise3, f 3;
#X floatatom 194 60 5 -48 12700 0 - pitch3-set pitch3, f 5;
#X floatatom 194 180 3 0 127 0 - cf3-set cf3, f 3;
#X floatatom 194 203 3 0 127 0 - bw3-set bw3, f 3;
#X floatatom 194 85 3 0 100 0 - vamp3-set vamp3, f 3;
#X floatatom 194 108 3 0 127 0 - vfreq3-set vfreq3, f 3;
#X floatatom 194 227 3 0 100 0 - amp3b-set amp3b, f 3;
#X floatatom 194 250 3 0 127 0 - cf3b-set cf3b, f 3;
#X floatatom 194 273 3 0 127 0 - bw3b-set bw3b, f 3;
#X floatatom 194 297 3 0 100 0 - amp3c-set amp3c, f 3;
#X floatatom 194 320 3 0 127 0 - cf3c-set cf3c, f 3;
#X floatatom 194 343 3 0 127 0 - bw3c-set bw3c, f 3;
#X obj 193 35 bng 15 250 50 0 paf-mute3 empty empty 0 -6 0 8 -262144
-1 -1;
#X obj 203 368 bng 15 250 50 0 paf-clear3 empty empty 0 -6 0 8 -262144
-1 -1;
#X floatatom 251 157 3 0 100 0 - amp4-set amp4, f 3;
#X floatatom 251 131 3 0 100 0 - noise4-set noise4, f 3;
#X floatatom 251 60 5 -48 12700 0 - pitch4-set pitch4, f 5;
#X floatatom 251 180 3 0 127 0 - cf4-set cf4, f 3;
#X floatatom 251 203 3 0 127 0 - bw4-set bw4, f 3;
#X floatatom 251 85 3 0 100 0 - vamp4-set vamp4, f 3;
#X floatatom 251 108 3 0 127 0 - vfreq4-set vfreq4, f 3;
#X floatatom 251 227 3 0 100 0 - amp4b-set amp4b, f 3;
#X floatatom 251 250 3 0 127 0 - cf4b-set cf4b, f 3;
#X floatatom 251 273 3 0 127 0 - bw4b-set bw4b, f 3;
#X floatatom 251 297 3 0 100 0 - amp4c-set amp4c, f 3;
#X floatatom 251 320 3 0 127 0 - cf4c-set cf4c, f 3;
#X floatatom 251 343 3 0 127 0 - bw4c-set bw4c, f 3;
#X obj 250 35 bng 15 250 50 0 paf-mute4 empty empty 0 -6 0 8 -262144
-1 -1;
#X obj 260 368 bng 15 250 50 0 paf-clear4 empty empty 0 -6 0 8 -262144
-1 -1;
#X floatatom 422 157 3 0 100 0 - amp7-set amp7, f 3;
#X floatatom 422 131 3 0 100 0 - noise7-set noise7, f 3;
#X floatatom 422 60 5 -48 12700 0 - pitch7-set pitch7, f 5;
#X floatatom 422 180 3 0 127 0 - cf7-set cf7, f 3;
#X floatatom 422 203 3 0 127 0 - bw7-set bw7, f 3;
#X floatatom 422 85 3 0 100 0 - vamp7-set vamp7, f 3;
#X floatatom 422 108 3 0 127 0 - vfreq7-set vfreq7, f 3;
#X floatatom 422 227 3 0 100 0 - amp7b-set amp7b, f 3;
#X floatatom 422 250 3 0 127 0 - cf7b-set cf7b, f 3;
#X floatatom 422 273 3 0 127 0 - bw7b-set bw7b, f 3;
#X floatatom 422 297 3 0 100 0 - amp7c-set amp7c, f 3;
#X floatatom 422 320 3 0 127 0 - cf7c-set cf7c, f 3;
#X floatatom 422 343 3 0 127 0 - bw7c-set bw7c, f 3;
#X obj 421 35 bng 15 250 50 0 paf-mute7 empty empty 0 -6 0 8 -262144
-1 -1;
#X obj 431 368 bng 15 250 50 0 paf-clear7 empty empty 0 -6 0 8 -262144
-1 -1;
#X floatatom 479 157 3 0 100 0 - amp8-set amp8, f 3;
#X floatatom 479 131 3 0 100 0 - noise8-set noise8, f 3;
#X floatatom 479 60 5 -48 12700 0 - pitch8-set pitch8, f 5;
#X floatatom 479 180 3 0 127 0 - cf8-set cf8, f 3;
#X floatatom 479 203 3 0 127 0 - bw8-set bw8, f 3;
#X floatatom 479 85 3 0 100 0 - vamp8-set vamp8, f 3;
#X floatatom 479 108 3 0 127 0 - vfreq8-set vfreq8, f 3;
#X floatatom 479 227 3 0 100 0 - amp8b-set amp8b, f 3;
#X floatatom 479 250 3 0 127 0 - cf8b-set cf8b, f 3;
#X floatatom 479 273 3 0 127 0 - bw8b-set bw8b, f 3;
#X floatatom 479 297 3 0 100 0 - amp8c-set amp8c, f 3;
#X floatatom 479 320 3 0 127 0 - cf8c-set cf8c, f 3;
#X floatatom 479 343 3 0 127 0 - bw8c-set bw8c, f 3;
#X obj 478 35 bng 15 250 50 0 paf-mute8 empty empty 0 -6 0 8 -262144
-1 -1;
#X obj 488 368 bng 15 250 50 0 paf-clear8 empty empty 0 -6 0 8 -262144
-1 -1;
#X text 194 11 3;
#X text 253 11 4;
#X text 424 11 7;
#X text 483 11 8;
#X floatatom 650 156 3 0 100 0 - amp11-set amp11, f 3;
#X floatatom 650 130 3 0 100 0 - noise11-set noise11, f 3;
#X floatatom 650 59 5 -48 12700 0 - pitch11-set pitch11, f 5;
#X floatatom 650 179 3 0 127 0 - cf11-set cf11, f 3;
#X floatatom 650 202 3 0 127 0 - bw11-set bw11, f 3;
#X floatatom 650 84 3 0 100 0 - vamp11-set vamp11, f 3;
#X floatatom 650 107 3 0 127 0 - vfreq11-set vfreq11, f 3;
#X floatatom 650 226 3 0 100 0 - amp11b-set amp11b, f 3;
#X floatatom 650 249 3 0 127 0 - cf11b-set cf11b, f 3;
#X floatatom 650 272 3 0 127 0 - bw11b-set bw11b, f 3;
#X floatatom 650 296 3 0 100 0 - amp11c-set amp11c, f 3;
#X floatatom 650 319 3 0 127 0 - cf11c-set cf11c, f 3;
#X floatatom 650 342 3 0 127 0 - bw11c-set bw11c, f 3;
#X obj 649 34 bng 15 250 50 0 paf-mute11 empty empty 0 -6 0 8 -262144
-1 -1;
#X obj 659 367 bng 15 250 50 0 paf-clear11 empty empty 0 -6 0 8 -262144
-1 -1;
#X floatatom 707 156 3 0 100 0 - amp12-set amp12, f 3;
#X floatatom 707 130 3 0 100 0 - noise12-set noise12, f 3;
#X floatatom 707 59 5 -48 12700 0 - pitch12-set pitch12, f 5;
#X floatatom 707 179 3 0 127 0 - cf12-set cf12, f 3;
#X floatatom 707 202 3 0 127 0 - bw12-set bw12, f 3;
#X floatatom 707 84 3 0 100 0 - vamp12-set vamp12, f 3;
#X floatatom 707 107 3 0 127 0 - vfreq12-set vfreq12, f 3;
#X floatatom 707 226 3 0 100 0 - amp12b-set amp12b, f 3;
#X floatatom 707 249 3 0 127 0 - cf12b-set cf12b, f 3;
#X floatatom 707 272 3 0 127 0 - bw12b-set bw12b, f 3;
#X floatatom 707 296 3 0 100 0 - amp12c-set amp12c, f 3;
#X floatatom 707 319 3 0 127 0 - cf12c-set cf12c, f 3;
#X floatatom 707 342 3 0 127 0 - bw12c-set bw12c, f 3;
#X obj 706 34 bng 15 250 50 0 paf-mute12 empty empty 0 -6 0 8 -262144
-1 -1;
#X obj 716 367 bng 15 250 50 0 paf-clear12 empty empty 0 -6 0 8 -262144
-1 -1;
#X floatatom 878 157 3 0 100 0 - amp15-set amp15, f 3;
#X floatatom 878 131 3 0 100 0 - noise15-set noise15, f 3;
#X floatatom 878 60 5 -48 12700 0 - pitch15-set pitch15, f 5;
#X floatatom 878 180 3 0 127 0 - cf15-set cf15, f 3;
#X floatatom 878 203 3 0 127 0 - bw15-set bw15, f 3;
#X floatatom 878 85 3 0 100 0 - vamp15-set vamp15, f 3;
#X floatatom 878 108 3 0 127 0 - vfreq15-set vfreq15, f 3;
#X floatatom 878 227 3 0 100 0 - amp15b-set amp15b, f 3;
#X floatatom 878 250 3 0 127 0 - cf15b-set cf15b, f 3;
#X floatatom 878 273 3 0 127 0 - bw15b-set bw15b, f 3;
#X floatatom 878 297 3 0 100 0 - amp15c-set amp15c, f 3;
#X floatatom 878 320 3 0 127 0 - cf15c-set cf15c, f 3;
#X floatatom 878 343 3 0 127 0 - bw15c-set bw15c, f 3;
#X obj 877 35 bng 15 250 50 0 paf-mute15 empty empty 0 -6 0 8 -262144
-1 -1;
#X obj 887 368 bng 15 250 50 0 paf-clear15 empty empty 0 -6 0 8 -262144
-1 -1;
#X floatatom 935 157 3 0 100 0 - amp16-set amp16, f 3;
#X floatatom 935 131 3 0 100 0 - noise16-set noise16, f 3;
#X floatatom 935 60 5 -48 12700 0 - pitch16-set pitch16, f 5;
#X floatatom 935 180 3 0 127 0 - cf16-set cf16, f 3;
#X floatatom 935 203 3 0 127 0 - bw16-set bw16, f 3;
#X floatatom 935 85 3 0 100 0 - vamp16-set vamp16, f 3;
#X floatatom 935 108 3 0 127 0 - vfreq16-set vfreq16, f 3;
#X floatatom 935 227 3 0 100 0 - amp16b-set amp16b, f 3;
#X floatatom 935 250 3 0 127 0 - cf16b-set cf16b, f 3;
#X floatatom 935 273 3 0 127 0 - bw16b-set bw16b, f 3;
#X floatatom 935 297 3 0 100 0 - amp16c-set amp16c, f 3;
#X floatatom 935 320 3 0 127 0 - cf16c-set cf16c, f 3;
#X floatatom 935 343 3 0 127 0 - bw16c-set bw16c, f 3;
#X obj 934 35 bng 15 250 50 0 paf-mute16 empty empty 0 -6 0 8 -262144
-1 -1;
#X obj 944 368 bng 15 250 50 0 paf-clear16 empty empty 0 -6 0 8 -262144
-1 -1;
#X text 648 10 11;
#X text 706 10 12;
#X text 876 11 15;
#X text 933 11 16;
#N canvas 297 193 647 401 ctl 0;
#X obj 396 38 r reset;
#X obj 397 61 b;
#X obj 397 82 del 20;
#X obj 398 107 s paf-clear-all;
#X obj 545 53 r paf-test;
#X msg 546 78 \; vamp1 0 \; vfreq1 0 \; pitch1 69 \; amp1 50 \; noise1
0 \; cf1 81 \; bw1 69 \; amp1b 0 \; amp1c 0 \;;
#X obj 217 22 paf-ctl 1;
#X obj 217 42 paf-ctl 2;
#X obj 217 162 paf-ctl 8;
#X obj 217 62 paf-ctl 3;
#X obj 217 82 paf-ctl 4;
#X obj 217 102 paf-ctl 5;
#X obj 217 122 paf-ctl 6;
#X obj 217 142 paf-ctl 7;
#X obj 217 182 paf-ctl 9;
#X obj 217 202 paf-ctl 10;
#X obj 217 222 paf-ctl 11;
#X obj 217 242 paf-ctl 12;
#X obj 217 262 paf-ctl 13;
#X obj 217 282 paf-ctl 14;
#X obj 217 302 paf-ctl 15;
#X obj 217 322 paf-ctl 16;
#X obj 32 155 genctl fnoise;
#X connect 0 0 1 0;
#X connect 1 0 2 0;
#X connect 2 0 3 0;
#X connect 4 0 5 0;
#X restore 755 454 pd ctl;
#X restore 56 40 pd pafs;
#X obj 8 513 declare -path lib;
#N canvas 207 92 588 592 works 0;
#N canvas 327 262 461 311 shaker 0;
#X obj 176 43 inlet~;
#X obj 175 211 outlet~;
#X obj 261 82 unpack;
#X obj 285 58 t l b;
#X obj 315 85 0;
#X obj 224 104 moses -99;
#X msg 223 127 0;
#X obj 257 127 mtof;
#X obj 280 187 line;
#X obj 175 171 shaker2~;
#X obj 257 150 / 256;
#X obj 285 34 r fnoise;
#X connect 0 0 9 0;
#X connect 2 0 5 0;
#X connect 2 1 8 1;
#X connect 3 0 2 0;
#X connect 3 1 4 0;
#X connect 4 0 8 1;
#X connect 5 0 6 0;
#X connect 5 1 7 0;
#X connect 6 0 8 0;
#X connect 7 0 10 0;
#X connect 8 0 9 1;
#X connect 9 0 1 0;
#X connect 10 0 8 0;
#X connect 11 0 3 0;
#X restore 169 285 pd shaker;
#N canvas 116 72 726 644 pafs1-8 0;
#X obj 31 156 wavepacket pitch5 vamp5 vfreq5 noise5 amp5 cf5 bw5 amp5b
cf5b bw5b amp5c cf5c bw5c;
#X obj 54 59 inlet~;
#X obj 357 63 inlet~;
#X obj 31 464 outlet~;
#X obj 420 461 outlet~;
#X obj 363 519 tgl 15 0 empty empty empty 17 7 0 10 -262144 -1 -1 1
1;
#X obj 363 538 switch~;
#X obj 363 496 r paf1-switch;
#X obj 364 566 genctl paf1-switch 0;
#X obj 31 193 wavepacket pitch6 vamp6 vfreq6 noise6 amp6 cf6 bw6 amp6b
cf6b bw6b amp6c cf6c bw6c;
#X obj 31 230 wavepacket pitch7 vamp7 vfreq7 noise7 amp7 cf7 bw7 amp7b
cf7b bw7b amp7c cf7c bw7c;
#X obj 31 267 wavepacket pitch8 vamp8 vfreq8 noise8 amp8 cf8 bw8 amp8b
cf8b bw8b amp8c cf8c bw8c;
#X obj 31 306 wavepacket pitch1 vamp1 vfreq1 noise1 amp1 cf1 bw1 amp1b
cf1b bw1b amp1c cf1c bw1c;
#X obj 31 343 wavepacket pitch2 vamp2 vfreq2 noise2 amp2 cf2 bw2 amp2b
cf2b bw2b amp2c cf2c bw2c;
#X obj 31 380 wavepacket pitch3 vamp3 vfreq3 noise3 amp3 cf3 bw3 amp3b
cf3b bw3b amp3c cf3c bw3c;
#X obj 31 417 wavepacket pitch4 vamp4 vfreq4 noise4 amp4 cf4 bw4 amp4b
cf4b bw4b amp4c cf4c bw4c;
#X connect 0 0 9 0;
#X connect 0 1 9 1;
#X connect 1 0 0 0;
#X connect 2 0 0 1;
#X connect 5 0 6 0;
#X connect 7 0 5 0;
#X connect 9 0 10 0;
#X connect 9 1 10 1;
#X connect 10 0 11 0;
#X connect 10 1 11 1;
#X connect 11 0 12 0;
#X connect 11 1 12 1;
#X connect 12 0 13 0;
#X connect 12 1 13 1;
#X connect 13 0 14 0;
#X connect 13 1 14 1;
#X connect 14 0 15 0;
#X connect 14 1 15 1;
#X connect 15 0 3 0;
#X connect 15 1 4 0;
#X restore 120 208 pd pafs1-8;
#N canvas 464 50 560 581 pafs9-16 0;
#X obj 40 55 inlet~;
#X obj 425 58 inlet~;
#X obj 39 393 outlet~;
#X obj 437 395 outlet~;
#X obj 220 466 tgl 15 0 empty empty empty 17 7 0 10 -262144 -1 -1 1
1;
#X obj 220 485 switch~;
#X obj 220 443 r paf2-switch;
#X obj 221 513 genctl paf2-switch 0;
#X obj 40 86 wavepacket pitch9 vamp9 vfreq9 noise9 amp9 cf9 bw9 amp9b
cf9b bw9b amp9c cf9c bw9c;
#X obj 40 123 wavepacket pitch10 vamp10 vfreq10 noise10 amp10 cf10
bw10 amp10b cf10b bw10b amp10c cf10c bw10c;
#X obj 40 160 wavepacket pitch11 vamp11 vfreq11 noise11 amp11 cf11
bw11 amp11b cf11b bw11b amp11c cf11c bw11c;
#X obj 40 197 wavepacket pitch12 vamp12 vfreq12 noise12 amp12 cf12
bw12 amp12b cf12b bw12b amp12c cf12c bw12c;
#X obj 40 234 wavepacket pitch13 vamp13 vfreq13 noise13 amp13 cf13
bw13 amp13b cf13b bw13b amp13c cf13c bw13c;
#X obj 40 271 wavepacket pitch14 vamp14 vfreq14 noise14 amp14 cf14
bw14 amp14b cf14b bw14b amp14c cf14c bw14c;
#X obj 40 308 wavepacket pitch15 vamp15 vfreq15 noise15 amp15 cf15
bw15 amp15b cf15b bw15b amp15c cf15c bw15c;
#X obj 40 345 wavepacket pitch16 vamp16 vfreq16 noise16 amp16 cf16
bw16 amp16b cf16b bw16b amp16c cf16c bw16c;
#X connect 0 0 8 0;
#X connect 1 0 8 1;
#X connect 4 0 5 0;
#X connect 6 0 4 0;
#X connect 8 0 9 0;
#X connect 8 1 9 1;
#X connect 9 0 10 0;
#X connect 9 1 10 1;
#X connect 10 0 11 0;
#X connect 10 1 11 1;
#X connect 11 0 12 0;
#X connect 11 1 12 1;
#X connect 12 0 13 0;
#X connect 12 1 13 1;
#X connect 13 0 14 0;
#X connect 13 1 14 1;
#X connect 14 0 15 0;
#X connect 14 1 15 1;
#X connect 15 0 2 0;
#X connect 15 1 3 0;
#X restore 120 244 pd pafs9-16;
#X obj 16 421 declare -path . -path lib -path ../../lib -path ../lib
-path tab -path four-table;
#X obj 23 468 tab2~ vib1.snd;
#X obj 136 457 table noise41;
#X obj 136 475 table noise42;
#X obj 136 493 table noise43;
#X obj 136 512 table noise44;
#X obj 63 14 loadbang;
#X obj 33 378 table noise-starts;
#X obj 263 246 env~ 4096;
#X floatatom 265 268 5 0 0 0 - - -, f 5;
#X msg 65 36 \; noise41 resize 4099 \, read four-table/hat41.txt \;
noise42 resize 4099 \, read four-table/hat42.txt \; noise43 resize
4099 \, read four-table/hat43.txt \; noise44 resize 4099 \, read four-table/hat44.txt
\; noise-starts resize 10 \, read four-table/hat4-starts.txt \; pd
dsp 1 \; paf1-switch 1 \; paf2-switch 1 \;;
#X obj 120 339 outlet~;
#X connect 0 0 14 0;
#X connect 1 0 2 0;
#X connect 1 0 11 0;
#X connect 1 1 2 1;
#X connect 2 0 14 0;
#X connect 2 1 0 0;
#X connect 9 0 13 0;
#X connect 11 0 12 0;
#X restore 356 140 pd works;
#X obj 356 174 output~;
#N canvas -114 196 974 529 paf-seq 0;
#X obj 98 40 r paf;
#X obj 98 97 t b l;
#X obj 63 174 list append;
#X obj 65 128 f;
#X obj 103 121 + 1;
#X msg 62 75 0;
#X obj 66 386 paf-seq-voice 1;
#X obj 186 170 list prepend;
#X obj 98 67 route list;
#X floatatom 60 436 5 0 0 0 - - -, f 5;
#X obj 5 20 r paf-next;
#X obj 103 150 & 15;
#X obj 66 212 route 1 2 3 4 5 6 7 8 9 10 11 12 13 14 15 16;
#X obj 5 44 - 1;
#X obj 5 67 & 15;
#X msg 59 456 \; paf \$1 0 0 0 50 70 64 0 0 0 0 0 0 \, w 30 \, amp
0 1000;
#X obj 397 166 list prepend;
#X obj 389 107 route list;
#X obj 389 80 r pv;
#X text 337 18 paf with voice number;
#X obj 530 155 f;
#X msg 595 455 \; pv 1 \$1 0 0 0 50 70 64 0 0 0 0 0 0 \, w 30 \, amp
0 1000;
#X floatatom 595 428 5 0 0 0 - - -, f 5;
#X obj 529 113 r pvnum;
#X obj 85 366 paf-seq-voice 2;
#X obj 104 346 paf-seq-voice 3;
#X obj 123 326 paf-seq-voice 4;
#X obj 142 306 paf-seq-voice 5;
#X obj 161 286 paf-seq-voice 6;
#X obj 180 266 paf-seq-voice 7;
#X obj 199 246 paf-seq-voice 8;
#X obj 298 395 paf-seq-voice 9;
#X obj 317 375 paf-seq-voice 10;
#X obj 336 355 paf-seq-voice 11;
#X obj 355 335 paf-seq-voice 12;
#X obj 374 315 paf-seq-voice 13;
#X obj 393 295 paf-seq-voice 14;
#X obj 412 275 paf-seq-voice 15;
#X obj 431 255 paf-seq-voice 16;
#X connect 0 0 8 0;
#X connect 1 0 3 0;
#X connect 1 1 2 1;
#X connect 2 0 12 0;
#X connect 3 0 4 0;
#X connect 4 0 2 0;
#X connect 4 0 7 1;
#X connect 4 0 11 0;
#X connect 5 0 3 1;
#X connect 7 0 12 0;
#X connect 8 0 1 0;
#X connect 8 1 7 0;
#X connect 9 0 15 0;
#X connect 10 0 13 0;
#X connect 11 0 3 1;
#X connect 12 0 6 0;
#X connect 12 1 24 0;
#X connect 12 2 25 0;
#X connect 12 3 26 0;
#X connect 12 4 27 0;
#X connect 12 5 28 0;
#X connect 12 6 29 0;
#X connect 12 7 30 0;
#X connect 12 8 31 0;
#X connect 12 9 32 0;
#X connect 12 10 33 0;
#X connect 12 11 34 0;
#X connect 12 12 35 0;
#X connect 12 13 36 0;
#X connect 12 14 37 0;
#X connect 12 15 38 0;
#X connect 13 0 14 0;
#X connect 14 0 3 1;
#X connect 16 0 12 0;
#X connect 17 0 12 0;
#X connect 17 0 20 0;
#X connect 17 1 16 0;
#X connect 18 0 17 0;
#X connect 20 0 16 1;
#X connect 22 0 21 0;
#X connect 23 0 20 0;
#X restore 55 87 pd paf-seq;
#X msg 327 47 \; paf 48 4 0 0 0 66 57 0 95 34 0 103 38;
#X floatatom 31 262 5 0 0 0 - - -, f 5;
#X floatatom 22 392 5 0 0 0 - - -, f 5;
#X msg 210 502 \; pv 1 0 4 0 0 0 0 0 0 0 0 0 103 38;
#X obj 35 226 r pn;
#X msg 95 228 48 \, 52 \, 55 \, 60 \, 67 \, 72 \, 76;
#X floatatom 57 541 5 0 0 0 - - -, f 5;
#X msg 58 573 \; paf \$1 4 0 0 0 66 57 0 95 0 0 103 38 \, amp 72 1000
\, ampb 45 1000 \, ampc 33 1000 \, w 20 \, bw 0 1000 \, cfb 66 1000
\, w 980 \, amp 0 1000 \, ampb 0 1000 \, ampc 0 1000;
#X msg 18 422 \; pv 1 \$1 4 0 0 72 66 57 45 95 34 33 103 38;
#X msg 450 405 \; pvnum 1 \, amp 0 1000 \, ampb 0 1000 \, ampc 0 1000
, f 42;
#X obj 602 148 r pitch1;
#X floatatom 596 197 5 0 0 0 - - -, f 5;
#X obj 451 183 rev3~ 100 90;
#X obj 229 74 genctl pn;
#X msg 30 302 \; paf \$1 4 0 0 0 66 57 0 95 0 0 103 38 \, amp 72 10
\, ampb 45 10 \, ampc 33 10 \, w 20 \, bw 0 1000 \, cfb 66 1000 \,
w 50 \, amp 0 1000 \, ampb 0 1000 \, ampc 0 1000;
#X obj 718 112 updown cf1;
#N canvas 2 52 450 300 cf1-who 0;
#X obj 84 140 tgl 15 0 cf1mark cf1mark-set cf1mark 17 7 0 10 -262144
-1 -1 1 1;
#X obj 81 171 tgl 15 0 cf1updown-on cf1updown-on-set cf1updown-on 17
7 0 10 -262144 -1 -1 0 1;
#X restore 702 313 pd cf1-who;
#N canvas 494 93 458 553 tutti 0;
#X obj 107 44 r cftutti;
#X obj 107 73 s cf1;
#X obj 108 100 s cf2;
#X obj 108 136 s cf3;
#X obj 110 162 s cf4;
#X obj 278 127 r cf1to2;
#X obj 210 126 r cf1;
#X obj 210 155 spigot;
#X obj 213 187 s cf2;
#X obj 194 269 spigot;
#X obj 262 241 r cf2to3;
#X obj 193 240 r cf2;
#X obj 197 301 s cf3;
#X msg 119 395 \; cf1to2 1 \; cf2to3 1;
#X msg 255 398 \; cf1to2 0 \; cf2to3 0;
#X connect 0 0 1 0;
#X connect 0 0 2 0;
#X connect 0 0 3 0;
#X connect 0 0 4 0;
#X connect 5 0 7 1;
#X connect 6 0 7 0;
#X connect 7 0 8 0;
#X connect 9 0 12 0;
#X connect 10 0 9 1;
#X connect 11 0 9 0;
#X restore 239 121 pd tutti;
#X connect 4 0 5 0;
#X connect 4 0 5 1;
#X connect 4 0 19 0;
#X connect 8 0 21 0;
#X connect 9 0 15 0;
#X connect 11 0 8 0;
#X connect 12 0 8 0;
#X connect 13 0 14 0;
#X connect 17 0 18 0;
#X connect 19 0 5 0;
#X connect 19 1 5 1;
